<svg id="Ebene_1" data-name="Ebene 1" xmlns="http://www.w3.org/2000/svg" viewBox="0 0 300 300"><defs><style>.cls-1{fill:#24242f;}</style></defs><title>bass-elec</title><path class="cls-1" d="M254.33,132.69H45.67c-9.16,0-17.93,8-17.5,17.5s7.69,17.5,17.5,17.5H254.33c9.16,0,17.93-8.05,17.5-17.5S264.14,132.69,254.33,132.69Z"/><path class="cls-1" d="M90.33,107.31H209.67c9.15,0,17.92-8,17.5-17.5s-7.69-17.5-17.5-17.5H90.33c-9.15,0-17.92,8-17.5,17.5S80.52,107.31,90.33,107.31Z"/><path class="cls-1" d="M197,193.06H103c-9.16,0-17.93,8.05-17.5,17.5s7.69,17.5,17.5,17.5h94c9.16,0,17.93-8.05,17.5-17.5S206.82,193.06,197,193.06Z"/></svg>