<svg id="Ebene_3" data-name="Ebene 3" xmlns="http://www.w3.org/2000/svg" viewBox="0 0 496.82 257"><defs><style>.cls-1{fill:#1d1d1b;}</style></defs><title>sound_icons_3</title><path class="cls-1" d="M19.67,268.5H433.91c19.17,0,38.46.63,57.62,0h.8c16.09,0,16.12-25,0-25H78.09c-19.17,0-38.46-.63-57.62,0h-.8c-16.09,0-16.12,25,0,25Z" transform="translate(-7.59 -127.5)"/><path class="cls-1" d="M113,152.5H399c16.09,0,16.11-25,0-25H113c-16.09,0-16.11,25,0,25Z" transform="translate(-7.59 -127.5)"/><path class="cls-1" d="M165.67,384.5H346.33c16.09,0,16.12-25,0-25H165.67c-16.09,0-16.12,25,0,25Z" transform="translate(-7.59 -127.5)"/></svg>