<svg id="Ebene_1" data-name="Ebene 1" xmlns="http://www.w3.org/2000/svg" viewBox="0 0 300 300"><defs><style>.cls-1{fill:#24242f;}</style></defs><title>bass-byte</title><path class="cls-1" d="M102.78,119l-.06,0c2,.42,2.46.08,1.9-.09A8.27,8.27,0,0,1,102.78,119Z"/><path class="cls-1" d="M213.64,116.17c-2.39,1.18-2.37,1.35-1.62,1a18,18,0,0,1,1.56-1Z"/><path class="cls-1" d="M108.8,118.78a4.06,4.06,0,0,0,1.42.19l-.69-.16Z"/><path class="cls-1" d="M58.83,137.19c9.11,4.81,18.14,1.63,23.94-6.28-4.81,6.56-.49.73,1.46-1.25,1.43-1.46,3-2.8,4.49-4.14,1.12-.77,2.23-1.55,3.4-2.27s2.28-1.34,3.45-2l1.26-.6c1.26-.38,2.49-.87,3.77-1.21.71-.19,1.41-.35,2.12-.5l-.33-.07a2.6,2.6,0,0,0,.39,0l.23,0a3.58,3.58,0,0,1,1.61,0,16.5,16.5,0,0,1,2-.2c.73,0,1.46,0,2.18.08-.08,0-.13-.1-.13-.16l.86.19.39,0c1.43,0,1,.14.3.14,1.51.34,3.61.82,3.73.86,1,.3,2,.66,3,1l.32.11.48.25c2,1,3.9,2,5.78,3.22,1.12.71,2.19,1.46,3.29,2.2.16.11.69.51,1,.78,4.68,3.83,8.7,8.35,13.25,12.31,9,7.81,18.85,14.14,30.21,17.82,17.14,5.54,35.53,2.74,51.26-5.5,8.19-4.3,16.45-10.37,22.39-17.56s7.41-17.94,0-24.75c-6.44-5.91-18.53-7.54-24.75,0a48.33,48.33,0,0,1-4.46,4.59q-.93.85-1.89,1.68a2.43,2.43,0,0,1-.25.2L214,116l-.45.24a9.32,9.32,0,0,1-1.56,1c-1.7,1.13-3.33,2.51-5.06,3.5-1.36.78-2.76,1.46-4.15,2.18l-.19.09-.15,0c-2.45.8-5.21,1.19-7.76,1.87.18,0-.62.38-1.66.5l-.65.23.58-.22-.31,0c-.75,0-1.5,0-2.26,0s-1.53,0-2.3-.06l-1.16-.07q-2.91-.28,1.08.21c-.83.5-3.91-.78-4.88-1s-2.1-.6-3.13-.95c-.61-.2-1-.33-1.26-.39-.09-.06-.2-.11-.33-.18-1.76-.92-3.54-1.79-5.25-2.81-1.38-.83-2.68-1.74-4-2.61-.2-.12-1-.7-1.27-.91-4.64-3.77-8.62-8.25-13.1-12.18-9-7.88-18.9-14.35-30.33-18-16.3-5.22-34.2-2.61-48.89,5.91a75.74,75.74,0,0,0-23,20.88C47.12,120.65,51.06,133.08,58.83,137.19Z"/><path class="cls-1" d="M194.71,124.86a6.71,6.71,0,0,0-1.73.51h.07C193.59,125.18,194.14,125,194.71,124.86Z"/><path class="cls-1" d="M108.53,174.63a4.06,4.06,0,0,0,1.42.19l-.69-.16Z"/><path class="cls-1" d="M213.37,172c-2.4,1.18-2.37,1.35-1.63,1,.52-.35,1-.66,1.57-1Z"/><path class="cls-1" d="M220,165.55a48.33,48.33,0,0,1-4.46,4.59q-.93.86-1.89,1.68l-.25.2.39-.19-.45.24a9,9,0,0,1-1.57,1c-1.69,1.13-3.33,2.51-5.06,3.5-1.35.78-2.75,1.46-4.14,2.18l-.19.09-.15.05c-2.46.8-5.22,1.19-7.76,1.87.18,0-.62.38-1.66.5l-.65.23.58-.22-.31,0c-.75,0-1.51.05-2.26.05s-1.53,0-2.3-.06l-1.17-.07q-2.89-.28,1.09.21c-.83.5-3.91-.78-4.89-1s-2.09-.6-3.13-1c-.6-.2-1-.33-1.25-.39l-.33-.18c-1.77-.92-3.55-1.79-5.26-2.81-1.37-.83-2.67-1.74-4-2.61-.2-.12-1-.7-1.27-.92-4.64-3.76-8.62-8.24-13.1-12.17-9-7.88-18.9-14.35-30.33-18-16.3-5.22-34.21-2.61-48.89,5.91a75.74,75.74,0,0,0-23,20.88c-5.43,7.41-1.49,19.84,6.27,23.95,9.11,4.81,18.15,1.63,24-6.28-4.81,6.56-.49.73,1.46-1.25,1.43-1.46,3-2.8,4.49-4.14,1.12-.77,2.23-1.55,3.4-2.27s2.27-1.34,3.45-1.95c.41-.21.84-.4,1.26-.6,1.26-.38,2.49-.87,3.77-1.21.7-.19,1.41-.35,2.12-.5l-.33-.07a2.32,2.32,0,0,0,.38,0l.24,0a3.53,3.53,0,0,1,1.6,0,16.86,16.86,0,0,1,2-.2c.73,0,1.46,0,2.18.08-.08,0-.14-.1-.14-.16l.87.19.39,0c1.43,0,1,.14.3.14,1.51.34,3.6.82,3.73.86,1,.3,2,.66,3,1l.32.11.47.25c2,1,3.9,2,5.78,3.22,1.12.71,2.2,1.46,3.29,2.2.17.11.7.51,1,.78,4.67,3.83,8.7,8.35,13.25,12.31,9,7.81,18.85,14.14,30.21,17.82,17.14,5.54,35.53,2.74,51.25-5.5,8.19-4.3,16.46-10.37,22.4-17.56s7.41-17.94,0-24.75C238.28,159.64,226.19,158,220,165.55Z"/><path class="cls-1" d="M102.5,174.82l0,0c2,.42,2.46.07,1.89-.09A8.25,8.25,0,0,1,102.5,174.82Z"/><path class="cls-1" d="M194.44,180.71a6.49,6.49,0,0,0-1.73.51h.07C193.32,181,193.87,180.86,194.44,180.71Z"/></svg>