<svg id="Ebene_2" data-name="Ebene 2" xmlns="http://www.w3.org/2000/svg" viewBox="0 0 408.03 460.64"><defs><style>.cls-1{fill:#1d1d1b;}</style></defs><title>sound_icons_2</title><path class="cls-1" d="M135,448.37l-.78-.59c7.48,5.57,3.13,2.44,1.4,1-2.8-2.32-5.49-4.77-8.1-7.3-3.78-3.68-7.39-7.56-10.8-11.6-1-1.13-1.89-2.3-2.83-3.45-2.82-3.48,3.26,4.39-.19-.28q-3.2-4.32-6.06-8.87-2.56-4-4.84-8.3-1.27-2.39-2.46-4.83-.6-1.23-1.17-2.49c-.94-2.07-.93-5.09.17.52-.7-3.59-2.77-7.26-3.82-10.8a106.5,106.5,0,0,1-3-12.56c-.15-.84-.25-1.68-.4-2.52-.49-2.63.61,5.58.24,1.75-.19-2.09-.4-4.17-.51-6.26a104.39,104.39,0,0,1,.23-14.15c.1-1.13.23-2.25.34-3.38.43-4.24-.86,5-.08.76.43-2.33.83-4.66,1.36-7a118.58,118.58,0,0,1,4.71-15.63c.35-.92.77-3,1.46-3.7-.22.22-2,4.4-.42,1,1.2-2.54,2.37-5.08,3.67-7.57a162.7,162.7,0,0,1,10.13-16.87c1.85-2.71,3.78-5.36,5.76-8-2.77,3.66.75-.9,1.11-1.34q1.66-2.06,3.39-4.07c5.35-6.27,11.09-12.14,16.91-18,20.7-20.72,37.91-44.51,48.51-71.91,15-38.78,10.18-81.37-8.71-117.81a191.82,191.82,0,0,0-27.85-39.52,127.1,127.1,0,0,0-13.36-13.2c-8.07-6.63-20.5-8.48-28.29,0-6.74,7.35-8.63,21.19,0,28.29a118.34,118.34,0,0,1,11.32,11c1.73,1.86,3.41,3.75,5.06,5.67.75.89,1.5,1.78,2.24,2.68,1.2,1.47,5.06,6.89.58.62,4.09,5.72,8.18,11.35,11.75,17.43q2.82,4.8,5.3,9.79c.85,1.73,1.65,3.48,2.46,5.22,1.09,2.36-.05,2.91-.47-1.18.12,1.14,1.05,2.61,1.47,3.69a128.21,128.21,0,0,1,6.6,23.93c.18,1.06.29,2.15.51,3.2-1.28-6.21-.34-2.54-.18-1q.36,3.3.52,6.63a115.92,115.92,0,0,1-.24,14.91c-.09,1.18-.23,2.35-.34,3.54-.4,4.37.84-4.92.08-.55-.41,2.44-.82,4.87-1.35,7.28a123.21,123.21,0,0,1-4.26,15q-.67,1.92-1.41,3.81c-.47,1.22-1.33,5.34-.09.36-.65,2.62-2.44,5.38-3.66,7.79a164.44,164.44,0,0,1-10.13,17.24c-1.85,2.75-3.8,5.43-5.76,8.11-3.34,4.55,2.58-3-1.11,1.4-1.14,1.37-2.24,2.76-3.39,4.12-5.34,6.31-11.07,12.2-16.91,18C88.84,269,71.63,292.31,60.83,319.33c-14.71,36.82-10.55,77.89,8.71,112.18a163.25,163.25,0,0,0,45.27,51.4c8.48,6.18,22.67,1.71,27.36-7.18,5.49-10.39,1.88-20.76-7.17-27.36Z" transform="translate(-51.99 -25.83)"/><path class="cls-1" d="M397.19,449.06l-.77-.58c7.47,5.56,3.13,2.44,1.39,1-2.79-2.32-5.49-4.77-8.09-7.31a157.72,157.72,0,0,1-10.8-11.59c-1-1.14-1.9-2.3-2.84-3.46-2.81-3.47,3.26,4.39-.19-.28-2.12-2.88-4.15-5.83-6.06-8.86q-2.56-4.07-4.84-8.3-1.28-2.39-2.46-4.83c-.39-.83-.78-1.66-1.16-2.49-.95-2.07-.94-5.1.16.51-.7-3.59-2.76-7.25-3.82-10.8a108,108,0,0,1-3-12.56c-.14-.83-.25-1.68-.4-2.51-.49-2.63.61,5.58.25,1.75-.2-2.09-.41-4.17-.52-6.27a104.45,104.45,0,0,1,.24-14.15c.09-1.12.22-2.24.34-3.37.42-4.24-.86,5-.08.75.42-2.33.82-4.66,1.35-7a118,118,0,0,1,4.71-15.62c.35-.93.77-3,1.46-3.7-.21.22-2,4.4-.41,1,1.19-2.54,2.36-5.08,3.66-7.58A167.24,167.24,0,0,1,375.48,306c1.85-2.71,3.78-5.37,5.76-8-2.77,3.66.75-.9,1.11-1.34,1.11-1.37,2.25-2.73,3.39-4.07,5.35-6.28,11.09-12.15,16.91-18,20.71-20.72,37.91-44.5,48.52-71.91,15-38.78,10.17-81.36-8.71-117.8A191.93,191.93,0,0,0,414.6,45.41a126,126,0,0,0-13.36-13.19c-8.07-6.63-20.49-8.49-28.29,0-6.74,7.34-8.63,21.19,0,28.28a119.74,119.74,0,0,1,11.33,11q2.58,2.77,5.05,5.67c.76.88,1.5,1.78,2.24,2.68,1.21,1.46,5.06,6.89.58.62,4.09,5.72,8.19,11.34,11.75,17.42q2.82,4.8,5.3,9.8c.85,1.72,1.65,3.47,2.46,5.22,1.09,2.36-.05,2.91-.47-1.18.12,1.14,1.06,2.61,1.47,3.69a128,128,0,0,1,6.6,23.93c.19,1.06.29,2.14.51,3.19-1.27-6.21-.34-2.53-.17-1q.34,3.31.51,6.63a115.92,115.92,0,0,1-.23,14.91c-.1,1.18-.24,2.36-.34,3.54-.4,4.38.83-4.91.08-.54-.42,2.44-.83,4.86-1.36,7.28A124.85,124.85,0,0,1,414,188.29c-.45,1.28-.93,2.55-1.41,3.82s-1.34,5.34-.09.35c-.66,2.63-2.45,5.39-3.67,7.79a163.42,163.42,0,0,1-10.13,17.24c-1.85,2.76-3.8,5.44-5.76,8.11-3.34,4.56,2.58-3-1.11,1.41-1.14,1.36-2.24,2.75-3.39,4.11-5.33,6.31-11.07,12.21-16.91,18C351,269.67,333.82,293,323,320c-14.72,36.82-10.56,77.9,8.71,112.18A163.1,163.1,0,0,0,377,483.6c8.49,6.19,22.67,1.72,27.37-7.17,5.49-10.4,1.88-20.76-7.18-27.37Z" transform="translate(-51.99 -25.83)"/></svg>