<svg id="Ebene_1" data-name="Ebene 1" xmlns="http://www.w3.org/2000/svg" viewBox="0 0 460.64 288.03"><defs><style>.cls-1{fill:#1d1d1b;}</style></defs><title>sound_icons_1</title><path class="cls-1" d="M63.63,195l.59-.78c-5.57,7.48-2.44,3.13-1,1.4,2.32-2.8,4.77-5.49,7.3-8.1,3.68-3.78,7.56-7.39,11.6-10.8,1.13-1,2.3-1.89,3.45-2.83,3.48-2.82-4.39,3.26.28-.19q4.32-3.19,8.87-6.06,4.05-2.56,8.3-4.84,2.39-1.28,4.83-2.46,1.23-.6,2.49-1.17c2.07-.94,5.09-.93-.52.17,3.59-.7,7.26-2.77,10.8-3.82a106.5,106.5,0,0,1,12.56-3c.84-.15,1.68-.25,2.52-.4,2.63-.49-5.58.61-1.75.24,2.09-.19,4.17-.4,6.26-.51a104.39,104.39,0,0,1,14.15.23c1.13.1,2.25.23,3.38.34,4.24.43-5-.86-.76-.08,2.33.43,4.66.83,7,1.36a118.58,118.58,0,0,1,15.63,4.71c.92.35,3,.77,3.7,1.46-.22-.22-4.4-2-1-.42,2.54,1.2,5.08,2.37,7.57,3.67a162.7,162.7,0,0,1,16.87,10.13c2.71,1.85,5.36,3.78,8,5.76-3.66-2.77.9.75,1.34,1.11q2.06,1.67,4.07,3.39c6.27,5.35,12.14,11.09,18,16.91,20.72,20.7,44.51,37.91,71.91,48.51,38.78,15,81.37,10.18,117.81-8.71a191.82,191.82,0,0,0,39.52-27.85,127.1,127.1,0,0,0,13.2-13.36c6.63-8.07,8.48-20.5,0-28.29-7.35-6.74-21.19-8.63-28.29,0a118.34,118.34,0,0,1-11,11.32c-1.86,1.73-3.75,3.41-5.67,5.06-.89.75-1.78,1.5-2.68,2.24-1.47,1.2-6.89,5.06-.62.58-5.72,4.09-11.35,8.18-17.43,11.75Q410,204.53,405,207c-1.73.85-3.48,1.65-5.22,2.46-2.36,1.09-2.91-.05,1.18-.47-1.14.12-2.61,1.05-3.69,1.47a128.21,128.21,0,0,1-23.93,6.6c-1.06.18-2.15.29-3.2.51,6.21-1.28,2.54-.34,1-.18q-3.3.36-6.63.52a115.92,115.92,0,0,1-14.91-.24c-1.18-.09-2.35-.23-3.54-.34-4.37-.4,4.92.84.55.08-2.44-.41-4.87-.82-7.28-1.35a123.21,123.21,0,0,1-15-4.26q-1.92-.67-3.81-1.41c-1.22-.47-5.34-1.33-.36-.09-2.62-.65-5.38-2.44-7.79-3.66a164.44,164.44,0,0,1-17.24-10.13c-2.75-1.85-5.43-3.8-8.11-5.76-4.55-3.34,3,2.58-1.4-1.11-1.37-1.14-2.76-2.24-4.12-3.39-6.31-5.34-12.2-11.07-18-16.91-20.51-20.51-43.84-37.72-70.86-48.52-36.82-14.71-77.89-10.55-112.18,8.71a163.25,163.25,0,0,0-51.4,45.27c-6.18,8.48-1.71,22.67,7.18,27.36C46.66,207.66,57,204.05,63.63,195Z" transform="translate(-25.53 -111.99)"/><path class="cls-1" d="M62.94,337.19l.58-.77c-5.56,7.47-2.44,3.13-1,1.39,2.32-2.79,4.77-5.49,7.31-8.09a157.72,157.72,0,0,1,11.59-10.8c1.14-1,2.3-1.9,3.46-2.84,3.47-2.81-4.39,3.26.28-.19C88,313.77,91,311.74,94,309.83q4.07-2.56,8.3-4.84,2.39-1.28,4.83-2.46l2.49-1.16c2.07-.95,5.1-.94-.51.16,3.59-.7,7.25-2.76,10.8-3.82a108,108,0,0,1,12.56-3c.83-.14,1.68-.25,2.51-.4,2.63-.49-5.58.61-1.75.25,2.09-.2,4.17-.41,6.27-.52a104.45,104.45,0,0,1,14.15.24c1.12.09,2.24.22,3.37.34,4.24.42-5-.86-.75-.08,2.33.42,4.66.82,7,1.35a118,118,0,0,1,15.62,4.71c.93.35,3,.77,3.7,1.46-.22-.21-4.4-2-1-.41,2.54,1.19,5.08,2.36,7.58,3.66A167.24,167.24,0,0,1,206,315.48c2.71,1.85,5.37,3.78,8,5.76-3.66-2.77.9.75,1.34,1.11,1.37,1.11,2.73,2.25,4.07,3.39,6.28,5.35,12.15,11.09,18,16.91,20.72,20.71,44.5,37.91,71.91,48.52,38.78,15,81.36,10.17,117.8-8.71a191.93,191.93,0,0,0,39.53-27.86,126,126,0,0,0,13.19-13.36c6.63-8.07,8.49-20.49,0-28.29-7.34-6.74-21.19-8.63-28.28,0a119.74,119.74,0,0,1-11,11.33q-2.77,2.58-5.67,5.05c-.88.76-1.78,1.5-2.68,2.24-1.46,1.21-6.89,5.06-.62.58-5.72,4.09-11.34,8.19-17.42,11.75q-4.8,2.82-9.8,5.3c-1.72.85-3.47,1.65-5.22,2.46-2.36,1.09-2.91-.05,1.18-.47-1.14.12-2.61,1.06-3.69,1.47a128,128,0,0,1-23.93,6.6c-1.06.19-2.14.29-3.19.51,6.21-1.27,2.53-.34,1-.17q-3.32.34-6.63.51a115.92,115.92,0,0,1-14.91-.23c-1.18-.1-2.36-.24-3.54-.34-4.38-.4,4.91.83.54.08-2.44-.42-4.86-.83-7.28-1.36a124.85,124.85,0,0,1-15-4.25c-1.28-.45-2.55-.93-3.82-1.41s-5.34-1.34-.35-.09c-2.63-.66-5.39-2.45-7.79-3.67a163.42,163.42,0,0,1-17.24-10.13c-2.76-1.85-5.44-3.8-8.11-5.76-4.56-3.34,3,2.58-1.41-1.11-1.36-1.14-2.75-2.24-4.11-3.39-6.31-5.33-12.21-11.07-18.05-16.91C242.33,291,219,273.82,192,263c-36.82-14.72-77.9-10.56-112.18,8.71A163.1,163.1,0,0,0,28.4,317c-6.19,8.49-1.72,22.67,7.17,27.37,10.4,5.49,20.76,1.88,27.37-7.18Z" transform="translate(-25.53 -111.99)"/><path class="cls-1" d="M63.63,195l.59-.78c-5.57,7.48-2.44,3.13-1,1.4,2.32-2.8,4.77-5.49,7.3-8.1,3.68-3.78,7.56-7.39,11.6-10.8,1.13-1,2.3-1.89,3.45-2.83,3.48-2.82-4.39,3.26.28-.19q4.32-3.19,8.87-6.06,4.05-2.56,8.3-4.84,2.39-1.28,4.83-2.46,1.23-.6,2.49-1.17c2.07-.94,5.09-.93-.52.17,3.59-.7,7.26-2.77,10.8-3.82a106.5,106.5,0,0,1,12.56-3c.84-.15,1.68-.25,2.52-.4,2.63-.49-5.58.61-1.75.24,2.09-.19,4.17-.4,6.26-.51a104.39,104.39,0,0,1,14.15.23c1.13.1,2.25.23,3.38.34,4.24.43-5-.86-.76-.08,2.33.43,4.66.83,7,1.36a118.58,118.58,0,0,1,15.63,4.71c.92.35,3,.77,3.7,1.46-.22-.22-4.4-2-1-.42,2.54,1.2,5.08,2.37,7.57,3.67a162.7,162.7,0,0,1,16.87,10.13c2.71,1.85,5.36,3.78,8,5.76-3.66-2.77.9.75,1.34,1.11q2.06,1.67,4.07,3.39c6.27,5.35,12.14,11.09,18,16.91,20.72,20.7,44.51,37.91,71.91,48.51,38.78,15,81.37,10.18,117.81-8.71a191.82,191.82,0,0,0,39.52-27.85,127.1,127.1,0,0,0,13.2-13.36c6.63-8.07,8.48-20.5,0-28.29-7.35-6.74-21.19-8.63-28.29,0a118.34,118.34,0,0,1-11,11.32c-1.86,1.73-3.75,3.41-5.67,5.06-.89.75-1.78,1.5-2.68,2.24-1.47,1.2-6.89,5.06-.62.58-5.72,4.09-11.35,8.18-17.43,11.75Q410,204.53,405,207c-1.73.85-3.48,1.65-5.22,2.46-2.36,1.09-2.91-.05,1.18-.47-1.14.12-2.61,1.05-3.69,1.47a128.21,128.21,0,0,1-23.93,6.6c-1.06.18-2.15.29-3.2.51,6.21-1.28,2.54-.34,1-.18q-3.3.36-6.63.52a115.92,115.92,0,0,1-14.91-.24c-1.18-.09-2.35-.23-3.54-.34-4.37-.4,4.92.84.55.08-2.44-.41-4.87-.82-7.28-1.35a123.21,123.21,0,0,1-15-4.26q-1.92-.67-3.81-1.41c-1.22-.47-5.34-1.33-.36-.09-2.62-.65-5.38-2.44-7.79-3.66a164.44,164.44,0,0,1-17.24-10.13c-2.75-1.85-5.43-3.8-8.11-5.76-4.55-3.34,3,2.58-1.4-1.11-1.37-1.14-2.76-2.24-4.12-3.39-6.31-5.34-12.2-11.07-18-16.91-20.51-20.51-43.84-37.72-70.86-48.52-36.82-14.71-77.89-10.55-112.18,8.71a163.25,163.25,0,0,0-51.4,45.27c-6.18,8.48-1.71,22.67,7.18,27.36C46.66,207.66,57,204.05,63.63,195Z" transform="translate(-25.53 -111.99)"/><path class="cls-1" d="M62.94,337.19l.58-.77c-5.56,7.47-2.44,3.13-1,1.39,2.32-2.79,4.77-5.49,7.31-8.09a157.72,157.72,0,0,1,11.59-10.8c1.14-1,2.3-1.9,3.46-2.84,3.47-2.81-4.39,3.26.28-.19C88,313.77,91,311.74,94,309.83q4.07-2.56,8.3-4.84,2.39-1.28,4.83-2.46l2.49-1.16c2.07-.95,5.1-.94-.51.16,3.59-.7,7.25-2.76,10.8-3.82a108,108,0,0,1,12.56-3c.83-.14,1.68-.25,2.51-.4,2.63-.49-5.58.61-1.75.25,2.09-.2,4.17-.41,6.27-.52a104.45,104.45,0,0,1,14.15.24c1.12.09,2.24.22,3.37.34,4.24.42-5-.86-.75-.08,2.33.42,4.66.82,7,1.35a118,118,0,0,1,15.62,4.71c.93.35,3,.77,3.7,1.46-.22-.21-4.4-2-1-.41,2.54,1.19,5.08,2.36,7.58,3.66A167.24,167.24,0,0,1,206,315.48c2.71,1.85,5.37,3.78,8,5.76-3.66-2.77.9.75,1.34,1.11,1.37,1.11,2.73,2.25,4.07,3.39,6.28,5.35,12.15,11.09,18,16.91,20.72,20.71,44.5,37.91,71.91,48.52,38.78,15,81.36,10.17,117.8-8.71a191.93,191.93,0,0,0,39.53-27.86,126,126,0,0,0,13.19-13.36c6.63-8.07,8.49-20.49,0-28.29-7.34-6.74-21.19-8.63-28.28,0a119.74,119.74,0,0,1-11,11.33q-2.77,2.58-5.67,5.05c-.88.76-1.78,1.5-2.68,2.24-1.46,1.21-6.89,5.06-.62.58-5.72,4.09-11.34,8.19-17.42,11.75q-4.8,2.82-9.8,5.3c-1.72.85-3.47,1.65-5.22,2.46-2.36,1.09-2.91-.05,1.18-.47-1.14.12-2.61,1.06-3.69,1.47a128,128,0,0,1-23.93,6.6c-1.06.19-2.14.29-3.19.51,6.21-1.27,2.53-.34,1-.17q-3.32.34-6.63.51a115.92,115.92,0,0,1-14.91-.23c-1.18-.1-2.36-.24-3.54-.34-4.38-.4,4.91.83.54.08-2.44-.42-4.86-.83-7.28-1.36a124.85,124.85,0,0,1-15-4.25c-1.28-.45-2.55-.93-3.82-1.41s-5.34-1.34-.35-.09c-2.63-.66-5.39-2.45-7.79-3.67a163.42,163.42,0,0,1-17.24-10.13c-2.76-1.85-5.44-3.8-8.11-5.76-4.56-3.34,3,2.58-1.41-1.11-1.36-1.14-2.75-2.24-4.11-3.39-6.31-5.33-12.21-11.07-18.05-16.91C242.33,291,219,273.82,192,263c-36.82-14.72-77.9-10.56-112.18,8.71A163.1,163.1,0,0,0,28.4,317c-6.19,8.49-1.72,22.67,7.17,27.37,10.4,5.49,20.76,1.88,27.37-7.18Z" transform="translate(-25.53 -111.99)"/></svg>