<svg id="Ebene_1" data-name="Ebene 1" xmlns="http://www.w3.org/2000/svg" viewBox="0 0 300 300"><defs><style>.cls-1{fill:#24242f;}</style></defs><title>bass-detune</title><path class="cls-1" d="M115.43,60.28c-7.52-5.27-19.77-1.62-23.94,6.27C87.13,74.8,89.32,83.38,96,89.08l-.19-.15c.16.15.33.28.5.42a.46.46,0,0,0,.07.07c1,.82,1.94,1.6,2.87,2.45,1.58,1.46,3.1,3,4.53,4.59.14.15.29.35.45.56.06-.09.28,0,.63.57s.63.92,1,1.37a1.64,1.64,0,0,0,.26.2l-.23-.15c.25.35.5.7.74,1.06.73,1.13,1.43,2.27,2.07,3.45.2.35.74,1.51,1.13,2.32s.65,1.8.74,2.14.4,1.65.64,2.73c0,.83.24,2.91.23,3.49s0,1-.08,1.44a44.72,44.72,0,0,0-1.27,4.84.62.62,0,0,1,0,.16c-.6,1-1,2.19-1.64,3.23-.86,1.5-1.81,2.93-2.8,4.34-.25.29-1.17,1.45-1.51,1.83-.93,1.06-1.9,2.1-2.89,3.11C97,137.4,92.18,141,88,145.15A75,75,0,0,0,69.43,173.4c-5.26,14.89-2.21,32.24,6.76,45.07a75.22,75.22,0,0,0,21.57,21c7.79,4.83,19.61,1.92,23.95-6.28a17.86,17.86,0,0,0-6.28-23.94c-.44-.27-.86-.57-1.28-.86l-.35-.25c-1.48-1.3-3-2.59-4.35-4-.79-.79-1.55-1.61-2.29-2.46-.22-.24-.43-.5-.64-.76-1.27-1.94-2.33-4-3.51-6-.11-.29-.22-.57-.31-.86-.23-.73-.43-1.46-.61-2.2l-.1-.51c0-.93-.16-2.43-.15-2.88s0-.72,0-1v0c.42-1.58.86-3.14,1.31-4.71.68-1,1.12-2.24,1.72-3.26.41-.7,2.79-4.15,2.41-3.78a68.53,68.53,0,0,1,4.79-5.27c4.19-4.23,9-7.8,13.18-12a74.81,74.81,0,0,0,18.51-28.74c5.32-15.62,2.06-33.32-6.75-47A80.57,80.57,0,0,0,115.43,60.28Z"/><path class="cls-1" d="M104.19,97c-.12.17.33,1.14,1.62,2l0-.05A11.14,11.14,0,0,1,104.19,97Z"/><path class="cls-1" d="M190.46,97.27c-.12.17.33,1.14,1.61,2l0,0A12,12,0,0,1,190.46,97.27Z"/><path class="cls-1" d="M223.28,83a80.85,80.85,0,0,0-21.58-22.5c-7.53-5.26-19.78-1.61-23.95,6.28-4.35,8.25-2.16,16.83,4.47,22.53l-.19-.16.5.43.08.06c.95.82,1.94,1.61,2.86,2.46q2.39,2.17,4.54,4.58c.14.16.29.36.45.57.06-.09.28,0,.63.57s.63.92.95,1.37l.26.19-.23-.15c.26.36.51.71.74,1.07.74,1.12,1.44,2.27,2.08,3.45.19.35.74,1.51,1.12,2.31s.65,1.81.75,2.14.39,1.65.64,2.74c0,.82.23,2.91.22,3.48s0,1-.07,1.45a43.53,43.53,0,0,0-1.27,4.84c0,.06,0,.1,0,.16-.61,1-1.06,2.19-1.65,3.22-.85,1.5-1.8,2.94-2.79,4.35-.26.28-1.18,1.45-1.51,1.83-.93,1.06-1.9,2.1-2.89,3.11-4.18,4.24-9,7.81-13.18,12a75,75,0,0,0-18.52,28.26c-5.27,14.89-2.21,32.24,6.75,45.07a75.34,75.34,0,0,0,21.58,21c7.79,4.84,19.61,1.93,23.95-6.27a17.87,17.87,0,0,0-6.28-23.95c-.44-.27-.86-.56-1.28-.85l-.35-.26c-1.48-1.29-3-2.58-4.35-4-.79-.8-1.55-1.62-2.29-2.46l-.65-.76c-1.27-2-2.33-4-3.51-6-.1-.29-.21-.58-.3-.86-.23-.73-.43-1.47-.61-2.21,0-.11-.06-.29-.1-.5,0-.94-.16-2.43-.15-2.89s0-.71,0-.95v0c.41-1.58.85-3.14,1.3-4.71.69-1,1.13-2.25,1.73-3.27.4-.69,2.78-4.15,2.41-3.78,1.49-1.84,3.12-3.59,4.78-5.27,4.19-4.22,9-7.79,13.18-12C219.71,150.61,226.29,141,230,130,235.35,114.41,232.09,96.72,223.28,83Z"/></svg>