<svg id="Ebene_1" data-name="Ebene 1" xmlns="http://www.w3.org/2000/svg" viewBox="0 0 300 300"><defs><style>.cls-1{fill:#24242f;}</style></defs><title>drums-808</title><path class="cls-1" d="M250.76,232.91l-42.58-73.74a12.35,12.35,0,0,0-21.4,0L144.2,232.91a12.36,12.36,0,0,0,10.7,18.54h85.16A12.36,12.36,0,0,0,250.76,232.91Z"/><path class="cls-1" d="M155.44,168.1,112.87,94.35a12.36,12.36,0,0,0-21.41,0L48.88,168.1a12.36,12.36,0,0,0,10.71,18.54h85.15A12.36,12.36,0,0,0,155.44,168.1Z"/><path class="cls-1" d="M160.83,137.07h59.41a12.36,12.36,0,0,0,10.7-18.54l-29.7-51.44a12.36,12.36,0,0,0-21.41,0l-29.7,51.44A12.36,12.36,0,0,0,160.83,137.07Z"/></svg>