<svg id="Ebene_6" data-name="Ebene 6" xmlns="http://www.w3.org/2000/svg" viewBox="0 0 459.94 179.67"><defs><style>.cls-1{fill:#1d1d1b;}</style></defs><title>sound_icons_6</title><path class="cls-1" d="M63.28,266.09c.19-.26.4-.51.59-.77-5.56,7.47-2.44,3.13-1,1.4,2.32-2.8,4.77-5.49,7.31-8.1q5.52-5.69,11.59-10.8c1.14-1,2.3-1.89,3.46-2.83,3.47-2.82-4.39,3.26.28-.19,2.88-2.13,5.83-4.16,8.86-6.06q4.06-2.56,8.3-4.84,2.39-1.29,4.83-2.46,1.23-.6,2.49-1.17c2.07-.94,5.09-.94-.51.17,3.59-.71,7.25-2.77,10.8-3.83a107.84,107.84,0,0,1,12.55-3c.84-.15,1.68-.25,2.52-.41,2.63-.49-5.58.61-1.75.25,2.09-.2,4.17-.41,6.26-.51a102.79,102.79,0,0,1,14.15.23c1.13.1,2.25.23,3.38.34,4.24.43-5-.86-.76-.08,2.33.43,4.66.83,7,1.35a122,122,0,0,1,15.62,4.71c.93.35,3,.78,3.7,1.46-.22-.21-4.4-2-1-.41,2.54,1.19,5.08,2.37,7.57,3.66a164.56,164.56,0,0,1,16.87,10.14c2.71,1.85,5.36,3.77,8,5.75-3.66-2.77.9.75,1.34,1.11q2.06,1.68,4.07,3.4c6.27,5.34,12.15,11.08,18,16.9,20.72,20.71,44.51,37.92,71.92,48.52,38.78,15,81.36,10.17,117.8-8.71a191.22,191.22,0,0,0,39.52-27.86,125.19,125.19,0,0,0,13.2-13.36c6.63-8.07,8.49-20.49,0-28.28-7.35-6.74-21.19-8.63-28.29,0a119.53,119.53,0,0,1-11,11.32c-1.85,1.72-3.74,3.41-5.67,5.05-.89.76-1.78,1.51-2.68,2.25-1.47,1.2-6.89,5-.62.57-5.72,4.09-11.35,8.19-17.42,11.76q-4.82,2.82-9.8,5.29c-1.72.86-3.47,1.65-5.22,2.46-2.36,1.1-2.91-.05,1.18-.47-1.14.12-2.61,1.06-3.69,1.47A127.26,127.26,0,0,1,373,288.17c-1.06.18-2.14.29-3.2.5,6.22-1.27,2.54-.34,1-.17-2.2.23-4.41.41-6.63.51a114,114,0,0,1-14.9-.23c-1.19-.1-2.36-.23-3.54-.34-4.38-.4,4.91.83.54.08-2.44-.42-4.87-.83-7.28-1.35a126.78,126.78,0,0,1-14.95-4.26c-1.28-.45-2.56-.92-3.82-1.41s-5.34-1.33-.35-.09c-2.63-.66-5.39-2.44-7.8-3.66a164.53,164.53,0,0,1-17.24-10.14c-2.75-1.84-5.43-3.79-8.1-5.75-4.56-3.34,3,2.58-1.41-1.11-1.36-1.14-2.76-2.25-4.11-3.4-6.31-5.33-12.21-11.07-18.05-16.9-20.5-20.51-43.84-37.73-70.85-48.52-36.83-14.71-77.9-10.55-112.19,8.71a163.24,163.24,0,0,0-51.4,45.27c-6.18,8.48-1.71,22.66,7.18,27.36,10.39,5.49,20.76,1.88,27.36-7.18Z" transform="translate(-25.88 -166.33)"/><circle class="cls-1" cx="333.46" cy="27.33" r="27.33"/><circle class="cls-1" cx="122.12" cy="152.33" r="27.33"/></svg>