<svg id="Ebene_1" data-name="Ebene 1" xmlns="http://www.w3.org/2000/svg" viewBox="0 0 300 300"><defs><style>.cls-1{fill:#24242f;}</style></defs><title>drums-core</title><path class="cls-1" d="M205,141.48H164.94a35.53,35.53,0,0,0-11.35,1.85,35.66,35.66,0,0,0,2.25-12.49V90.76A35.73,35.73,0,0,0,120.11,55H80A35.73,35.73,0,0,0,44.29,90.76v40.08A35.73,35.73,0,0,0,80,166.57h40.09a35.53,35.53,0,0,0,11.35-1.85,35.7,35.7,0,0,0-2.25,12.49v40.08A35.74,35.74,0,0,0,164.94,253H205a35.74,35.74,0,0,0,35.73-35.74V177.21A35.73,35.73,0,0,0,205,141.48Z"/></svg>