<svg id="Ebene_1" data-name="Ebene 1" xmlns="http://www.w3.org/2000/svg" viewBox="0 0 300 300"><defs><style>.cls-1{fill:#24242f;}</style></defs><title>harm-soft</title><path class="cls-1" d="M210.93,214c-.15,0-.8-.1-2.24-.24l.29,0Z"/><path class="cls-1" d="M126.19,119.44c0-.2-.08-.39-.11-.59-.36.63.29,2.57.3,1.88,0-.29-.11-.73-.16-1.13A.9.9,0,0,0,126.19,119.44Z"/><path class="cls-1" d="M165.36,184.92l0,0a2.8,2.8,0,0,0-.89-2.14A11.34,11.34,0,0,1,165.36,184.92Z"/><path class="cls-1" d="M215.13,214.25c-1.41,0-2.81-.11-4.2-.24a19,19,0,0,1-2-.2l-1.69-.17,1.4.13c-.37-.05-.75-.1-1.1-.17-1.49-.26-3-.56-4.46-.9a89,89,0,0,1-10.36-3c-.66-.23-1.31-.49-2-.74-1.79-.86-3.59-1.7-5.33-2.66s-3.44-2-5.09-3.11c-.55-.37-1.09-.76-1.62-1.15-.34-.27-.68-.53-1-.81a61.62,61.62,0,0,1-4.94-4.76c-.75-.81-1.45-1.65-2.17-2.48l-.13-.2c-1.41-2.11-2.78-4.21-4-6.44-.41-.78-.8-1.58-1.18-2.37l0,.13a.81.81,0,0,0,0-.17l-.45-.93c-.4-.81-.49-1.14-.42-1.17v0a72.76,72.76,0,0,1-2.33-7.93c-.38-1.6-.71-3.22-1-4.84,0-.07,0-.17,0-.29a9.19,9.19,0,0,1-.18-1.38,1.34,1.34,0,0,1,0-.2.94.94,0,0,0-.13-.38.58.58,0,0,1,.11.15,131.73,131.73,0,0,1,.27-22.73c1.42-14.88.95-30.48-3.62-44.83-7.37-23.17-23.89-39.83-46.26-48.7-10.85-4.3-23.65-6.76-35.37-6.06-9.12.54-17.94,7.66-17.5,17.5.4,9,7.71,18.08,17.5,17.5a54.75,54.75,0,0,1,7.79.19c.84.07,1.67.17,2.5.26l1.57.27A79.32,79.32,0,0,1,98,83.94c.78.26,1.55.54,2.32.82,1.56.77,3.17,1.43,4.7,2.27,1.69.93,3.34,1.94,4.93,3l.08,0c.73.65,1.59,1.23,2.29,1.86A54.36,54.36,0,0,1,117,96.76l.36.44c.55.79,1.11,1.56,1.63,2.37a72.48,72.48,0,0,1,3.63,6.65l0,0a1.31,1.31,0,0,0,0,.15c.54,1.57,1.11,3.12,1.57,4.72.75,2.55,1.3,5.13,1.82,7.73a.36.36,0,0,1,.08-.12,4.33,4.33,0,0,0,.06.87,6.8,6.8,0,0,1,.16,1.13c0,.23.05.38.05.35.19,1.83.31,3.67.4,5.51.36,8.18-.61,16.18-1.12,24.32-.88,14.19.49,29.2,5.53,42.57,8.65,22.93,25.67,39.14,48.12,48.36a96.61,96.61,0,0,0,35.77,7.41c9.15,0,17.92-8,17.5-17.5S224.94,214.24,215.13,214.25ZM85.3,80.89c-1.06-.16-1.68-.29,0,0Zm1.56.22c.23,0,.46.06.7.07C87.37,81.17,87.13,81.15,86.86,81.11Zm12.53,3.18.67.34C99.84,84.53,99.61,84.41,99.39,84.29Zm1,.5,0,0C102.85,85.65,101.87,85.44,100.41,84.79Z"/><path class="cls-1" d="M161.13,169.73c.17.64.25-1.1-.21-1.81,0,.07,0,.15,0,.23C161,168.59,161.08,169.29,161.13,169.73Z"/><circle class="cls-1" cx="204.81" cy="168.26" r="14.23"/><circle class="cls-1" cx="84.57" cy="124.82" r="14.23"/></svg>