<svg id="Ebene_8" data-name="Ebene 8" xmlns="http://www.w3.org/2000/svg" viewBox="0 0 420.62 309.04"><defs><style>.cls-1{fill:#1d1d1b;}</style></defs><title>sound_icons_8</title><path class="cls-1" d="M127.79,163.7c1.14-1.57-2,2.57-1.86,2.39.51-.55.95-1.2,1.43-1.78,1.53-1.83,3.14-3.6,4.8-5.31a109.74,109.74,0,0,1,8.06-7.49c.76-.64,1.55-1.25,2.31-1.88,1.92-1.59-2.83,2.05-.24.21,1.91-1.35,3.8-2.71,5.78-4s4-2.41,6-3.5c1.06-.57,2.14-1.11,3.23-1.63.55-.26,1.11-.5,1.66-.77,2.93-1.45-3.27,1.17-.15.06a106.64,106.64,0,0,1,15-4.24c2.6-.53-.59,0-1,.09.69-.08,1.37-.17,2.06-.23,1.39-.14,2.79-.23,4.19-.28a85.25,85.25,0,0,1,9.85.34c.84.06,2.75.57-.58-.1.76.16,1.54.25,2.3.39,1.57.3,3.13.64,4.68,1a99.33,99.33,0,0,1,9.65,3.09c2.68,1,.69.28.13,0l2.51,1.15c1.71.82,3.41,1.69,5.07,2.61a116.71,116.71,0,0,1,11.74,7.44c6.6,4.73,14.1,12.28,20.88,18.82,13.9,13.38,29.82,24.42,48,31.1,26.16,9.62,54.68,6.1,79.11-6.57,13.13-6.81,26.3-16.47,35.78-28,5.15-6.25,6.12-15.09,0-21.21-5.3-5.31-16-6.29-21.21,0a81,81,0,0,1-7.29,7.53c-1.23,1.15-2.48,2.26-3.75,3.35-.7.61-1.42,1.2-2.14,1.79l-1.13.92c-2.19,1.81.94-.47.95-.72,0,.82-4.46,3.25-5.25,3.78-2.05,1.39-4.14,2.72-6.27,4s-4.3,2.43-6.52,3.52c-1.15.57-2.31,1.1-3.47,1.64-.52.24-2.54,1-.45.21,2.26-.91-.48.17-1,.35a101.79,101.79,0,0,1-17,4.59c-.86.16-2.83.2.77-.08-.73,0-1.46.16-2.18.22-1.48.14-3,.23-4.44.28a91.12,91.12,0,0,1-9.78-.28c-.51,0-3.06-.32-1-.07s-.49-.09-1-.18c-1.63-.3-3.25-.61-4.87-1a85,85,0,0,1-10.62-3.24c-.86-.32-1.71-.65-2.56-1,2.38,1,.14,0-.28-.17-1.74-.86-3.5-1.69-5.21-2.61a113.81,113.81,0,0,1-12-7.44c-6.74-4.76-14.23-12.23-21-18.82-13.73-13.26-29.33-24.3-47.23-31.1-25-9.5-52.71-6.31-75.75,6.78a112,112,0,0,0-34.76,30.8c-4.78,6.55-1.11,16.73,5.38,20.53,7.6,4.44,15.74,1.18,20.53-5.38Z" transform="translate(-46.1 -105.48)"/><path class="cls-1" d="M127.32,371.45c1.14-1.57-2,2.57-1.86,2.39.51-.55,1-1.2,1.44-1.78,1.52-1.83,3.13-3.6,4.79-5.31a109.74,109.74,0,0,1,8.06-7.49c.76-.64,1.55-1.25,2.32-1.89,1.91-1.58-2.84,2.06-.25.22,1.91-1.35,3.81-2.71,5.78-4s4-2.41,6-3.5c1.06-.57,2.14-1.11,3.23-1.63.55-.26,1.11-.5,1.66-.77,2.93-1.45-3.27,1.17-.15.06a106.64,106.64,0,0,1,15-4.24c2.61-.53-.59,0-1,.08.69-.07,1.37-.16,2.06-.22,1.39-.14,2.79-.23,4.19-.28a85.18,85.18,0,0,1,9.85.34c.84.06,2.75.57-.58-.1.76.16,1.54.25,2.3.39,1.57.29,3.13.64,4.68,1a99.33,99.33,0,0,1,9.65,3.09c2.68,1,.69.28.13,0l2.51,1.15c1.71.82,3.41,1.69,5.08,2.61A115.45,115.45,0,0,1,224,359.11c6.6,4.73,14.1,12.28,20.89,18.82,13.89,13.38,29.81,24.42,48,31.1,26.16,9.62,54.68,6.1,79.11-6.57,13.13-6.81,26.3-16.47,35.78-28,5.15-6.25,6.12-15.09,0-21.21-5.3-5.31-16-6.29-21.21,0a79.74,79.74,0,0,1-7.29,7.53q-1.83,1.71-3.75,3.35c-.7.61-1.42,1.2-2.14,1.79l-1.13.92c-2.18,1.8.94-.47.95-.72,0,.82-4.46,3.25-5.25,3.78-2,1.39-4.14,2.72-6.27,4s-4.3,2.42-6.52,3.52c-1.14.57-2.31,1.1-3.47,1.64-.51.24-2.53,1.05-.45.21,2.27-.91-.47.17-1,.35a101.79,101.79,0,0,1-17,4.59c-.86.16-2.83.2.77-.09-.73.06-1.46.17-2.18.23-1.48.14-3,.23-4.44.28a88.67,88.67,0,0,1-9.78-.29c-.51,0-3.06-.31-1-.06s-.49-.09-1-.18c-1.63-.3-3.25-.61-4.87-1a87.83,87.83,0,0,1-10.62-3.24c-.85-.32-1.71-.65-2.55-1,2.38,1,.13,0-.28-.17-1.75-.86-3.5-1.69-5.22-2.61a114.85,114.85,0,0,1-12-7.44c-6.74-4.76-14.22-12.23-21-18.82-13.73-13.26-29.33-24.3-47.23-31.1-25-9.5-52.71-6.32-75.75,6.78a112,112,0,0,0-34.76,30.8c-4.78,6.55-1.1,16.73,5.39,20.53,7.59,4.44,15.73,1.18,20.52-5.38Z" transform="translate(-46.1 -105.48)"/><path class="cls-1" d="M73.92,290.85a100.39,100.39,0,0,1,7.56-11.39c.3-.41.61-.8.91-1.21,1.27-1.75-2.46,3.08-1.06,1.35.84-1,1.65-2.07,2.49-3.09,1.65-2,3.36-4,5.12-5.88A140.37,140.37,0,0,1,102.1,258c.74-.62,2.68-2.86,3.62-2.94-1,.09-2.7,2-.51.42.86-.63,1.73-1.27,2.61-1.89q4.25-3,8.73-5.59c3.24-1.87,6.58-3.53,10-5.11,2.69-1.26-1.22.43-.33.11s1.66-.66,2.5-1c1.84-.69,3.7-1.34,5.58-1.92a98.12,98.12,0,0,1,11.83-2.9,9.89,9.89,0,0,1,2.86-.47c.11,0-3.31.34-1.57.21.49,0,1-.13,1.47-.17,2.16-.22,4.33-.4,6.5-.49a103.84,103.84,0,0,1,13.66.37l1.84.16c-2.18-.18,1.31.21,1.89.31,2.49.41,5,.91,7.4,1.48a129.84,129.84,0,0,1,15.46,4.68c1.24.46,2.46,1,3.69,1.43,2.62,1-1.19-.59,1.41.6,2.79,1.28,5.56,2.57,8.29,4a217.31,217.31,0,0,1,33,21.31c21,16.42,44.56,30.35,70.67,36.75,36.8,9,75.11,1.41,106.14-20.16,17.25-12,34.12-27.6,45.32-45.62.19-.29.39-.57.57-.86,4.3-6.87,1.45-16.53-5.38-20.53-7.2-4.21-16.21-1.5-20.53,5.39-.68,1.08-1.41,2.13-2.15,3.18-.89,1.25-1.85,2.45-2.73,3.69-.53.74,2.75-3.47,1.29-1.67l-.86,1.09c-.68.85-1.36,1.69-2.05,2.52q-5,6-10.56,11.55c-2.23,2.22-4.53,4.39-6.88,6.48s-5.68,3.92-7.54,6.29c1-1.31,2.31-1.74.43-.35-.67.49-1.33,1-2,1.47q-2.4,1.74-4.89,3.38-4.57,3-9.4,5.68c-3.48,1.92-7.08,3.54-10.67,5.23-.82.38,2.93-1.14.12-.08l-2.66,1q-2.93,1.08-5.91,2a111.12,111.12,0,0,1-12.47,3.05c-1,.18-2,.33-3,.5-2.87.49,2.83-.27-.08,0-2.26.22-4.52.44-6.79.56a109.84,109.84,0,0,1-14.17-.18c-1.13-.09-2.26-.21-3.39-.31-.57-.06-1.14-.15-1.71-.2.1,0,2.85.47,1.11.15-2.53-.47-5.08-.84-7.6-1.38a130.79,130.79,0,0,1-15.79-4.46q-3.81-1.33-7.55-2.88c2.29.95-.81-.38-1.53-.71q-2.29-1-4.54-2.15a207.38,207.38,0,0,1-33-20.76c-21.24-16.33-44-30.78-70.15-37.73-35.13-9.32-72.33-2.68-101.57,19-16.25,12.07-31.55,27.49-41.55,45.29l-.49.86a15.31,15.31,0,0,0,5.38,20.53c6.87,4,16.61,1.74,20.52-5.39Z" transform="translate(-46.1 -105.48)"/></svg>