<svg id="Ebene_1" data-name="Ebene 1" xmlns="http://www.w3.org/2000/svg" viewBox="0 0 300 300"><defs><style>.cls-1{fill:#24242f;}</style></defs><title>harm-saw</title><path class="cls-1" d="M205.25,88.92c-2.39,1.14-2.4,1.34-1.67,1,.53-.35,1.07-.68,1.62-1Z"/><path class="cls-1" d="M57.59,110.26c9.11,4.81,18.15,1.63,23.94-6.28-4.72,6.45-.74,1,1.2-1,1.37-1.4,2.82-2.69,4.29-4,1.09-.71,2.14-1.49,3.25-2.16s2.28-1.33,3.46-1.93c.27-.14.55-.26.84-.39,1.09-.33,2.16-.76,3.26-1.07.8-.21,1.61-.36,2.4-.57l.16,0c1.31-.07,2.61-.19,3.94-.16.59,0,1.17,0,1.76.08,1.4.32,4.11.91,4.42,1,1,.29,2,.66,3,1l.27.08.51.31c1.7,1,3.46,1.84,5.12,2.88,1.12.7,2.2,1.46,3.28,2.21l.36.24.1.09c4.6,3.78,8.56,8.22,13.06,12.1,8.72,7.54,18.33,13.69,29.4,17.15,16.41,5.14,33.87,2.46,48.92-5.37,7.94-4.12,16-10,21.72-17s7.41-17.94,0-24.74c-6.44-5.92-18.53-7.54-24.75,0a47.11,47.11,0,0,1-4.18,4.3c-.61.57-1.23,1.13-1.87,1.67l-.21.17.36-.17c-.14.06-.28.14-.41.21a8.08,8.08,0,0,1-1.62,1c-1.57,1.06-3.09,2.34-4.68,3.25-1.22.69-2.47,1.3-3.71,1.94l-.21.11-.1,0c-1.62.53-3.2,1.1-4.86,1.52-.65.17-1.3.32-2,.46-1.28-.21-3.5.34-4.65.33-1,0-1.92-.09-2.88-.1a3.9,3.9,0,0,0-1,0c-1.13-.3-2.36-.73-2.77-.84-1-.28-2.09-.61-3.12-1-.37-.12-.73-.26-1.09-.4-1.91-1-3.86-2-5.72-3.09-.9-.56-1.76-1.18-2.66-1.74l-.81-.49-.38-.31c-4.66-3.72-8.59-8.2-13.07-12.1-8.73-7.6-18.39-13.9-29.53-17.35-15.74-4.87-33-2.27-47.07,6a73.45,73.45,0,0,0-22,20.09C45.88,93.73,49.82,106.16,57.59,110.26ZM181.65,97.7a2.72,2.72,0,0,1-1.52,0A5.88,5.88,0,0,0,181.65,97.7ZM107,92.84c1.15,0,.72,0,0,0Zm-1.14-.08c-.34,0-.6-.09-.61-.16S105.49,92.67,105.86,92.76Z"/><path class="cls-1" d="M211.25,198.45a44.67,44.67,0,0,1-4.18,4.3c-.61.57-1.24,1.13-1.87,1.67l-.21.17.36-.17-.41.22a9.53,9.53,0,0,1-1.62,1c-1.57,1.06-3.09,2.33-4.68,3.24-1.22.69-2.47,1.3-3.71,2l-.21.1-.1,0c-1.62.52-3.2,1.09-4.86,1.52-.65.16-1.3.32-2,.45-1.28-.2-3.5.34-4.65.34-1,0-1.92-.09-2.88-.11a3.9,3.9,0,0,0-1,0c-1.13-.29-2.36-.73-2.77-.84-1.06-.28-2.09-.6-3.12-1-.37-.12-.73-.26-1.09-.39-1.91-1-3.86-2-5.72-3.1-.9-.56-1.76-1.18-2.66-1.73l-.81-.5-.38-.31c-4.66-3.71-8.59-8.19-13.07-12.1-8.74-7.6-18.39-13.9-29.53-17.34-15.74-4.87-33-2.28-47.07,6a73.42,73.42,0,0,0-22,20.08c-5.43,7.41-1.49,19.84,6.28,23.94,9.11,4.82,18.14,1.64,23.94-6.27-4.72,6.44-.74,1,1.2-1,1.37-1.39,2.81-2.68,4.29-4,1.09-.7,2.14-1.48,3.25-2.16s2.28-1.33,3.45-1.92l.85-.4c1.09-.33,2.16-.76,3.26-1.06.8-.22,1.61-.37,2.4-.58l.16,0c1.31-.08,2.61-.19,3.94-.17.59,0,1.17,0,1.76.08,1.4.32,4.11.91,4.42,1,1,.3,2,.67,3,1l.27.08.51.31c1.69,1,3.46,1.84,5.12,2.89,1.12.7,2.2,1.45,3.28,2.2l.36.25.1.08c4.6,3.78,8.56,8.22,13,12.1,8.73,7.54,18.34,13.69,29.41,17.15,16.41,5.14,33.87,2.46,48.92-5.36,7.94-4.13,16-10,21.72-17s7.41-17.94,0-24.75C229.56,192.54,217.47,190.91,211.25,198.45ZM105,208.28a5.16,5.16,0,0,0,.61.15C105.26,208.39,105,208.34,105,208.28Zm1.75.23c1.15,0,.72,0,0,0Zm73.13,4.81a5.88,5.88,0,0,0,1.52.05A2.54,2.54,0,0,1,179.87,213.32Z"/><path class="cls-1" d="M205,204.59c-2.39,1.15-2.4,1.35-1.67,1a15.07,15.07,0,0,1,1.62-1Z"/><path class="cls-1" d="M262.83,122.9a17.87,17.87,0,0,0-23.94,6.28c-.37.59-.77,1.15-1.17,1.72-.21.31-.45.6-.67.9s-.35.44-.53.65q-2.78,3.31-5.86,6.37-1.8,1.8-3.71,3.49c-.68.6-1.36,1.19-2,1.76l0,0,.43-.26-.48.3a12.34,12.34,0,0,1-2,1.28,90.51,90.51,0,0,1-7.68,5c-.9.48-1.8.94-2.71,1.38h.23l-.27,0-.09.05c-.42.2-.85.38-1.25.59-1.07.55-1.11.15-.4-.22-1.48.53-3.08,1.39-4.31,1.75-2.17.62-4.36,1-6.56,1.5h-.15c-1.41.09-2.81.2-4.22.23-2.4.05-4.77-.13-7.16-.27h-.16l-.36-.08c-1.58-.34-3.17-.62-4.74-1a76.82,76.82,0,0,1-8.61-2.73l-.93-.37-.62-.32c-1.53-.76-3.07-1.49-4.58-2.3-3.24-1.75-6.38-3.67-9.43-5.73-5.11-3.45-4.79-3.53-10.49-7.77-11.5-8.55-24.76-15.71-38.8-19-21.51-5-44.25-.9-62,12.41-10.26,7.68-19.94,17.26-26.19,28.61-4.42,8-2.22,19.45,6.28,23.94,8.21,4.34,19.22,2.29,23.94-6.28a67,67,0,0,1,4-6l.09-.11c1-1.21,2-2.39,3.09-3.55A89.91,89.91,0,0,1,66,158.22l-.09.06.1-.07.3-.26c1.56-1.36.91-.67-.06.08.42-.32.84-.66,1.27-1q2.57-1.78,5.3-3.32c1.43-.8,3.16-1.39,4.62-2.21-1.24.62-2.19.68,0,0l.24-.08c.2-.12.42-.23.61-.36a6.1,6.1,0,0,1-.54.34c1-.36,2.1-.72,3.18-1,1.38-.4,5.1-.55,6.31-1.33,1.33-.1,2.66-.15,4-.16,1.84,0,4.82.85,6.64.47l.71.14c1.56.32,3.11.69,4.65,1.12s2.8.83,4.18,1.31c.37.12,1.87.7,2.76,1s2.75,1.27,3.06,1.42q2.32,1.15,4.57,2.43c3.25,1.83,6.4,3.84,9.45,6,.45.31,3.45,2.49,3.3,2.35,2.42,1.83,4.77,3.74,7.23,5.53,11.52,8.34,24.95,15.2,39,18.08A82,82,0,0,0,241,175.54c10.88-7.73,21-17.32,28.16-28.7C274,139.08,271,127.22,262.83,122.9ZM65.18,158.73l.54-.35C65.54,158.51,65.35,158.63,65.18,158.73ZM96,149c-.38-.07-.51-.11,0,0Zm140.47-16.39-.2.27C236.32,132.8,236.39,132.7,236.48,132.59Z"/><path class="cls-1" d="M77.39,151.54l.29-.15-.07,0Z"/><path class="cls-1" d="M224.86,144.1a12.35,12.35,0,0,0-2,1.32c.65-.44,1.31-.87,2-1.28Z"/><path class="cls-1" d="M66,158.22l.25-.19-.24.18Z"/><path class="cls-1" d="M212.44,151.75a4.09,4.09,0,0,0-1.78.43,6.85,6.85,0,0,1,1.74-.42Z"/></svg>