<svg id="Ebene_1" data-name="Ebene 1" xmlns="http://www.w3.org/2000/svg" viewBox="0 0 300 300"><defs><style>.cls-1{fill:#24242f;}</style></defs><title>lead-saw</title><path class="cls-1" d="M260.73,173.42h-19.1a88.43,88.43,0,0,0-56.33-64.48C152.73,97,113.11,107.6,91,134.32a90.27,90.27,0,0,0-19.13,39.1H52.73c-9.15,0-17.92,8.05-17.5,17.5s7.69,17.5,17.5,17.5h208c9.16,0,17.93-8,17.5-17.5S270.54,173.42,260.73,173.42Zm-152.84,0c.16-.46.35-1,.53-1.55,0,.09,1.14-2.63,1.47-3.28a81.14,81.14,0,0,1,5-8.41l.52-.8.28-.32c1.14-1.3,2.26-2.62,3.46-3.87q1.58-1.63,3.26-3.16c.48-.44,1-.87,1.46-1.3l1.5-1.2,2.22-1.54q1.92-1.25,3.91-2.37t4.06-2.12c.47-.23.94-.44,1.42-.65l.47-.16a90.88,90.88,0,0,1,9.61-2.75c1.09-.23,5.81-.78,1.37-.37,1.83-.17,3.65-.36,5.49-.43a80.37,80.37,0,0,1,9.69.28l1.43.25q3,.57,5.88,1.38c1.5.43,2.95.94,4.43,1.42l.12.05a6.41,6.41,0,0,1,1.2.42l.21.1.33.12-.23-.07a82.49,82.49,0,0,1,8.3,4.55c1.28.82,2.49,1.75,3.76,2.59-3.49-2.32.17.2,1,.93a83.37,83.37,0,0,1,7.27,7.41c.43.48.81,1,1.24,1.5l-1.14-1.35c.27.34.87,1.08,1.12,1.46.94,1.46,1.93,2.89,2.82,4.39,1,1.69,1.92,3.42,2.77,5.19.24.49.45,1,.68,1.48,0,.13.07.25.12.41.19.59.38,1.18.56,1.77H107.89Z"/><path class="cls-1" d="M197.44,158.72Z"/><path class="cls-1" d="M177,143.09l-.1-.05c-.47-.17-.94-.36-1.41-.52S175.17,142.52,177,143.09Z"/></svg>