<svg id="Ebene_12" data-name="Ebene 12" xmlns="http://www.w3.org/2000/svg" viewBox="0 0 496.82 92.1"><defs><style>.cls-1{fill:#1d1d1b;}</style></defs><title>sound_icons_12</title><path class="cls-1" d="M19.67,268.5H433.91c19.17,0,38.46.63,57.62,0h.8c16.09,0,16.12-25,0-25H78.09c-19.17,0-38.46-.63-57.62,0h-.8c-16.09,0-16.12,25,0,25Z" transform="translate(-7.59 -176.68)"/><path class="cls-1" d="M325.33,246H186.67l10,10c.24-24.19,15.13-46.89,38.07-55.45a60.15,60.15,0,0,1,67.17,17.8A59.54,59.54,0,0,1,315.33,256c.13,12.86,20.13,12.89,20,0a80.43,80.43,0,0,0-52.75-74.74c-30.31-11.14-66.44-1.41-87,23.44A81,81,0,0,0,176.67,256a10.13,10.13,0,0,0,10,10H325.33C338.2,266,338.22,246,325.33,246Z" transform="translate(-7.59 -176.68)"/></svg>