<svg id="Ebene_1" data-name="Ebene 1" xmlns="http://www.w3.org/2000/svg" viewBox="0 0 300 300"><defs><style>.cls-1{fill:#24242f;}</style></defs><title>lead-flute</title><path class="cls-1" d="M92.54,246.3l46.88-46.88,74.78-74.78,17.26-17.27c10.72-10.71,2.8-29.87-12.37-29.87H79.43c-15.16,0-23.1,19.15-12.38,29.87L114.71,155l76,76,17.49,17.48c6.48,6.49,18.36,7,24.75,0s6.92-17.83,0-24.74l-47.66-47.67-76-76L91.8,82.63,79.43,112.5H219.09L206.71,82.63,159.84,129.5,85.06,204.29,67.79,221.55c-6.48,6.48-7,18.35,0,24.75s17.84,6.91,24.75,0Z"/></svg>