<svg id="Ebene_11" data-name="Ebene 11" xmlns="http://www.w3.org/2000/svg" viewBox="0 0 363.09 363.24"><defs><style>.cls-1{fill:#1d1d1b;}</style></defs><title>sound_icons_11</title><path class="cls-1" d="M101.69,428l32.69-32.68,78.47-78.47,94.54-94.54,82-82c13.22-13.23,27-26.07,39.77-39.77.18-.2.38-.39.57-.58,9.19-9.19,2.4-25.61-10.6-25.61H89.33c-13,0-19.8,16.42-10.6,25.61L111.78,133l79.76,79.75,96.16,96.17,83.43,83.42c13.43,13.43,26.52,27.35,40.36,40.37.2.18.38.37.57.56a15,15,0,0,0,21.21-21.21l-33-33.06-79.76-79.75L224.3,203.08l-83.43-83.42L113.5,92.29c-4.3-4.31-8.44-9-13-13-.2-.17-.38-.38-.57-.56l-10.61,25.6H419.16l-10.61-25.6-32.68,32.68L297.4,189.88l-94.54,94.54-82,82c-13.24,13.24-26.92,26.16-39.77,39.77l-.58.58A15,15,0,0,0,101.69,428Z" transform="translate(-74.5 -74.33)"/></svg>