<svg id="Ebene_1" data-name="Ebene 1" xmlns="http://www.w3.org/2000/svg" viewBox="0 0 300 300"><defs><style>.cls-1{fill:#24242f;}</style></defs><title>lead-horn</title><path class="cls-1" d="M128,57V255.5c0,9.15,8.05,17.92,17.5,17.5s17.5-7.69,17.5-17.5V57c0-9.15-8.05-17.92-17.5-17.5S128,47.19,128,57Z"/><path class="cls-1" d="M185.47,99.49V213c0,9.15,8,17.92,17.5,17.5s17.5-7.69,17.5-17.5V99.49c0-9.15-8.05-17.92-17.5-17.5s-17.5,7.69-17.5,17.5Z"/><path class="cls-1" d="M70.6,111.53V201c0,9.16,8.05,17.93,17.5,17.5s17.5-7.69,17.5-17.5V111.53c0-9.16-8-17.93-17.5-17.5s-17.5,7.69-17.5,17.5Z"/></svg>