<svg id="Ebene_14" data-name="Ebene 14" xmlns="http://www.w3.org/2000/svg" viewBox="0 0 223.33 459.94"><defs><style>.cls-1{fill:#1d1d1b;}</style></defs><title>sound_icons_14</title><path class="cls-1" d="M270.76,444.05l-.77-.59c7.47,5.57,3.13,2.44,1.39,1-2.79-2.32-5.49-4.77-8.09-7.3a157.72,157.72,0,0,1-10.8-11.59c-1-1.14-1.9-2.3-2.83-3.46-2.82-3.48,3.25,4.39-.2-.28-2.12-2.88-4.15-5.84-6.06-8.86q-2.57-4.07-4.84-8.31-1.27-2.39-2.46-4.82c-.39-.83-.78-1.66-1.16-2.5-.95-2.06-.94-5.09.16.52-.7-3.59-2.76-7.26-3.82-10.8a108.53,108.53,0,0,1-3-12.56c-.14-.84-.24-1.68-.4-2.51-.49-2.64.61,5.58.25,1.74-.2-2.09-.41-4.17-.52-6.26a104.42,104.42,0,0,1,.24-14.15c.09-1.13.22-2.25.34-3.37.43-4.25-.86,5-.08.75.43-2.33.82-4.66,1.35-7a119.51,119.51,0,0,1,4.71-15.62c.35-.93.77-3,1.46-3.71-.21.22-2,4.4-.41,1,1.19-2.54,2.36-5.08,3.66-7.57A167.39,167.39,0,0,1,249.05,301c1.85-2.71,3.78-5.36,5.76-8-2.77,3.66.75-.89,1.11-1.34,1.11-1.37,2.25-2.72,3.39-4.07,5.35-6.27,11.09-12.14,16.91-18,20.71-20.72,37.92-44.51,48.52-71.91,15-38.78,10.17-81.36-8.71-117.81A191.49,191.49,0,0,0,288.17,40.4a126,126,0,0,0-13.36-13.19c-8.07-6.64-20.49-8.49-28.29,0-6.74,7.34-8.63,21.18,0,28.28a119.64,119.64,0,0,1,11.33,11c1.72,1.86,3.41,3.75,5,5.67.76.89,1.5,1.78,2.24,2.68,1.21,1.47,5.06,6.89.58.62,4.09,5.72,8.19,11.35,11.76,17.43q2.81,4.8,5.29,9.79c.85,1.73,1.65,3.48,2.46,5.22,1.09,2.37-.05,2.91-.47-1.18.12,1.14,1.06,2.61,1.47,3.69a128.21,128.21,0,0,1,6.6,23.93c.19,1.06.29,2.15.51,3.2-1.27-6.21-.34-2.54-.17-1q.34,3.3.51,6.63a115.92,115.92,0,0,1-.23,14.91c-.1,1.18-.24,2.36-.34,3.54-.4,4.37.83-4.91.08-.54-.42,2.43-.83,4.86-1.35,7.28a127.32,127.32,0,0,1-4.26,14.95q-.68,1.92-1.41,3.81c-.48,1.23-1.34,5.34-.09.36-.66,2.62-2.45,5.38-3.67,7.79a164.44,164.44,0,0,1-10.13,17.24c-1.85,2.76-3.8,5.43-5.76,8.11-3.34,4.55,2.58-3-1.11,1.4-1.14,1.37-2.24,2.76-3.39,4.12-5.33,6.31-11.07,12.2-16.91,18C224.61,264.66,207.39,288,196.6,315c-14.72,36.82-10.56,77.89,8.71,112.18a163.1,163.1,0,0,0,45.26,51.4c8.49,6.18,22.67,1.72,27.37-7.18,5.49-10.39,1.88-20.76-7.18-27.36Z" transform="translate(-144.33 -21.51)"/><rect class="cls-1" x="144.33" y="122.33" width="55.33" height="55.33" transform="translate(-122.33 300.49) rotate(-90)"/><rect class="cls-1" x="312.33" y="324.33" width="55.33" height="55.33" transform="translate(-156.33 670.49) rotate(-90)"/></svg>