<svg id="Ebene_1" data-name="Ebene 1" xmlns="http://www.w3.org/2000/svg" viewBox="0 0 300 300"><defs><style>.cls-1{fill:#24242f;}</style></defs><title>mall-bell</title><path class="cls-1" d="M157.77,241.09c-1.15-.84,4.92,4.07,1.84,1.39-1.47-1.28-2.94-2.56-4.33-3.92q-2.81-2.75-5.33-5.75a21.42,21.42,0,0,0-1.41-1.74c3.53,3.35,1.81,2.45.83,1.05-1.11-1.6-2.23-3.19-3.24-4.85s-1.79-3.05-2.59-4.63c-.42-.81-.77-1.66-1.19-2.47-1.61-3.07,1.34,4.08.31.73-1.12-3.68-1.77-7.79-3-11.37,1.46,4.11.29,2.46.15.53-.08-1.06-.13-2.12-.14-3.18s.9-5.83.32-6.63l-.32,2.38c.12-.78.26-1.55.42-2.32.23-1.18.51-2.36.82-3.53s.68-2.42,1.08-3.61c.3-.89,2.62-6.06.66-2A90,90,0,0,1,152,175.61c-2.06,2.71,1.56-1.82,1.6-1.87,1.19-1.4,2.43-2.77,3.68-4.12,3.09-3.3,6.4-6.38,9.43-9.74,9.82-10.9,17.78-23.07,22.59-37,7.2-20.86,4-43.46-6-62.78C178,49.8,170.34,39.41,161.31,32c-7.05-5.81-17.94-7.42-24.75,0-5.91,6.43-7.54,18.53,0,24.75a59.12,59.12,0,0,1,5.63,5.45c.86.92,1.7,1.86,2.52,2.81,1.17,1.37,3.54,5.57.47.42,1.87,3.13,4.27,6,6.11,9.14.94,1.61,1.81,3.26,2.63,4.94a9.69,9.69,0,0,1,1.22,2.64c-.07-3.16-1.11-2.82-.28-.51,1.53,4.25,1.9,8.92,3.4,13.1-1.46-4.08-.29-2.15-.16-.29.08,1.12.13,2.24.14,3.37,0,.73.25,6.77-.32,7l.32-2.26c-.12.81-.26,1.61-.41,2.42-.24,1.23-.52,2.46-.83,3.68s-.68,2.51-1.08,3.75c-.26.8-2.46,6.26-.66,2.19a83.86,83.86,0,0,1-9.34,15.92c2-2.69-1.57,1.89-1.6,1.93q-1.78,2.12-3.68,4.15c-3.08,3.3-6.39,6.39-9.43,9.73-9.75,10.75-17.69,22.69-22.59,36.4-7.18,20.1-4.18,42.48,6.4,60.79a91.26,91.26,0,0,0,25.08,27.87c7.42,5.42,19.84,1.5,24-6.28,4.81-9.1,1.63-18.15-6.28-23.94Z"/><rect class="cls-1" x="90.25" y="85.19" width="27.91" height="27.91" rx="8.91" ry="8.91" transform="translate(5.06 203.35) rotate(-90)"/><rect class="cls-1" x="175" y="187.09" width="27.91" height="27.91" rx="8.91" ry="8.91" transform="translate(-12.09 390.01) rotate(-90)"/></svg>