<svg id="Ebene_1" data-name="Ebene 1" xmlns="http://www.w3.org/2000/svg" xmlns:xlink="http://www.w3.org/1999/xlink" viewBox="0 0 100 100"><defs><style>.cls-1{fill:#62697f;}.cls-2{fill:url(#Unbenannter_Verlauf_20);}.cls-3{opacity:0.5;}.cls-4{fill:#a81004;}.cls-5{fill:#fff;}.cls-6{fill:#f95428;}.cls-7{fill:#efefef;}</style><radialGradient id="Unbenannter_Verlauf_20" cx="49.93" cy="54.31" r="30.5" gradientUnits="userSpaceOnUse"><stop offset="0" stop-color="#fe8965"/><stop offset="0.28" stop-color="#fe8768"/><stop offset="0.51" stop-color="#fe8173"/><stop offset="0.73" stop-color="#fe7784"/><stop offset="0.94" stop-color="#ff6a9d"/><stop offset="1" stop-color="#ff65a5"/></radialGradient></defs><title>0</title><g id="Sleep"><ellipse class="cls-1" cx="50.66" cy="22.68" rx="17.67" ry="5.83"/><circle class="cls-2" cx="49.93" cy="54.31" r="30.5"/><path class="cls-3" d="M33.9,70.34a30.5,30.5,0,0,1-2.59-40.19,30,30,0,0,0-2.95,2.6A30.5,30.5,0,0,0,71.49,75.88a30,30,0,0,0,2.6-2.95A30.5,30.5,0,0,1,33.9,70.34Z"/><path d="M62.79,59.31h0A7.8,7.8,0,0,1,56,55.48,1.13,1.13,0,0,1,58,54.32a5.6,5.6,0,0,0,9.62,0,1.13,1.13,0,0,1,1.94,1.16A7.78,7.78,0,0,1,62.79,59.31Z"/><path d="M37.06,59.31a7.78,7.78,0,0,1-6.75-3.83,1.13,1.13,0,1,1,1.94-1.16,5.6,5.6,0,0,0,9.62,0,1.13,1.13,0,0,1,1.94,1.16A7.8,7.8,0,0,1,37.06,59.31Z"/><path class="cls-4" d="M64.55,69.46c0,.05,0,.1,0,.14l0,.1a5.19,5.19,0,0,1-2.78,3v0c0-.09-.1-.18-.16-.27a7.93,7.93,0,0,0-11.59-2.33,7.95,7.95,0,0,0-11.6,2.33c-.06.09-.11.18-.16.27v0a5.19,5.19,0,0,1-2.78-3l0-.1s0-.09,0-.14A5.15,5.15,0,0,1,39.06,66a48.6,48.6,0,0,1,21.73,0A5.15,5.15,0,0,1,64.55,69.46Z"/><path class="cls-5" d="M60.79,62.78a5.19,5.19,0,0,1,3.76,6.68A5.15,5.15,0,0,0,60.79,66a48.6,48.6,0,0,0-21.73,0,5.15,5.15,0,0,0-3.76,3.44,5.19,5.19,0,0,1,3.76-6.68A48.6,48.6,0,0,1,60.79,62.78Z"/><path class="cls-6" d="M61.52,72.4c.06.09.11.18.16.27v0h0a5.17,5.17,0,0,1-3.26.32,38.15,38.15,0,0,0-17,0,5.1,5.1,0,0,1-3.26-.32h0v0c0-.09.1-.18.16-.27a7.95,7.95,0,0,1,11.6-2.33A7.93,7.93,0,0,1,61.52,72.4Z"/><path d="M65.13,64.73A6.34,6.34,0,0,0,61,61.68a49.94,49.94,0,0,0-22.23,0,6.33,6.33,0,0,0-4.59,8.13.88.88,0,0,1,.05.15v0l0,.11a6.32,6.32,0,0,0,3.33,3.61l.05,0a6.23,6.23,0,0,0,4,.38,37.1,37.1,0,0,1,16.51,0,6.18,6.18,0,0,0,1.42.16,6.31,6.31,0,0,0,2.55-.54l.05,0a6.31,6.31,0,0,0,3.33-3.62l0-.1.06-.17A6.35,6.35,0,0,0,65.13,64.73Zm-3.07,6.43a9.12,9.12,0,0,0-7.39-3.8,9,9,0,0,0-4.74,1.34,9.09,9.09,0,0,0-12.14,2.46,4.06,4.06,0,0,1-1.29-1.69,4,4,0,0,1,2.81-2.35,47.84,47.84,0,0,1,21.23,0,4,4,0,0,1,2.81,2.35A4.06,4.06,0,0,1,62.06,71.16ZM39.31,63.88a47.84,47.84,0,0,1,21.23,0,4,4,0,0,1,2.61,1.95A6.23,6.23,0,0,0,61,64.92a49.94,49.94,0,0,0-22.23,0,6.21,6.21,0,0,0-2.11.9A4.05,4.05,0,0,1,39.31,63.88Zm1.85,8A4.11,4.11,0,0,1,40,72a6.81,6.81,0,0,1,9.19-1.07A39.45,39.45,0,0,0,41.16,71.91Zm17.53,0a39.45,39.45,0,0,0-8-1,6.8,6.8,0,0,1,4-1.31A6.87,6.87,0,0,1,59.85,72,4.11,4.11,0,0,1,58.69,71.91Z"/><path class="cls-1" d="M75.17,41.66a3.25,3.25,0,0,1,2.44-1.43,3.17,3.17,0,0,1,2.33,1.31.23.23,0,0,1-.07.07c-1.8,1.83-3.14,5.93-3.44,10.88-.05.71-.08,1.43-.08,2.16s0,1.61.09,2.39c.34,4.92,1.69,9,3.5,10.72,0,.06-.09.13-.14.18a2.68,2.68,0,0,1-4.39,0c-2-2.17-3.41-7.23-3.43-13.15v-.14C72,48.92,73.28,44,75.17,41.66Z"/><path class="cls-1" d="M24.73,40.93A3.25,3.25,0,0,0,22.3,39.5,3.17,3.17,0,0,0,20,40.81a.46.46,0,0,0,.07.07c1.81,1.83,3.14,5.93,3.45,10.89,0,.7.07,1.42.07,2.15s0,1.62-.09,2.39c-.33,4.92-1.69,9-3.5,10.72l.15.19a3,3,0,0,0,2.19,1.13,3,3,0,0,0,2.19-1.13c2-2.18,3.41-7.24,3.43-13.15V54s0-.06,0-.09C27.93,48.19,26.62,43.26,24.73,40.93Z"/><path class="cls-7" d="M84.75,45.79a.54.54,0,0,0-.07-.13,35.36,35.36,0,0,0-70.19,1.5,8.2,8.2,0,0,0-.12,1.32v.31c0,.63-.06,1.27-.06,1.91h.06v8.9a7.92,7.92,0,0,0,5.48,7.54A1.14,1.14,0,0,1,20,67c1.81-1.76,3.17-5.8,3.5-10.72.06-.77.09-1.57.09-2.39s0-1.45-.07-2.15c-.31-5-1.64-9.06-3.45-10.89l-.17,0a8.1,8.1,0,0,0-2.21,1.13,33.18,33.18,0,0,1,64.19.46,7.84,7.84,0,0,0-1.8-.86l-.17,0c-1.8,1.83-3.14,5.93-3.44,10.88-.05.71-.08,1.43-.08,2.16s0,1.61.09,2.39c.34,4.92,1.69,9,3.5,10.72l.12.11a7.94,7.94,0,0,0,5.08-5.08,8,8,0,0,0,.4-2.46V49.21A7.85,7.85,0,0,0,84.75,45.79Z"/><path class="cls-7" d="M62.52,46.86H56.2a1.14,1.14,0,0,1-1-.65A1.12,1.12,0,0,1,55.34,45l4.76-5.71H56.2a1.13,1.13,0,1,1,0-2.26h6.32a1.13,1.13,0,0,1,.87,1.85L58.62,44.6h3.9a1.13,1.13,0,1,1,0,2.26Z"/><path class="cls-7" d="M79.85,42.32H66.21a1.15,1.15,0,0,1-1-.65,1.14,1.14,0,0,1,.16-1.21L77.43,26H66.21a1.13,1.13,0,1,1,0-2.26H79.85a1.14,1.14,0,0,1,.87,1.86L68.63,40.06H79.85a1.13,1.13,0,0,1,0,2.26Z"/></g></svg>