<svg id="Ebene_1" data-name="Ebene 1" xmlns="http://www.w3.org/2000/svg" xmlns:xlink="http://www.w3.org/1999/xlink" viewBox="0 0 100 100"><defs><style>.cls-1{fill:#62697f;}.cls-2{fill:url(#Unbenannter_Verlauf_20);}.cls-3{opacity:0.5;}.cls-4{fill:#a81004;}.cls-5{fill:#fff;}.cls-6{fill:#f95428;}.cls-7{fill:#efefef;}</style><radialGradient id="Unbenannter_Verlauf_20" cx="51" cy="55" r="41.83" gradientUnits="userSpaceOnUse"><stop offset="0" stop-color="#fe8965"/><stop offset="0.28" stop-color="#fe8768"/><stop offset="0.51" stop-color="#fe8173"/><stop offset="0.73" stop-color="#fe7784"/><stop offset="0.94" stop-color="#ff6a9d"/><stop offset="1" stop-color="#ff65a5"/></radialGradient></defs><title>0</title><g id="Sleep"><ellipse class="cls-1" cx="52.01" cy="11.63" rx="24.23" ry="8"/><circle class="cls-2" cx="51" cy="55" r="41.83"/><path class="cls-3" d="M29,77a41.83,41.83,0,0,1-3.56-55.11,39.74,39.74,0,0,0-4,3.56,41.83,41.83,0,1,0,62.7,55.1A41.82,41.82,0,0,1,29,77Z"/><path d="M68.65,61.85h0a10.68,10.68,0,0,1-9.26-5.25A1.55,1.55,0,1,1,62.05,55a7.68,7.68,0,0,0,13.19,0,1.55,1.55,0,1,1,2.67,1.59A10.7,10.7,0,0,1,68.65,61.85Z"/><path d="M33.36,61.85A10.68,10.68,0,0,1,24.1,56.6,1.55,1.55,0,1,1,26.76,55,7.68,7.68,0,0,0,40,55a1.55,1.55,0,1,1,2.66,1.59A10.67,10.67,0,0,1,33.36,61.85Z"/><path class="cls-4" d="M71.06,75.77A1.59,1.59,0,0,1,71,76l0,.13a7.11,7.11,0,0,1-3.81,4.1l0,0-.21-.38A10.93,10.93,0,0,0,51,76.6a10.92,10.92,0,0,0-15.9,3.2c-.08.12-.15.25-.22.38v0a7,7,0,0,1-3.81-4.1A.69.69,0,0,1,31,76a1.59,1.59,0,0,1-.07-.2,7.1,7.1,0,0,1,5.16-4.72,66.62,66.62,0,0,1,29.8,0A7.12,7.12,0,0,1,71.06,75.77Z"/><path class="cls-5" d="M65.9,66.61a7.12,7.12,0,0,1,5.16,9.16,7.12,7.12,0,0,0-5.16-4.72,66.62,66.62,0,0,0-29.8,0,7.12,7.12,0,0,0-5.16,4.72,7.12,7.12,0,0,1,5.16-9.16A66.62,66.62,0,0,1,65.9,66.61Z"/><path class="cls-6" d="M66.91,79.8l.21.38,0,0h0a7.16,7.16,0,0,1-4.47.43,52.25,52.25,0,0,0-23.34,0,7.12,7.12,0,0,1-4.46-.43h0v0c.07-.13.14-.26.22-.38A10.92,10.92,0,0,1,51,76.6a10.93,10.93,0,0,1,15.91,3.2Z"/><path d="M71.84,69.28a8.66,8.66,0,0,0-5.6-4.18,68.47,68.47,0,0,0-30.48,0,8.67,8.67,0,0,0-6.29,11.15,1.72,1.72,0,0,0,.07.21v0l.05.14a8.68,8.68,0,0,0,4.57,5l.07,0a8.55,8.55,0,0,0,5.44.53,50.89,50.89,0,0,1,22.64,0,8.61,8.61,0,0,0,5.45-.53l.06,0a8.71,8.71,0,0,0,4.58-5l0-.14c0-.08.05-.15.07-.23A8.67,8.67,0,0,0,71.84,69.28ZM67.65,78.1a12.56,12.56,0,0,0-10.14-5.2A12.4,12.4,0,0,0,51,74.73a12.39,12.39,0,0,0-6.52-1.83,12.55,12.55,0,0,0-10.13,5.2,5.74,5.74,0,0,1-1.76-2.31,5.5,5.5,0,0,1,3.86-3.23,65.56,65.56,0,0,1,29.1,0,5.51,5.51,0,0,1,3.86,3.22A5.62,5.62,0,0,1,67.65,78.1Zm-31.2-10a65.56,65.56,0,0,1,29.1,0,5.49,5.49,0,0,1,3.58,2.67,8.51,8.51,0,0,0-2.89-1.25,68.47,68.47,0,0,0-30.48,0,8.51,8.51,0,0,0-2.89,1.25A5.49,5.49,0,0,1,36.45,68.12Zm2.54,11a5.41,5.41,0,0,1-1.6.12A9.45,9.45,0,0,1,44.48,76,9.31,9.31,0,0,1,50,77.79,53.56,53.56,0,0,0,39,79.13Zm24,0a53.54,53.54,0,0,0-11-1.34A9.25,9.25,0,0,1,57.51,76a9.44,9.44,0,0,1,7.1,3.25A5.41,5.41,0,0,1,63,79.13Z"/><path class="cls-1" d="M85.62,37.65a4.45,4.45,0,0,1,3.34-2,4.32,4.32,0,0,1,3.2,1.8l-.09.09c-2.48,2.51-4.31,8.13-4.73,14.93-.06,1-.1,2-.1,3s.05,2.21.12,3.27c.46,6.75,2.32,12.29,4.8,14.71-.06.07-.13.17-.2.24a3.67,3.67,0,0,1-6,0c-2.74-3-4.68-9.92-4.71-18v-.19C81.24,47.61,83,40.84,85.62,37.65Z"/><path class="cls-1" d="M16.45,36.65a4.44,4.44,0,0,0-3.33-2,4.33,4.33,0,0,0-3.21,1.8l.1.09c2.47,2.51,4.3,8.13,4.72,14.93.06,1,.1,2,.1,3s0,2.21-.12,3.27C14.25,64.49,12.4,70,9.91,72.45c.07.07.13.17.2.24a4.16,4.16,0,0,0,3,1.56,4.16,4.16,0,0,0,3-1.56c2.75-3,4.68-9.92,4.71-18v-.19C20.83,46.61,19,39.84,16.45,36.65Z"/><path class="cls-7" d="M98.76,43.31l-.1-.18A48.49,48.49,0,0,0,2.41,45.19,10.78,10.78,0,0,0,2.24,47v.43c-.05.87-.07,1.74-.07,2.62h.07v12.2a10.72,10.72,0,0,0,.54,3.37,10.9,10.9,0,0,0,7,7l.16-.14c2.49-2.42,4.34-8,4.8-14.71q.12-1.59.12-3.27c0-1,0-2-.1-3-.42-6.8-2.25-12.42-4.72-14.93l-.23.07a10.65,10.65,0,0,0-3,1.55,45.5,45.5,0,0,1,88,.62,10.77,10.77,0,0,0-2.47-1.17l-.22-.07c-2.48,2.51-4.31,8.13-4.73,14.93-.06,1-.1,2-.1,3s.05,2.21.12,3.27c.46,6.75,2.32,12.29,4.81,14.71l.15.14a10.86,10.86,0,0,0,7-7,10.72,10.72,0,0,0,.54-3.37V48A10.83,10.83,0,0,0,98.76,43.31Z"/><path class="cls-7" d="M68.27,44.78H59.61a1.56,1.56,0,0,1-1.19-2.55L65,34.4H59.61a1.55,1.55,0,0,1,0-3.1h8.66a1.54,1.54,0,0,1,1.19,2.54l-6.54,7.83h5.35a1.56,1.56,0,0,1,0,3.11Z"/><path class="cls-7" d="M92,38.55H73.34a1.57,1.57,0,0,1-1.41-.89A1.55,1.55,0,0,1,72.15,36L88.72,16.15H73.34a1.55,1.55,0,1,1,0-3.1H92a1.55,1.55,0,0,1,1.19,2.55L76.65,35.45H92a1.55,1.55,0,0,1,0,3.1Z"/></g></svg>