<svg id="Ebene_1" data-name="Ebene 1" xmlns="http://www.w3.org/2000/svg" xmlns:xlink="http://www.w3.org/1999/xlink" viewBox="0 0 100 100"><defs><style>.cls-1{fill:#62697f;}.cls-2{fill:url(#Unbenannter_Verlauf_20);}.cls-3{opacity:0.5;}.cls-4{fill:#4d4d4d;}.cls-5{fill:#efefef;}</style><radialGradient id="Unbenannter_Verlauf_20" cx="49.68" cy="54.6" r="29.55" gradientUnits="userSpaceOnUse"><stop offset="0" stop-color="#fe8965"/><stop offset="0.28" stop-color="#fe8768"/><stop offset="0.51" stop-color="#fe8173"/><stop offset="0.73" stop-color="#fe7784"/><stop offset="0.94" stop-color="#ff6a9d"/><stop offset="1" stop-color="#ff65a5"/></radialGradient></defs><title>1</title><g id="Cool"><ellipse class="cls-1" cx="49.68" cy="22.81" rx="17.67" ry="5.83"/><circle class="cls-2" cx="49.68" cy="54.6" r="29.55"/><path class="cls-3" d="M34.16,70.12a29.56,29.56,0,0,1-2.52-38.93,29.09,29.09,0,0,0-2.85,2.51A29.55,29.55,0,1,0,70.57,75.49a30.7,30.7,0,0,0,2.52-2.86A29.54,29.54,0,0,1,34.16,70.12Z"/><path class="cls-4" d="M49.68,46.08h0a20.48,20.48,0,0,0,5.16-.68c6.4-1.67,13.45-.63,17.85.39a4,4,0,0,1,2.89,5.26L73.1,58a3.9,3.9,0,0,1-3.81,2.59L58,60.24a4.12,4.12,0,0,1-3.89-3.3l-.56-2.82A4,4,0,0,0,49.68,51h0a4,4,0,0,0-3.88,3.18l-.57,2.81a4.12,4.12,0,0,1-3.88,3.3l-11.28.39A3.9,3.9,0,0,1,26.26,58l-2.48-7a4,4,0,0,1,2.9-5.26c4.39-1,11.44-2.06,17.84-.39a20.48,20.48,0,0,0,5.16.68Z"/><path d="M49.71,70.83l-1,0c-5.14-.2-9.63-1.91-12.33-4.7A1.09,1.09,0,1,1,38,64.59c4.82,5,16.53,5.46,22.39.92.3-.23.87-.76,1.06-1a1.1,1.1,0,1,1,1.52,1.58c-.08.08-.8.76-1.24,1.1A19.78,19.78,0,0,1,49.71,70.83Z"/><path class="cls-5" d="M69.43,61.73h-.18L58,61.33a5.18,5.18,0,0,1-4.92-4.17l-.57-2.82A2.88,2.88,0,0,0,49.68,52h0a2.88,2.88,0,0,0-2.81,2.3l-.57,2.82a5.18,5.18,0,0,1-4.92,4.17l-11.27.4a5,5,0,0,1-4.88-3.33l-2.48-7a5.12,5.12,0,0,1,3.68-6.69c4.79-1.11,11.87-2.07,18.37-.38a19.13,19.13,0,0,0,4.88.64h0a19.13,19.13,0,0,0,4.88-.64c6.5-1.69,13.58-.73,18.37.38a5.12,5.12,0,0,1,3.68,6.69l-2.47,7A5,5,0,0,1,69.43,61.73ZM37,45.61a45,45,0,0,0-10.11,1.24A3,3,0,0,0,25,48.3a2.84,2.84,0,0,0-.19,2.38l2.47,7A2.8,2.8,0,0,0,30,59.54l11.28-.4a3,3,0,0,0,2.84-2.41l.57-2.82a5.08,5.08,0,0,1,5-4.06h0a5.08,5.08,0,0,1,5,4.06l.57,2.82a3,3,0,0,0,2.84,2.41l11.28.4a2.8,2.8,0,0,0,2.74-1.87l2.48-7a2.88,2.88,0,0,0-.2-2.38,3,3,0,0,0-1.91-1.45c-4.55-1.05-11.25-2-17.32-.39a20.87,20.87,0,0,1-10.87,0A28.92,28.92,0,0,0,37,45.61Z"/><path d="M21.15,67.81l.26.08-.15-.18Z"/><path d="M29.22,54.74l0,0,0,0Z"/><path d="M21.33,41.55l-.07-.06-.09.11Z"/><path class="cls-1" d="M75.17,42.33a3.25,3.25,0,0,1,2.44-1.43,3.17,3.17,0,0,1,2.33,1.31.23.23,0,0,1-.07.07c-1.8,1.83-3.14,5.93-3.44,10.89-.05.7-.08,1.42-.08,2.16s0,1.61.09,2.38c.34,4.92,1.69,9,3.5,10.73,0,0-.09.12-.14.18a2.7,2.7,0,0,1-4.39,0c-2-2.18-3.41-7.24-3.43-13.15v-.14C72,49.59,73.28,44.66,75.17,42.33Z"/><path class="cls-1" d="M24.73,41.6a3.25,3.25,0,0,0-2.43-1.43A3.15,3.15,0,0,0,20,41.49l.07.06c1.81,1.83,3.14,5.93,3.45,10.89,0,.7.07,1.42.07,2.16s0,1.61-.09,2.38c-.33,4.92-1.69,9-3.5,10.73l.15.18A3,3,0,0,0,22.3,69a3,3,0,0,0,2.19-1.13c2-2.18,3.41-7.24,3.43-13.15v-.06s0,0,0-.08C27.93,48.87,26.62,43.93,24.73,41.6Z"/><path class="cls-5" d="M84.75,46.46l-.07-.13a35.36,35.36,0,0,0-70.19,1.5,8.2,8.2,0,0,0-.12,1.32v.31c0,.63-.06,1.27-.06,1.91h.06v8.9a7.92,7.92,0,0,0,5.48,7.54l.11-.1c1.81-1.77,3.17-5.81,3.5-10.73.06-.77.09-1.57.09-2.38s0-1.46-.07-2.16c-.31-5-1.64-9.06-3.45-10.89l-.17.05a8.1,8.1,0,0,0-2.21,1.13,33.18,33.18,0,0,1,64.19.46,7.84,7.84,0,0,0-1.8-.86l-.17,0c-1.8,1.83-3.14,5.93-3.44,10.89-.05.7-.08,1.42-.08,2.15s0,1.62.09,2.39c.34,4.92,1.69,9,3.5,10.73l.12.1A8,8,0,0,0,85.54,61V49.88A7.85,7.85,0,0,0,84.75,46.46Z"/></g></svg>