<svg id="Ebene_1" data-name="Ebene 1" xmlns="http://www.w3.org/2000/svg" xmlns:xlink="http://www.w3.org/1999/xlink" viewBox="0 0 100 100"><defs><style>.cls-1{fill:#62697f;}.cls-2{fill:url(#Unbenannter_Verlauf_20);}.cls-3{opacity:0.5;}.cls-4{fill:#4d4d4d;}.cls-5{fill:#efefef;}</style><radialGradient id="Unbenannter_Verlauf_20" cx="50" cy="55.21" r="40.52" gradientUnits="userSpaceOnUse"><stop offset="0" stop-color="#fe8965"/><stop offset="0.28" stop-color="#fe8768"/><stop offset="0.51" stop-color="#fe8173"/><stop offset="0.73" stop-color="#fe7784"/><stop offset="0.94" stop-color="#ff6a9d"/><stop offset="1" stop-color="#ff65a5"/></radialGradient></defs><title>1</title><g id="Cool"><ellipse class="cls-1" cx="50" cy="11.63" rx="24.23" ry="8"/><circle class="cls-2" cx="50" cy="55.21" r="40.52"/><path class="cls-3" d="M28.71,76.5a40.55,40.55,0,0,1-3.45-53.39A40.52,40.52,0,1,0,82.1,80,40.54,40.54,0,0,1,28.71,76.5Z"/><path class="cls-4" d="M50,43.53h0a28.11,28.11,0,0,0,7.07-.92c8.78-2.29,18.45-.87,24.48.52a5.52,5.52,0,0,1,4,7.22l-3.39,9.58a5.36,5.36,0,0,1-5.23,3.56L61.43,63a5.64,5.64,0,0,1-5.32-4.52l-.78-3.86A5.44,5.44,0,0,0,50,50.21h0a5.44,5.44,0,0,0-5.33,4.36l-.78,3.86A5.64,5.64,0,0,1,38.57,63l-15.46.54a5.36,5.36,0,0,1-5.23-3.56l-3.39-9.58a5.52,5.52,0,0,1,4-7.22c6-1.39,15.7-2.81,24.48-.52a28.11,28.11,0,0,0,7.07.92Z"/><path d="M50,77.47l-1.34,0c-7.05-.26-13.22-2.61-16.92-6.44a1.5,1.5,0,0,1,2.16-2.08c6.61,6.82,22.67,7.49,30.7,1.26.41-.32,1.19-1.05,1.46-1.3A1.5,1.5,0,1,1,68.18,71c-.11.11-1.09,1-1.7,1.51C62.42,75.71,56.48,77.47,50,77.47Z"/><path class="cls-5" d="M77.08,65h-.25l-15.45-.54a7.1,7.1,0,0,1-6.74-5.72l-.79-3.87A3.94,3.94,0,0,0,50,51.71h0a3.94,3.94,0,0,0-3.85,3.15l-.79,3.87a7.1,7.1,0,0,1-6.74,5.72L23.17,65a6.86,6.86,0,0,1-6.71-4.56l-3.39-9.58a7,7,0,0,1,5.05-9.18c6.57-1.52,16.27-2.84,25.18-.52A26.3,26.3,0,0,0,50,42h0a26.3,26.3,0,0,0,6.7-.88c8.91-2.32,18.61-1,25.18.52a7,7,0,0,1,5.05,9.18l-3.39,9.58A6.83,6.83,0,0,1,77.08,65ZM32.65,42.89a62.12,62.12,0,0,0-13.86,1.7,4,4,0,0,0-2.89,5.26l3.4,9.58A3.82,3.82,0,0,0,23.06,62l15.46-.54a4.11,4.11,0,0,0,3.9-3.32l.78-3.86A7,7,0,0,1,50,48.71h0a7,7,0,0,1,6.8,5.56l.78,3.86a4.11,4.11,0,0,0,3.9,3.32L76.94,62a3.82,3.82,0,0,0,3.76-2.56l3.4-9.58a4,4,0,0,0-2.89-5.26c-6.24-1.44-15.43-2.7-23.76-.53a28.81,28.81,0,0,1-14.9,0A39,39,0,0,0,32.65,42.89Z"/><path d="M10.87,73.33l.36.11-.2-.25Z"/><path d="M22,55.4l0,0,0,0Z"/><path d="M11.13,37.32a.43.43,0,0,1-.1-.09,1.83,1.83,0,0,0-.13.16Z"/><path class="cls-1" d="M85,38.39a4.48,4.48,0,0,1,3.33-2,4.37,4.37,0,0,1,3.21,1.8.81.81,0,0,1-.1.09c-2.48,2.51-4.31,8.13-4.73,14.93-.06,1-.1,2-.1,3s.05,2.21.12,3.28c.47,6.74,2.32,12.28,4.81,14.7l-.2.25a3.69,3.69,0,0,1-6,0c-2.75-3-4.68-9.93-4.71-18v-.07s0-.08,0-.12C80.57,48.35,82.37,41.59,85,38.39Z"/><path class="cls-1" d="M15.79,37.39a4.49,4.49,0,0,0-3.34-2,4.37,4.37,0,0,0-3.21,1.8l.1.09c2.48,2.51,4.31,8.13,4.73,14.93.06,1,.1,2,.1,3s-.05,2.21-.12,3.28c-.46,6.74-2.32,12.28-4.81,14.7l.2.25a4.17,4.17,0,0,0,3,1.55,4.13,4.13,0,0,0,3-1.55c2.75-3,4.68-9.93,4.71-18,0,0,0,0,0-.07v-.12C20.17,47.35,18.38,40.59,15.79,37.39Z"/><path class="cls-5" d="M98.09,44.06a1,1,0,0,0-.09-.18A48.5,48.5,0,0,0,1.74,45.94a10.66,10.66,0,0,0-.17,1.8v.43c0,.87-.07,1.74-.07,2.62h.07V63A10.93,10.93,0,0,0,9.09,73.33l.15-.14c2.49-2.42,4.35-8,4.81-14.7.07-1.07.12-2.16.12-3.28s0-2-.1-3c-.42-6.8-2.25-12.42-4.73-14.93l-.23.07a11,11,0,0,0-3,1.55,45.5,45.5,0,0,1,88,.63,11,11,0,0,0-2.47-1.18l-.23-.07c-2.48,2.51-4.31,8.13-4.73,14.93-.06,1-.1,2-.1,3s.05,2.21.12,3.28c.47,6.74,2.32,12.28,4.81,14.7l.16.14a10.91,10.91,0,0,0,7-7A11.12,11.12,0,0,0,99.17,64V48.74A10.66,10.66,0,0,0,98.09,44.06Z"/></g></svg>