<svg id="Ebene_1" data-name="Ebene 1" xmlns="http://www.w3.org/2000/svg" xmlns:xlink="http://www.w3.org/1999/xlink" viewBox="0 0 100 100"><defs><style>.cls-1{fill:#62697f;}.cls-2{fill:url(#Unbenannter_Verlauf_20);}.cls-3{opacity:0.5;}.cls-4{fill:#fff;}.cls-5{fill:#efefef;}</style><radialGradient id="Unbenannter_Verlauf_20" cx="49.87" cy="53.78" r="30.71" gradientUnits="userSpaceOnUse"><stop offset="0" stop-color="#fe8965"/><stop offset="0.28" stop-color="#fe8768"/><stop offset="0.51" stop-color="#fe8173"/><stop offset="0.73" stop-color="#fe7784"/><stop offset="0.94" stop-color="#ff6a9d"/><stop offset="1" stop-color="#ff65a5"/></radialGradient></defs><title>10</title><g id="Happy_3" data-name="Happy 3"><ellipse class="cls-1" cx="49.84" cy="23.2" rx="17.67" ry="5.83"/><circle class="cls-2" cx="49.87" cy="53.78" r="30.71"/><path class="cls-3" d="M33.74,69.92a30.71,30.71,0,0,1-2.61-40.46,29,29,0,0,0-3,2.61A30.71,30.71,0,0,0,71.59,75.5a33,33,0,0,0,2.61-3A30.73,30.73,0,0,1,33.74,69.92Z"/><path d="M49.87,61.05a20.12,20.12,0,0,1-14.26-5.89,1.15,1.15,0,0,1,0-1.61,1.13,1.13,0,0,1,1.61,0,17.92,17.92,0,0,0,25.3,0,1.13,1.13,0,0,1,1.61,0,1.15,1.15,0,0,1,0,1.61A20.09,20.09,0,0,1,49.87,61.05Z"/><path class="cls-3" d="M49.87,66a20.18,20.18,0,0,1-5.45-.75A1.14,1.14,0,0,1,45,63.05a18.08,18.08,0,0,0,9.68,0,1.14,1.14,0,1,1,.62,2.19A20.26,20.26,0,0,1,49.87,66Z"/><path d="M42.05,47.15A1.14,1.14,0,0,1,40.91,46a5.54,5.54,0,0,0-11.08,0,1.14,1.14,0,1,1-2.27,0,7.82,7.82,0,1,1,15.63,0A1.14,1.14,0,0,1,42.05,47.15Z"/><path d="M71.05,47.15A1.14,1.14,0,0,1,69.91,46a5.54,5.54,0,1,0-11.08,0,1.14,1.14,0,0,1-2.28,0,7.82,7.82,0,1,1,15.64,0A1.14,1.14,0,0,1,71.05,47.15Z"/><circle class="cls-4" cx="30.54" cy="52.26" r="3"/><circle class="cls-4" cx="69.21" cy="52.26" r="3"/><path class="cls-1" d="M75.32,42a3.27,3.27,0,0,1,2.44-1.44,3.15,3.15,0,0,1,2.33,1.32l-.07.06c-1.8,1.83-3.14,5.93-3.44,10.89,0,.71-.08,1.42-.08,2.16s0,1.61.09,2.39c.34,4.92,1.69,8.95,3.5,10.72,0,.06-.09.13-.14.18a2.7,2.7,0,0,1-4.39,0c-2-2.17-3.41-7.24-3.43-13.15V55C72.13,49.25,73.43,44.31,75.32,42Z"/><path class="cls-1" d="M24.88,41.26a3.27,3.27,0,0,0-2.43-1.44,3.15,3.15,0,0,0-2.34,1.32l.07.07C22,43,23.32,47.13,23.63,52.09c0,.71.07,1.42.07,2.16s0,1.61-.09,2.39c-.33,4.92-1.69,9-3.5,10.72l.15.18a3,3,0,0,0,2.19,1.13,3,3,0,0,0,2.19-1.13c2-2.17,3.41-7.24,3.43-13.15v0s0-.06,0-.09C28.08,48.52,26.77,43.58,24.88,41.26Z"/><path class="cls-5" d="M84.9,46.11a.75.75,0,0,0-.07-.12,35.36,35.36,0,0,0-70.19,1.5,8.08,8.08,0,0,0-.12,1.31v.32c0,.63-.06,1.27-.06,1.91h.06v8.89a8.08,8.08,0,0,0,.39,2.47A7.94,7.94,0,0,0,20,67.46l.11-.1c1.81-1.76,3.17-5.8,3.5-10.72.06-.78.09-1.57.09-2.39s0-1.45-.07-2.16c-.31-5-1.64-9.06-3.45-10.88l-.16,0a7.75,7.75,0,0,0-2.22,1.13A33.18,33.18,0,0,1,82,42.84a7.81,7.81,0,0,0-1.8-.85L80,41.93c-1.8,1.83-3.14,5.93-3.44,10.89,0,.71-.08,1.42-.08,2.16s0,1.61.09,2.39c.34,4.92,1.69,8.95,3.5,10.72l.12.1a7.92,7.92,0,0,0,5.08-5.08,7.69,7.69,0,0,0,.4-2.46V49.53A7.88,7.88,0,0,0,84.9,46.11Z"/></g></svg>