<svg id="Ebene_1" data-name="Ebene 1" xmlns="http://www.w3.org/2000/svg" xmlns:xlink="http://www.w3.org/1999/xlink" viewBox="0 0 100 100"><defs><style>.cls-1{fill:#62697f;}.cls-2{fill:url(#Unbenannter_Verlauf_20);}.cls-3{opacity:0.5;}.cls-4{fill:#fff;}.cls-5{fill:#efefef;}</style><radialGradient id="Unbenannter_Verlauf_20" cx="50.05" cy="54.72" r="42.11" gradientUnits="userSpaceOnUse"><stop offset="0" stop-color="#fe8965"/><stop offset="0.28" stop-color="#fe8768"/><stop offset="0.51" stop-color="#fe8173"/><stop offset="0.73" stop-color="#fe7784"/><stop offset="0.94" stop-color="#ff6a9d"/><stop offset="1" stop-color="#ff65a5"/></radialGradient></defs><title>10</title><g id="Happy_3" data-name="Happy 3"><ellipse class="cls-1" cx="50.01" cy="12.78" rx="24.23" ry="8"/><circle class="cls-2" cx="50.05" cy="54.72" r="42.11"/><path class="cls-3" d="M27.93,76.84a42.11,42.11,0,0,1-3.58-55.48,41.54,41.54,0,0,0-4.07,3.58A42.11,42.11,0,0,0,79.83,84.49a41.54,41.54,0,0,0,3.58-4.07A42.11,42.11,0,0,1,27.93,76.84Z"/><path d="M50.05,64.69A27.57,27.57,0,0,1,30.5,56.6a1.56,1.56,0,1,1,2.21-2.2,24.56,24.56,0,0,0,34.69,0,1.56,1.56,0,0,1,2.2,2.2A27.57,27.57,0,0,1,50.05,64.69Z"/><path class="cls-3" d="M50.05,71.46a28,28,0,0,1-7.48-1,1.56,1.56,0,1,1,.85-3,24.51,24.51,0,0,0,13.27,0,1.56,1.56,0,0,1,.84,3A27.89,27.89,0,0,1,50.05,71.46Z"/><path d="M39.33,45.62a1.56,1.56,0,0,1-1.56-1.56,7.6,7.6,0,0,0-15.2,0,1.56,1.56,0,1,1-3.12,0,10.72,10.72,0,0,1,21.44,0A1.56,1.56,0,0,1,39.33,45.62Z"/><path d="M79.09,45.62a1.56,1.56,0,0,1-1.56-1.56,7.6,7.6,0,1,0-15.19,0,1.56,1.56,0,1,1-3.12,0,10.72,10.72,0,1,1,21.43,0A1.56,1.56,0,0,1,79.09,45.62Z"/><circle class="cls-4" cx="23.54" cy="52.63" r="4.11"/><circle class="cls-4" cx="76.56" cy="52.63" r="4.11"/><path class="cls-1" d="M85,38.54a4.48,4.48,0,0,1,3.34-2,4.35,4.35,0,0,1,3.21,1.8l-.1.09C88.92,41,87.09,46.6,86.67,53.4c-.06,1-.1,2-.1,3s.05,2.21.12,3.27c.46,6.75,2.32,12.29,4.81,14.71l-.21.25a3.69,3.69,0,0,1-6,0c-2.74-3-4.68-9.93-4.71-18v-.19C80.57,48.5,82.36,41.73,85,38.54Z"/><path class="cls-1" d="M15.78,37.54a4.48,4.48,0,0,0-3.33-2,4.33,4.33,0,0,0-3.21,1.8l.1.09c2.47,2.51,4.3,8.13,4.72,14.93.06,1,.1,2,.1,3s0,2.21-.12,3.27c-.46,6.75-2.31,12.29-4.8,14.71l.2.25a4.15,4.15,0,0,0,3,1.55,4.15,4.15,0,0,0,3-1.55c2.75-3,4.68-9.93,4.71-18v-.19C20.16,47.5,18.37,40.73,15.78,37.54Z"/><path class="cls-5" d="M98.09,44.2,98,44a48.49,48.49,0,0,0-96.25,2,10.78,10.78,0,0,0-.17,1.81v.43c-.05.87-.07,1.74-.07,2.62h.07v12.2A10.88,10.88,0,0,0,9.08,73.48l.16-.14c2.49-2.42,4.34-8,4.8-14.71q.12-1.59.12-3.27c0-1,0-2-.1-3C13.64,45.6,11.81,40,9.34,37.47l-.23.07a11.19,11.19,0,0,0-3,1.55,45.5,45.5,0,0,1,88,.62,10.9,10.9,0,0,0-2.46-1.17l-.23-.07C88.92,41,87.09,46.6,86.67,53.4c-.06,1-.1,2-.1,3s.05,2.21.12,3.27c.46,6.75,2.32,12.29,4.81,14.71l.15.14a10.88,10.88,0,0,0,7.51-10.34V48.89A10.83,10.83,0,0,0,98.09,44.2Z"/></g></svg>