<svg id="Ebene_1" data-name="Ebene 1" xmlns="http://www.w3.org/2000/svg" xmlns:xlink="http://www.w3.org/1999/xlink" viewBox="0 0 100 100"><defs><style>.cls-1{fill:#62697f;}.cls-2{fill:url(#Unbenannter_Verlauf_20);}.cls-3{opacity:0.5;}.cls-4{fill:#f95428;}.cls-5{fill:#fff;}.cls-6{fill:#a81004;}.cls-7{fill:#efefef;}</style><radialGradient id="Unbenannter_Verlauf_20" cx="51.05" cy="53.77" r="30.9" gradientUnits="userSpaceOnUse"><stop offset="0" stop-color="#fe8965"/><stop offset="0.28" stop-color="#fe8768"/><stop offset="0.51" stop-color="#fe8173"/><stop offset="0.73" stop-color="#fe7784"/><stop offset="0.94" stop-color="#ff6a9d"/><stop offset="1" stop-color="#ff65a5"/></radialGradient></defs><title>11</title><g id="In_Love" data-name="In Love"><ellipse class="cls-1" cx="49.84" cy="22.29" rx="17.67" ry="5.83"/><circle class="cls-2" cx="51.05" cy="53.77" r="30.9"/><path class="cls-3" d="M34.82,70a30.9,30.9,0,0,1-2.63-40.71A30.9,30.9,0,1,0,72.9,75.62a33.49,33.49,0,0,0,2.63-3A30.9,30.9,0,0,1,34.82,70Z"/><path class="cls-4" d="M63.26,39h0a4.77,4.77,0,0,0-6.76,0h0a4.79,4.79,0,0,0,0,6.76h0l6.76,6.75L70,45.73h0A4.77,4.77,0,0,0,70,39h0a4.77,4.77,0,0,0-6.76,0Z"/><path class="cls-4" d="M38.84,39h0a4.77,4.77,0,0,0-6.76,0h0a4.77,4.77,0,0,0,0,6.76h0l6.76,6.75,6.76-6.75h0a4.79,4.79,0,0,0,0-6.76h0a4.77,4.77,0,0,0-6.76,0Z"/><path class="cls-5" d="M35.47,57H66.62a15.33,15.33,0,0,1-.82,5H36.29A15.6,15.6,0,0,1,35.47,57Z"/><path class="cls-6" d="M36.29,62H65.8a15.54,15.54,0,0,1-5.63,7.62,6.27,6.27,0,0,0-9.12-1.83,6.27,6.27,0,0,0-9.12,1.83A15.62,15.62,0,0,1,36.29,62Z"/><path class="cls-4" d="M54.78,66.54a6.26,6.26,0,0,1,5.39,3.06,15.57,15.57,0,0,1-18.24,0,6.27,6.27,0,0,1,9.12-1.83A6.25,6.25,0,0,1,54.78,66.54Z"/><path d="M63.26,53.63a1.14,1.14,0,0,1-.81-.34l-6.76-6.75a5.93,5.93,0,0,1,7.57-9.06,5.93,5.93,0,0,1,7.57,9.06l-6.76,6.75A1.12,1.12,0,0,1,63.26,53.63ZM59.88,38.71a3.64,3.64,0,0,0-2.57,6.21l5.95,5.95,5.95-5.95a3.63,3.63,0,1,0-5.14-5.14,1.14,1.14,0,0,1-.81.33,1.18,1.18,0,0,1-.81-.33A3.59,3.59,0,0,0,59.88,38.71Z"/><path d="M38.84,53.63a1.1,1.1,0,0,1-.81-.34l-6.76-6.75a5.93,5.93,0,0,1,7.57-9.06,5.92,5.92,0,0,1,7.57.68,5.93,5.93,0,0,1,0,8.38l-6.76,6.75A1.14,1.14,0,0,1,38.84,53.63ZM35.46,38.71a3.59,3.59,0,0,0-2.57,1.07,3.63,3.63,0,0,0,0,5.14l6,5.95,5.95-5.95a3.65,3.65,0,0,0,0-5.14,3.62,3.62,0,0,0-5.14,0,1.18,1.18,0,0,1-.81.33,1.14,1.14,0,0,1-.81-.33A3.61,3.61,0,0,0,35.46,38.71Z"/><path d="M51.05,73.7A16.75,16.75,0,0,1,35.21,62.35,16.88,16.88,0,0,1,34.33,57a1.15,1.15,0,0,1,1.15-1.15H66.62A1.15,1.15,0,0,1,67.77,57a16.88,16.88,0,0,1-.88,5.37h0A16.75,16.75,0,0,1,51.05,73.7ZM36.66,58.12a14.84,14.84,0,0,0,.72,3.49,14.43,14.43,0,0,0,27.34,0h0a14.33,14.33,0,0,0,.71-3.49Z"/><rect x="36.3" y="60.83" width="29.51" height="2.29"/><path d="M59.28,70.36l-.09-.17a5.15,5.15,0,0,0-4.41-2.51,5.1,5.1,0,0,0-3.05,1,1.14,1.14,0,0,1-1.36,0,5.12,5.12,0,0,0-7.46,1.5l-.09.17-2-1.07.15-.27A7.41,7.41,0,0,1,51.05,66.4,7.4,7.4,0,0,1,61.15,69a2.4,2.4,0,0,1,.16.27Z"/><path class="cls-1" d="M75.32,41.81a3.25,3.25,0,0,1,2.44-1.43,3.17,3.17,0,0,1,2.33,1.31.23.23,0,0,1-.07.07c-1.8,1.83-3.14,5.93-3.44,10.88,0,.71-.08,1.43-.08,2.16s0,1.61.09,2.39c.34,4.92,1.69,9,3.5,10.72,0,.06-.09.13-.14.18a2.68,2.68,0,0,1-4.39,0c-2-2.17-3.41-7.23-3.43-13.15V54.8C72.13,49.07,73.43,44.14,75.32,41.81Z"/><path class="cls-1" d="M24.88,41.08a3.25,3.25,0,0,0-2.43-1.43A3.17,3.17,0,0,0,20.11,41l.07.07C22,42.86,23.32,47,23.63,51.92c0,.7.07,1.42.07,2.15s0,1.61-.09,2.39c-.33,4.92-1.69,9-3.5,10.72l.15.19a3,3,0,0,0,2.19,1.13,3,3,0,0,0,2.19-1.13c2-2.18,3.41-7.24,3.43-13.15v-.06s0-.06,0-.09C28.08,48.34,26.77,43.41,24.88,41.08Z"/><path class="cls-7" d="M84.9,45.94a.54.54,0,0,0-.07-.13,35.36,35.36,0,0,0-70.19,1.5,8.2,8.2,0,0,0-.12,1.32v.31c0,.63-.06,1.27-.06,1.91h.06v8.9A7.92,7.92,0,0,0,20,67.29a1.14,1.14,0,0,1,.11-.11c1.81-1.76,3.17-5.8,3.5-10.72.06-.78.09-1.57.09-2.39s0-1.45-.07-2.15C23.32,47,22,42.86,20.18,41l-.16,0a8,8,0,0,0-2.22,1.13A33.18,33.18,0,0,1,82,42.67a7.84,7.84,0,0,0-1.8-.86L80,41.76c-1.8,1.83-3.14,5.93-3.44,10.88,0,.71-.08,1.43-.08,2.16s0,1.61.09,2.39c.34,4.92,1.69,9,3.5,10.72l.12.11a7.94,7.94,0,0,0,5.08-5.08,7.73,7.73,0,0,0,.4-2.46V49.36A7.81,7.81,0,0,0,84.9,45.94Z"/></g></svg>