<svg id="Ebene_1" data-name="Ebene 1" xmlns="http://www.w3.org/2000/svg" xmlns:xlink="http://www.w3.org/1999/xlink" viewBox="0 0 100 100"><defs><style>.cls-1{fill:#62697f;}.cls-2{fill:url(#Unbenannter_Verlauf_20);}.cls-3{opacity:0.5;}.cls-4{fill:#f95428;}.cls-5{fill:#fff;}.cls-6{fill:#a81004;}.cls-7{fill:#efefef;}</style><radialGradient id="Unbenannter_Verlauf_20" cx="51.67" cy="54.94" r="42.37" gradientUnits="userSpaceOnUse"><stop offset="0" stop-color="#fe8965"/><stop offset="0.28" stop-color="#fe8768"/><stop offset="0.51" stop-color="#fe8173"/><stop offset="0.73" stop-color="#fe7784"/><stop offset="0.94" stop-color="#ff6a9d"/><stop offset="1" stop-color="#ff65a5"/></radialGradient></defs><title>11</title><g id="In_Love" data-name="In Love"><ellipse class="cls-1" cx="50.01" cy="11.78" rx="24.23" ry="8"/><circle class="cls-2" cx="51.67" cy="54.94" r="42.37"/><path class="cls-3" d="M29.41,77.2A42.36,42.36,0,0,1,25.8,21.38,41.81,41.81,0,0,0,21.71,25,42.37,42.37,0,0,0,81.63,84.9a43.29,43.29,0,0,0,3.6-4.1A42.37,42.37,0,0,1,29.41,77.2Z"/><path class="cls-4" d="M68.41,34.64h0a6.54,6.54,0,0,0-9.26,0h0a6.55,6.55,0,0,0,0,9.27h0l9.26,9.27,9.27-9.27h0a6.55,6.55,0,0,0,0-9.27h0a6.55,6.55,0,0,0-9.27,0Z"/><path class="cls-4" d="M34.92,34.64h0a6.55,6.55,0,0,0-9.27,0h0a6.55,6.55,0,0,0,0,9.27h0l9.27,9.27,9.27-9.27h0a6.55,6.55,0,0,0,0-9.27h0a6.55,6.55,0,0,0-9.27,0Z"/><path class="cls-5" d="M30.31,59.34H73A21.31,21.31,0,0,1,71.9,66.2H31.43A21.35,21.35,0,0,1,30.31,59.34Z"/><path class="cls-6" d="M31.43,66.2H71.9a21.38,21.38,0,0,1-7.73,10.45,8.59,8.59,0,0,0-12.5-2.51,8.6,8.6,0,0,0-12.51,2.51A21.38,21.38,0,0,1,31.43,66.2Z"/><path class="cls-4" d="M56.79,72.45a8.58,8.58,0,0,1,7.38,4.2,21.33,21.33,0,0,1-25,0,8.6,8.6,0,0,1,12.51-2.51A8.57,8.57,0,0,1,56.79,72.45Z"/><path d="M68.41,54.75a1.56,1.56,0,0,1-1.11-.46L58,45A8.13,8.13,0,0,1,68.41,32.6,8.13,8.13,0,0,1,78.79,45l-9.27,9.27A1.53,1.53,0,0,1,68.41,54.75ZM63.78,34.29a5,5,0,0,0-3.52,8.51L68.41,51l8.16-8.16a5,5,0,0,0,0-7,5,5,0,0,0-7,0,1.53,1.53,0,0,1-1.11.46,1.57,1.57,0,0,1-1.11-.46A5,5,0,0,0,63.78,34.29Z"/><path d="M34.92,54.75a1.56,1.56,0,0,1-1.11-.46L24.54,45A8.13,8.13,0,0,1,34.92,32.6,8.13,8.13,0,0,1,45.3,45L36,54.29A1.56,1.56,0,0,1,34.92,54.75ZM30.29,34.29a5,5,0,0,0-3.53,8.51L34.92,51l8.16-8.16a5,5,0,0,0-3.53-8.51A5,5,0,0,0,36,35.75a1.57,1.57,0,0,1-2.22,0A5,5,0,0,0,30.29,34.29Z"/><path d="M51.67,82.27A22.92,22.92,0,0,1,28.74,59.34a1.57,1.57,0,0,1,1.57-1.57H73a1.57,1.57,0,0,1,1.57,1.57,22.93,22.93,0,0,1-1.2,7.36h0A22.95,22.95,0,0,1,51.67,82.27ZM31.94,60.91a19.91,19.91,0,0,0,1,4.78,19.79,19.79,0,0,0,37.49,0h0a19.44,19.44,0,0,0,1-4.78Z"/><rect x="31.43" y="64.63" width="40.47" height="3.14"/><path d="M63,77.69a1.76,1.76,0,0,0-.14-.23,7.05,7.05,0,0,0-6-3.44,7,7,0,0,0-4.18,1.38,1.56,1.56,0,0,1-1.88,0,7,7,0,0,0-10.22,2c0,.08-.09.16-.13.24L37.6,76.22l.21-.37a10.18,10.18,0,0,1,8.73-5,10.06,10.06,0,0,1,5.13,1.38,10,10,0,0,1,5.12-1.38,10.19,10.19,0,0,1,8.73,5c.07.12.15.24.21.37Z"/><path class="cls-1" d="M85,38.54a4.48,4.48,0,0,1,3.34-2,4.35,4.35,0,0,1,3.21,1.8l-.1.09C88.92,41,87.09,46.6,86.67,53.4c-.06,1-.1,2-.1,3s.05,2.21.12,3.27c.46,6.75,2.32,12.29,4.81,14.71l-.21.25a3.69,3.69,0,0,1-6,0c-2.74-3-4.68-9.93-4.71-18v-.19C80.57,48.5,82.36,41.73,85,38.54Z"/><path class="cls-1" d="M15.78,37.54a4.48,4.48,0,0,0-3.33-2,4.33,4.33,0,0,0-3.21,1.8l.1.09c2.47,2.51,4.3,8.13,4.72,14.93.06,1,.1,2,.1,3s0,2.21-.12,3.27c-.46,6.75-2.31,12.29-4.8,14.71l.2.25a4.15,4.15,0,0,0,3,1.55,4.15,4.15,0,0,0,3-1.55c2.75-3,4.68-9.93,4.71-18v-.19C20.16,47.5,18.37,40.73,15.78,37.54Z"/><path class="cls-7" d="M98.09,44.2,98,44a48.49,48.49,0,0,0-96.25,2,10.78,10.78,0,0,0-.17,1.81v.43c-.05.87-.07,1.74-.07,2.62h.07v12.2A10.88,10.88,0,0,0,9.08,73.48l.16-.14c2.49-2.42,4.34-8,4.8-14.71q.12-1.59.12-3.27c0-1,0-2-.1-3C13.64,45.6,11.81,40,9.34,37.47l-.23.07a11.19,11.19,0,0,0-3,1.55,45.5,45.5,0,0,1,88,.62,10.9,10.9,0,0,0-2.46-1.17l-.23-.07C88.92,41,87.09,46.6,86.67,53.4c-.06,1-.1,2-.1,3s.05,2.21.12,3.27c.46,6.75,2.32,12.29,4.81,14.71l.15.14a10.88,10.88,0,0,0,7.51-10.34V48.89A10.83,10.83,0,0,0,98.09,44.2Z"/></g></svg>