<svg id="Ebene_1" data-name="Ebene 1" xmlns="http://www.w3.org/2000/svg" xmlns:xlink="http://www.w3.org/1999/xlink" viewBox="0 0 100 100"><defs><style>.cls-1{fill:#62697f;}.cls-2{fill:url(#Unbenannter_Verlauf_20);}.cls-3{opacity:0.5;}.cls-4{fill:#fff;}.cls-5{fill:#efefef;}</style><radialGradient id="Unbenannter_Verlauf_20" cx="50.08" cy="55.13" r="28.95" gradientUnits="userSpaceOnUse"><stop offset="0" stop-color="#fe8965"/><stop offset="0.28" stop-color="#fe8768"/><stop offset="0.51" stop-color="#fe8173"/><stop offset="0.73" stop-color="#fe7784"/><stop offset="0.94" stop-color="#ff6a9d"/><stop offset="1" stop-color="#ff65a5"/></radialGradient></defs><title>2</title><g id="Sick"><ellipse class="cls-1" cx="50.07" cy="23.5" rx="17.67" ry="5.83"/><ellipse class="cls-1" cx="50.07" cy="23.5" rx="17.67" ry="5.83"/><circle class="cls-2" cx="50.08" cy="55.13" r="28.95"/><path class="cls-3" d="M34.87,70.34A29,29,0,0,1,32.4,32.2a29.23,29.23,0,0,0-2.79,2.46A28.95,28.95,0,0,0,70.54,75.6,29.34,29.34,0,0,0,73,72.8,28.94,28.94,0,0,1,34.87,70.34Z"/><path class="cls-3" d="M53.61,71.22a1.13,1.13,0,0,1-.36-.06,9.36,9.36,0,0,0-6.35,0,1.07,1.07,0,0,1-.73-2,11.51,11.51,0,0,1,7.81,0,1.07,1.07,0,0,1-.37,2.08Z"/><path d="M63.11,61.42a1.07,1.07,0,1,0,0-2.14,6.44,6.44,0,0,0-6.34,5.36H43.38A6.44,6.44,0,0,0,37,59.28a1.07,1.07,0,1,0,0,2.14A4.3,4.3,0,0,1,37,70a1.07,1.07,0,1,0,0,2.14,6.44,6.44,0,0,0,6.34-5.36H56.77a6.44,6.44,0,0,0,6.34,5.36,1.07,1.07,0,1,0,0-2.14,4.3,4.3,0,0,1,0-8.59Z"/><path d="M41.23,53a4,4,0,1,0-4,4A4,4,0,0,0,41.23,53Z"/><path d="M62.89,49a4,4,0,1,0,4,4A4,4,0,0,0,62.89,49Z"/><path class="cls-4" d="M63.85,53.12a1.07,1.07,0,0,1-.76-.31L63,52.65a1.14,1.14,0,0,1-.1-.19l-.06-.2a1.11,1.11,0,0,1,0-.42l.06-.2a1.74,1.74,0,0,1,.1-.19l.14-.16a1.06,1.06,0,0,1,1-.29.66.66,0,0,1,.2.06l.19.1.16.13.14.16a1.74,1.74,0,0,1,.1.19l.06.2a1.11,1.11,0,0,1,0,.42l-.06.2a1.14,1.14,0,0,1-.1.19l-.14.16-.16.13-.19.1a.66.66,0,0,1-.2.06A.68.68,0,0,1,63.85,53.12Z"/><path class="cls-4" d="M38.67,53.12a.75.75,0,0,1-.21,0,.66.66,0,0,1-.2-.06l-.19-.1-.16-.13a1.08,1.08,0,0,1-.31-.76.75.75,0,0,1,0-.21.66.66,0,0,1,.06-.2.87.87,0,0,1,.1-.19.91.91,0,0,1,.13-.16l.16-.13.19-.1a.66.66,0,0,1,.2-.06,1.08,1.08,0,0,1,1,.29,1,1,0,0,1,.13.16,1.74,1.74,0,0,1,.1.19.66.66,0,0,1,.06.2,1.49,1.49,0,0,1,0,.21,1.06,1.06,0,0,1-1.07,1.07Z"/><path class="cls-1" d="M75.32,42.4A3.25,3.25,0,0,1,77.76,41a3.17,3.17,0,0,1,2.33,1.31l-.07.07c-1.8,1.83-3.14,5.93-3.44,10.88,0,.71-.08,1.43-.08,2.16s0,1.61.09,2.39c.34,4.92,1.69,9,3.5,10.72,0,.06-.09.13-.14.18a2.68,2.68,0,0,1-4.39,0c-2-2.17-3.41-7.23-3.43-13.15v-.14C72.13,49.66,73.43,44.73,75.32,42.4Z"/><path class="cls-1" d="M24.88,41.67a3.25,3.25,0,0,0-2.43-1.43,3.17,3.17,0,0,0-2.34,1.31.46.46,0,0,0,.07.07c1.81,1.83,3.14,5.93,3.45,10.88,0,.71.07,1.43.07,2.16s0,1.61-.09,2.39c-.33,4.92-1.69,9-3.5,10.72.05.06.1.13.15.18a3,3,0,0,0,2.19,1.14A3,3,0,0,0,24.64,68c2-2.17,3.41-7.23,3.43-13.15v0s0-.06,0-.09C28.08,48.93,26.77,44,24.88,41.67Z"/><path class="cls-5" d="M84.9,46.53a.54.54,0,0,0-.07-.13,35.36,35.36,0,0,0-70.19,1.5,8.2,8.2,0,0,0-.12,1.32v.31c0,.63-.06,1.27-.06,1.91h.06v8.9A7.92,7.92,0,0,0,20,67.88l.11-.11c1.81-1.76,3.17-5.8,3.5-10.72.06-.78.09-1.57.09-2.39s0-1.45-.07-2.16c-.31-5-1.64-9-3.45-10.88l-.16.05A8,8,0,0,0,17.8,42.8,33.18,33.18,0,0,1,82,43.25a8.25,8.25,0,0,0-1.8-.85l-.17,0c-1.8,1.83-3.14,5.93-3.44,10.88,0,.71-.08,1.43-.08,2.16s0,1.61.09,2.39c.34,4.92,1.69,9,3.5,10.72l.12.11a7.94,7.94,0,0,0,5.08-5.08,7.73,7.73,0,0,0,.4-2.46V50A7.81,7.81,0,0,0,84.9,46.53Z"/></g></svg>