<svg id="Ebene_1" data-name="Ebene 1" xmlns="http://www.w3.org/2000/svg" xmlns:xlink="http://www.w3.org/1999/xlink" viewBox="0 0 100 100"><defs><style>.cls-1{fill:#62697f;}.cls-2{fill:url(#Unbenannter_Verlauf_20);}.cls-3{opacity:0.5;}.cls-4{fill:#fff;}.cls-5{fill:#efefef;}</style><radialGradient id="Unbenannter_Verlauf_20" cx="50" cy="55" r="39.69" gradientUnits="userSpaceOnUse"><stop offset="0" stop-color="#fe8965"/><stop offset="0.28" stop-color="#fe8768"/><stop offset="0.51" stop-color="#fe8173"/><stop offset="0.73" stop-color="#fe7784"/><stop offset="0.94" stop-color="#ff6a9d"/><stop offset="1" stop-color="#ff65a5"/></radialGradient></defs><title>2</title><g id="Sick"><ellipse class="cls-1" cx="50" cy="11.63" rx="24.23" ry="8"/><ellipse class="cls-1" cx="50" cy="11.63" rx="24.23" ry="8"/><circle class="cls-2" cx="50" cy="55" r="39.69"/><path class="cls-3" d="M29.15,75.86a39.7,39.7,0,0,1-3.38-52.3,40.44,40.44,0,0,0-3.84,3.37A39.7,39.7,0,0,0,78.07,83.07a40.44,40.44,0,0,0,3.37-3.84A39.69,39.69,0,0,1,29.15,75.86Z"/><path class="cls-3" d="M54.85,77.07a1.41,1.41,0,0,1-.49-.09,12.93,12.93,0,0,0-8.72,0,1.47,1.47,0,1,1-1-2.77,15.85,15.85,0,0,1,10.7,0,1.47,1.47,0,0,1-.5,2.86Z"/><path d="M67.88,63.63a1.47,1.47,0,1,0,0-2.94,8.84,8.84,0,0,0-8.7,7.36H40.82a8.84,8.84,0,0,0-8.7-7.36,1.47,1.47,0,1,0,0,2.94,5.89,5.89,0,0,1,0,11.77,1.47,1.47,0,0,0,0,2.94A8.83,8.83,0,0,0,40.82,71H59.18a8.83,8.83,0,0,0,8.7,7.35,1.47,1.47,0,0,0,0-2.94,5.89,5.89,0,0,1,0-11.77Z"/><path d="M37.87,52a5.44,5.44,0,1,0-5.44,5.44A5.45,5.45,0,0,0,37.87,52Z"/><path d="M67.57,46.57A5.45,5.45,0,1,0,73,52,5.45,5.45,0,0,0,67.57,46.57Z"/><path class="cls-4" d="M68.88,52.25a1.52,1.52,0,0,1-1-.43,1.89,1.89,0,0,1-.32-.48,2.29,2.29,0,0,1-.08-.28,1.33,1.33,0,0,1,0-.28,1.43,1.43,0,0,1,0-.29,1.4,1.4,0,0,1,.22-.53,1.92,1.92,0,0,1,.18-.22,1.51,1.51,0,0,1,1.33-.41,1.22,1.22,0,0,1,.27.09,1.58,1.58,0,0,1,.26.13,1.37,1.37,0,0,1,.22.19,2,2,0,0,1,.19.22,2.1,2.1,0,0,1,.13.26,1.22,1.22,0,0,1,.09.27,1.43,1.43,0,0,1,0,.29,1.33,1.33,0,0,1,0,.28,1.31,1.31,0,0,1-.09.28,2,2,0,0,1-.13.25,1.45,1.45,0,0,1-.19.23,1,1,0,0,1-.22.18,1.59,1.59,0,0,1-.26.14l-.27.08A1.36,1.36,0,0,1,68.88,52.25Z"/><path class="cls-4" d="M34.36,52.25a1.43,1.43,0,0,1-.29,0l-.27-.08L33.54,52a1.24,1.24,0,0,1-.22-.18,1.46,1.46,0,0,1-.43-1,1.36,1.36,0,0,1,0-.29.84.84,0,0,1,.08-.27,1.3,1.3,0,0,1,.14-.26,1.24,1.24,0,0,1,.18-.22l.22-.19.26-.13a1.22,1.22,0,0,1,.27-.09,1.51,1.51,0,0,1,1.33.41,1.24,1.24,0,0,1,.18.22,1.4,1.4,0,0,1,.22.53,1.36,1.36,0,0,1,0,.29,1.47,1.47,0,0,1-1.47,1.47Z"/><path class="cls-1" d="M84.62,37.54a4.48,4.48,0,0,1,3.34-2,4.38,4.38,0,0,1,3.21,1.8l-.1.09C88.59,40,86.76,45.6,86.34,52.4c-.06,1-.1,2-.1,3s.05,2.21.12,3.28c.46,6.74,2.32,12.28,4.81,14.7l-.21.25a3.69,3.69,0,0,1-6,0c-2.74-3-4.68-9.93-4.71-18v-.2C80.24,47.5,82,40.74,84.62,37.54Z"/><path class="cls-1" d="M15.45,36.54a4.48,4.48,0,0,0-3.33-2,4.37,4.37,0,0,0-3.21,1.8.81.81,0,0,0,.1.09c2.47,2.51,4.3,8.13,4.72,14.93.06,1,.1,2,.1,3s0,2.21-.12,3.28c-.46,6.74-2.31,12.28-4.8,14.7l.2.25a4.15,4.15,0,0,0,3,1.55,4.15,4.15,0,0,0,3-1.55c2.75-3,4.68-9.93,4.71-18v-.2C19.83,46.5,18,39.74,15.45,36.54Z"/><path class="cls-5" d="M97.76,43.21c0-.07-.07-.12-.1-.18A48.49,48.49,0,0,0,1.41,45.09a10.76,10.76,0,0,0-.17,1.8v.43c-.05.87-.07,1.74-.07,2.62h.07v12.2A10.88,10.88,0,0,0,8.75,72.48l.16-.14c2.49-2.42,4.34-8,4.8-14.7.08-1.07.12-2.16.12-3.28s0-2-.1-3C13.31,44.6,11.48,39,9,36.47l-.23.07a11.19,11.19,0,0,0-3,1.55,45.5,45.5,0,0,1,88,.63,10.93,10.93,0,0,0-2.46-1.18l-.23-.07C88.59,40,86.76,45.6,86.34,52.4c-.06,1-.1,2-.1,3s.05,2.21.12,3.28c.46,6.74,2.32,12.28,4.81,14.7l.15.14a10.88,10.88,0,0,0,7.51-10.34V47.89A10.79,10.79,0,0,0,97.76,43.21Z"/></g></svg>