<svg id="Ebene_1" data-name="Ebene 1" xmlns="http://www.w3.org/2000/svg" xmlns:xlink="http://www.w3.org/1999/xlink" viewBox="0 0 100 100"><defs><style>.cls-1{fill:#62697f;}.cls-2{fill:url(#Unbenannter_Verlauf_20);}.cls-3{opacity:0.5;}.cls-4{fill:#fff;}.cls-5{fill:#a81004;}.cls-6{fill:#f95428;}.cls-7{fill:#e54728;}.cls-8{fill:#efefef;}.cls-9{fill:url(#Unbenannter_Verlauf_20-2);}</style><radialGradient id="Unbenannter_Verlauf_20" cx="50.08" cy="54.82" r="28.47" gradientUnits="userSpaceOnUse"><stop offset="0" stop-color="#fe8965"/><stop offset="0.28" stop-color="#fe8768"/><stop offset="0.51" stop-color="#fe8173"/><stop offset="0.73" stop-color="#fe7784"/><stop offset="0.94" stop-color="#ff6a9d"/><stop offset="1" stop-color="#ff65a5"/></radialGradient><radialGradient id="Unbenannter_Verlauf_20-2" cx="50.08" cy="54.72" r="28.47" xlink:href="#Unbenannter_Verlauf_20"/></defs><title>3</title><g id="Wink"><ellipse class="cls-1" cx="50.08" cy="24.49" rx="17.67" ry="5.83"/><circle class="cls-2" cx="50.08" cy="54.82" r="28.47"/><path class="cls-3" d="M35.12,69.77a28.46,28.46,0,0,1-2.42-37.5A27.21,27.21,0,0,0,30,34.69,28.46,28.46,0,0,0,70.2,75a29.7,29.7,0,0,0,2.43-2.75A28.48,28.48,0,0,1,35.12,69.77Z"/><path class="cls-4" d="M35.72,56.3h28.7a14.37,14.37,0,0,1-.75,4.61H36.48A14.38,14.38,0,0,1,35.72,56.3Z"/><path class="cls-5" d="M36.48,60.91H63.67a14.35,14.35,0,0,1-5.19,7,5.78,5.78,0,0,0-8.41-1.68,5.77,5.77,0,0,0-8.4,1.68A14.35,14.35,0,0,1,36.48,60.91Z"/><path class="cls-6" d="M58.59,68.14a2.12,2.12,0,0,0-.11-.21,5.78,5.78,0,0,0-8.41-1.68,5.77,5.77,0,0,0-8.4,1.68,2.12,2.12,0,0,0-.11.21v.71a8.52,8.52,0,0,0,8.51,8.52h0a8.52,8.52,0,0,0,8.52-8.52v-.71Z"/><path class="cls-7" d="M58.48,67.93a5.78,5.78,0,0,0-8.41-1.68,5.77,5.77,0,0,0-8.4,1.68,2.12,2.12,0,0,0-.11.21v.71a8.67,8.67,0,0,0,.31,2.29,5.78,5.78,0,0,1,8.2-1.38,5.82,5.82,0,0,1,3.45-1.13,5.75,5.75,0,0,1,4.76,2.51,8.67,8.67,0,0,0,.31-2.29v-.71A2.12,2.12,0,0,0,58.48,67.93Z"/><path d="M64.43,55.25H35.73a1.05,1.05,0,0,0-1.06,1A15.35,15.35,0,0,0,40.5,68.37v.48a9.58,9.58,0,0,0,19.15,0v-.48A15.35,15.35,0,0,0,65.48,56.3,1,1,0,0,0,64.43,55.25Zm-1.1,2.11a14,14,0,0,1-.44,2.49H37.26a14,14,0,0,1-.44-2.49ZM57.54,68.85a7.47,7.47,0,0,1-14.93,0v-.43A4.71,4.71,0,0,1,49,66.81v3.84a1.06,1.06,0,1,0,2.11,0V66.81a4.71,4.71,0,0,1,6.41,1.61v.43Zm1.15-2.42a6.87,6.87,0,0,0-5.17-2.38,6.79,6.79,0,0,0-3.45.93,6.75,6.75,0,0,0-3.44-.93,6.87,6.87,0,0,0-5.17,2.38A13.35,13.35,0,0,1,38,62H62.11A13.25,13.25,0,0,1,58.69,66.43Z"/><path d="M62.4,44.88a3.91,3.91,0,1,0,3.9,3.9A3.91,3.91,0,0,0,62.4,44.88Z"/><path d="M35.81,50.62a4.28,4.28,0,0,1,7.34,0,1,1,0,0,0,1.44.37A1.06,1.06,0,0,0,45,49.54a6.38,6.38,0,0,0-11,0,1.05,1.05,0,1,0,1.81,1.08Z"/><circle class="cls-4" cx="63.09" cy="48.38" r="1.06"/><path class="cls-1" d="M75.32,43.39A3.25,3.25,0,0,1,77.76,42a3.17,3.17,0,0,1,2.33,1.31l-.07.07c-1.8,1.83-3.14,5.93-3.44,10.88,0,.71-.08,1.43-.08,2.16s0,1.61.09,2.39c.34,4.92,1.69,9,3.5,10.72,0,.06-.09.13-.14.18a2.68,2.68,0,0,1-4.39,0c-2-2.17-3.41-7.23-3.43-13.15v-.14C72.13,50.65,73.43,45.72,75.32,43.39Z"/><path class="cls-1" d="M24.88,42.66a3.25,3.25,0,0,0-2.43-1.43,3.17,3.17,0,0,0-2.34,1.31s.05,0,.07.07c1.81,1.83,3.14,5.93,3.45,10.88,0,.71.07,1.43.07,2.16s0,1.61-.09,2.39c-.33,4.92-1.69,9-3.5,10.72.05.06.1.13.15.18a3,3,0,0,0,2.19,1.14,3,3,0,0,0,2.19-1.14c2-2.17,3.41-7.23,3.43-13.15v0s0-.06,0-.09C28.08,49.92,26.77,45,24.88,42.66Z"/><path class="cls-8" d="M84.9,47.52a.54.54,0,0,0-.07-.13,35.36,35.36,0,0,0-70.19,1.5,8.2,8.2,0,0,0-.12,1.32v.31c0,.63-.06,1.27-.06,1.91h.06v8.9A7.92,7.92,0,0,0,20,68.87a1.14,1.14,0,0,1,.11-.11C21.92,67,23.28,63,23.61,58c.06-.78.09-1.57.09-2.39s0-1.45-.07-2.16c-.31-5-1.64-9.05-3.45-10.88l-.16,0a7.75,7.75,0,0,0-2.22,1.13A33.18,33.18,0,0,1,82,44.24a8.25,8.25,0,0,0-1.8-.85l-.17,0c-1.8,1.83-3.14,5.93-3.44,10.88,0,.71-.08,1.43-.08,2.16s0,1.61.09,2.39c.34,4.92,1.69,9,3.5,10.72l.12.11a7.94,7.94,0,0,0,5.08-5.08,7.73,7.73,0,0,0,.4-2.46V50.94A7.81,7.81,0,0,0,84.9,47.52Z"/></g><g id="Wink-2" data-name="Wink"><ellipse class="cls-1" cx="50.08" cy="24.39" rx="17.67" ry="5.83"/><circle class="cls-9" cx="50.08" cy="54.72" r="28.47"/><path class="cls-3" d="M35.12,69.67a28.46,28.46,0,0,1-2.42-37.5A27.21,27.21,0,0,0,30,34.59,28.46,28.46,0,0,0,70.2,74.85a29.7,29.7,0,0,0,2.43-2.75A28.47,28.47,0,0,1,35.12,69.67Z"/><path class="cls-4" d="M35.72,56.2h28.7a14.37,14.37,0,0,1-.75,4.61H36.48A14.38,14.38,0,0,1,35.72,56.2Z"/><path class="cls-5" d="M36.48,60.81H63.67a14.35,14.35,0,0,1-5.19,7,5.78,5.78,0,0,0-8.41-1.68,5.77,5.77,0,0,0-8.4,1.68A14.35,14.35,0,0,1,36.48,60.81Z"/><path class="cls-6" d="M58.59,68a2.12,2.12,0,0,0-.11-.21,5.78,5.78,0,0,0-8.41-1.68,5.77,5.77,0,0,0-8.4,1.68,2.12,2.12,0,0,0-.11.21v.71a8.51,8.51,0,0,0,8.51,8.52h0a8.51,8.51,0,0,0,8.52-8.52V68Z"/><path class="cls-7" d="M58.48,67.83a5.78,5.78,0,0,0-8.41-1.68,5.77,5.77,0,0,0-8.4,1.68,2.12,2.12,0,0,0-.11.21v.71A8.67,8.67,0,0,0,41.87,71a5.77,5.77,0,0,1,8.2-1.37A5.78,5.78,0,0,1,58.28,71a8.67,8.67,0,0,0,.31-2.29V68A2.12,2.12,0,0,0,58.48,67.83Z"/><path d="M64.43,55.15H35.73a1.05,1.05,0,0,0-1.06,1.05A15.35,15.35,0,0,0,40.5,68.27v.48a9.58,9.58,0,0,0,19.15,0v-.48A15.35,15.35,0,0,0,65.48,56.2,1,1,0,0,0,64.43,55.15Zm-1.1,2.11a14,14,0,0,1-.44,2.49H37.26a14,14,0,0,1-.44-2.49ZM57.54,68.75a7.47,7.47,0,0,1-14.93,0v-.43a4.75,4.75,0,0,1,4-2.26,4.65,4.65,0,0,1,2.39.66v3.83a1.06,1.06,0,1,0,2.11,0V66.72a4.65,4.65,0,0,1,2.39-.66,4.76,4.76,0,0,1,4,2.26v.43Zm1.15-2.42A6.87,6.87,0,0,0,53.52,64a6.79,6.79,0,0,0-3.45.93A6.75,6.75,0,0,0,46.63,64a6.87,6.87,0,0,0-5.17,2.38A13.25,13.25,0,0,1,38,61.86H62.11A13.25,13.25,0,0,1,58.69,66.33Z"/><path d="M62.4,44.78a3.91,3.91,0,1,0,3.9,3.9A3.91,3.91,0,0,0,62.4,44.78Z"/><path d="M35.81,50.52a4.28,4.28,0,0,1,7.34,0,1,1,0,0,0,1.44.37A1.06,1.06,0,0,0,45,49.44a6.38,6.38,0,0,0-11,0,1.05,1.05,0,1,0,1.81,1.08Z"/><circle class="cls-4" cx="63.09" cy="48.29" r="1.06"/><path class="cls-1" d="M75.32,43.29a3.25,3.25,0,0,1,2.44-1.43,3.17,3.17,0,0,1,2.33,1.31l-.07.07c-1.8,1.83-3.14,5.93-3.44,10.88,0,.71-.08,1.43-.08,2.16s0,1.61.09,2.39c.34,4.92,1.69,9,3.5,10.72,0,.06-.09.13-.14.18a2.68,2.68,0,0,1-4.39,0c-2-2.17-3.41-7.23-3.43-13.15v-.14C72.13,50.55,73.43,45.62,75.32,43.29Z"/><path class="cls-1" d="M24.88,42.56a3.25,3.25,0,0,0-2.43-1.43,3.17,3.17,0,0,0-2.34,1.31.46.46,0,0,0,.07.07c1.81,1.83,3.14,5.93,3.45,10.88,0,.71.07,1.43.07,2.16s0,1.61-.09,2.39c-.33,4.92-1.69,9-3.5,10.72.05.06.1.13.15.18A3,3,0,0,0,22.45,70a3,3,0,0,0,2.19-1.14c2-2.17,3.41-7.23,3.43-13.15v0s0-.06,0-.09C28.08,49.82,26.77,44.89,24.88,42.56Z"/><path class="cls-8" d="M84.9,47.42a.54.54,0,0,0-.07-.13,35.36,35.36,0,0,0-70.19,1.5,8.2,8.2,0,0,0-.12,1.32v.31c0,.63-.06,1.27-.06,1.91h.06v8.9A7.92,7.92,0,0,0,20,68.77l.11-.11c1.81-1.76,3.17-5.8,3.5-10.72.06-.78.09-1.57.09-2.39s0-1.45-.07-2.16c-.31-5-1.64-9-3.45-10.88l-.16.05a8,8,0,0,0-2.22,1.13A33.18,33.18,0,0,1,82,44.15a7.84,7.84,0,0,0-1.8-.86l-.17,0c-1.8,1.83-3.14,5.93-3.44,10.88,0,.71-.08,1.43-.08,2.16s0,1.61.09,2.39c.34,4.92,1.69,9,3.5,10.72l.12.11a7.94,7.94,0,0,0,5.08-5.08,7.73,7.73,0,0,0,.4-2.46V50.84A7.81,7.81,0,0,0,84.9,47.42Z"/></g></svg>