<svg id="Ebene_1" data-name="Ebene 1" xmlns="http://www.w3.org/2000/svg" xmlns:xlink="http://www.w3.org/1999/xlink" viewBox="0 0 100 100"><defs><style>.cls-1{fill:#62697f;}.cls-2{fill:url(#Unbenannter_Verlauf_20);}.cls-3{opacity:0.5;}.cls-4{fill:#fff;}.cls-5{fill:#a81004;}.cls-6{fill:#f95428;}.cls-7{fill:#e54728;}.cls-8{fill:#efefef;}</style><radialGradient id="Unbenannter_Verlauf_20" cx="50.84" cy="53.22" r="39.04" gradientUnits="userSpaceOnUse"><stop offset="0" stop-color="#fe8965"/><stop offset="0.28" stop-color="#fe8768"/><stop offset="0.51" stop-color="#fe8173"/><stop offset="0.73" stop-color="#fe7784"/><stop offset="0.94" stop-color="#ff6a9d"/><stop offset="1" stop-color="#ff65a5"/></radialGradient></defs><title>3</title><g id="Wink"><ellipse class="cls-1" cx="50.84" cy="11.63" rx="24.23" ry="8"/><circle class="cls-2" cx="50.84" cy="53.22" r="39.04"/><path class="cls-3" d="M30.33,73.73A39.06,39.06,0,0,1,27,22.29,39,39,0,1,0,78.44,80.82a37.8,37.8,0,0,0,3.32-3.77A39,39,0,0,1,30.33,73.73Z"/><path class="cls-4" d="M31.16,55.25H70.52a19.71,19.71,0,0,1-1,6.32H32.2A19.71,19.71,0,0,1,31.16,55.25Z"/><path class="cls-5" d="M32.2,61.57H69.48a19.66,19.66,0,0,1-7.12,9.63,7.91,7.91,0,0,0-11.52-2.31A7.91,7.91,0,0,0,39.32,71.2,19.66,19.66,0,0,1,32.2,61.57Z"/><path class="cls-6" d="M62.52,71.48c-.05-.09-.1-.19-.16-.28a7.91,7.91,0,0,0-11.52-2.31A7.91,7.91,0,0,0,39.32,71.2c-.06.09-.11.19-.16.28v1A11.68,11.68,0,0,0,50.84,84.14h0A11.68,11.68,0,0,0,62.52,72.46v-1Z"/><path class="cls-7" d="M62.36,71.2a7.91,7.91,0,0,0-11.52-2.31A7.91,7.91,0,0,0,39.32,71.2c-.06.09-.11.19-.16.28v1a11.61,11.61,0,0,0,.43,3.14,7.91,7.91,0,0,1,11.25-1.89A7.91,7.91,0,0,1,62.09,75.6a11.61,11.61,0,0,0,.43-3.14v-1C62.47,71.39,62.42,71.29,62.36,71.2Z"/><path d="M70.52,53.8H31.16a1.44,1.44,0,0,0-1.44,1.45,21.07,21.07,0,0,0,8,16.55v.66a13.13,13.13,0,1,0,26.26,0V71.8a21.14,21.14,0,0,0,8-16.55A1.45,1.45,0,0,0,70.52,53.8ZM69,56.7a18.86,18.86,0,0,1-.61,3.42H33.27a18,18,0,0,1-.6-3.42ZM61.07,72.46a10.23,10.23,0,1,1-20.46,0v-.59a6.48,6.48,0,0,1,5.51-3.1,6.33,6.33,0,0,1,3.27.9v5.26a1.45,1.45,0,0,0,2.9,0V69.67a6.33,6.33,0,0,1,3.27-.9,6.5,6.5,0,0,1,5.51,3.1v.59Zm1.58-3.32a9.39,9.39,0,0,0-7.09-3.26,9.26,9.26,0,0,0-4.72,1.28,9.26,9.26,0,0,0-4.72-1.28A9.39,9.39,0,0,0,39,69.14,18.09,18.09,0,0,1,34.34,63h33A18,18,0,0,1,62.65,69.14Z"/><path d="M67.74,39.59a5.36,5.36,0,1,0,5.35,5.35A5.36,5.36,0,0,0,67.74,39.59Z"/><path d="M31.28,47.46a5.86,5.86,0,0,1,10.06,0A1.44,1.44,0,0,0,43.82,46a8.75,8.75,0,0,0-15,0,1.44,1.44,0,1,0,2.48,1.48Z"/><circle class="cls-4" cx="68.69" cy="44.39" r="1.45"/><path class="cls-1" d="M85.46,37.54a4.48,4.48,0,0,1,3.34-2A4.38,4.38,0,0,1,92,37.38l-.1.09C89.43,40,87.6,45.6,87.18,52.4c-.06,1-.1,2-.1,3s0,2.21.12,3.28c.46,6.74,2.32,12.28,4.81,14.7l-.21.25a3.69,3.69,0,0,1-6,0c-2.74-3-4.67-9.93-4.71-18v-.2C81.08,47.5,82.87,40.74,85.46,37.54Z"/><path class="cls-1" d="M16.29,36.54a4.48,4.48,0,0,0-3.33-2,4.37,4.37,0,0,0-3.21,1.8.81.81,0,0,0,.1.09C12.32,39,14.16,44.6,14.57,51.4c.06,1,.1,2,.1,3s0,2.21-.11,3.28c-.47,6.74-2.32,12.28-4.81,14.7l.2.25a4.15,4.15,0,0,0,3,1.55,4.15,4.15,0,0,0,3-1.55c2.75-3,4.68-9.93,4.71-18v-.2C20.67,46.5,18.88,39.74,16.29,36.54Z"/><path class="cls-8" d="M98.6,43.21,98.51,43A48.5,48.5,0,0,0,2.25,45.09a10.76,10.76,0,0,0-.17,1.8v.43C2,48.19,2,49.06,2,49.94h.07v12.2A10.88,10.88,0,0,0,9.59,72.48l.16-.14c2.49-2.42,4.34-8,4.81-14.7.07-1.07.11-2.16.11-3.28s0-2-.1-3C14.16,44.6,12.32,39,9.85,36.47l-.23.07a11.19,11.19,0,0,0-3,1.55,45.5,45.5,0,0,1,88,.63,10.73,10.73,0,0,0-2.46-1.18l-.23-.07C89.43,40,87.6,45.6,87.18,52.4c-.06,1-.1,2-.1,3s0,2.21.12,3.28c.46,6.74,2.32,12.28,4.81,14.7l.15.14a10.88,10.88,0,0,0,7.51-10.34V47.89A10.79,10.79,0,0,0,98.6,43.21Z"/></g></svg>