<svg id="Ebene_1" data-name="Ebene 1" xmlns="http://www.w3.org/2000/svg" xmlns:xlink="http://www.w3.org/1999/xlink" viewBox="0 0 100 100"><defs><style>.cls-1{fill:#62697f;}.cls-2{fill:#efefef;}.cls-3{fill:url(#Unbenannter_Verlauf_20);}.cls-4{opacity:0.5;}.cls-5{fill:#a81004;}.cls-6{fill:#f95428;}</style><radialGradient id="Unbenannter_Verlauf_20" cx="49.34" cy="53.17" r="30.93" gradientUnits="userSpaceOnUse"><stop offset="0" stop-color="#fe8965"/><stop offset="0.28" stop-color="#fe8768"/><stop offset="0.51" stop-color="#fe8173"/><stop offset="0.73" stop-color="#fe7784"/><stop offset="0.94" stop-color="#ff6a9d"/><stop offset="1" stop-color="#ff65a5"/></radialGradient></defs><title>4</title><g id="Dead"><ellipse class="cls-1" cx="50.81" cy="22.86" rx="17.67" ry="5.83"/><ellipse class="cls-1" cx="50.81" cy="22.86" rx="17.67" ry="5.83"/><path class="cls-1" d="M75.32,42.38A3.25,3.25,0,0,1,77.76,41a3.17,3.17,0,0,1,2.33,1.31.23.23,0,0,1-.07.07c-1.8,1.83-3.14,5.93-3.44,10.88,0,.71-.08,1.43-.08,2.16s0,1.61.09,2.39c.34,4.92,1.69,9,3.5,10.72,0,.06-.09.13-.14.18a2.68,2.68,0,0,1-4.39,0c-2-2.17-3.41-7.23-3.43-13.15v-.14C72.13,49.64,73.43,44.71,75.32,42.38Z"/><path class="cls-1" d="M24.88,41.65a3.25,3.25,0,0,0-2.43-1.43,3.17,3.17,0,0,0-2.34,1.31.46.46,0,0,0,.07.07c1.81,1.83,3.14,5.93,3.45,10.89,0,.7.07,1.42.07,2.15s0,1.61-.09,2.39c-.33,4.92-1.69,9-3.5,10.72l.15.19a3,3,0,0,0,2.19,1.13,3,3,0,0,0,2.19-1.13c2-2.18,3.41-7.24,3.43-13.15v-.06s0-.06,0-.09C28.08,48.91,26.77,44,24.88,41.65Z"/><path class="cls-2" d="M84.9,46.51a.54.54,0,0,0-.07-.13,35.36,35.36,0,0,0-70.19,1.5,8.2,8.2,0,0,0-.12,1.32v.31c0,.63-.06,1.27-.06,1.91h.06v8.9A7.92,7.92,0,0,0,20,67.86a1.14,1.14,0,0,1,.11-.11C21.92,66,23.28,62,23.61,57c.06-.78.09-1.57.09-2.39s0-1.45-.07-2.15c-.31-5-1.64-9.06-3.45-10.89l-.16,0a8,8,0,0,0-2.22,1.13A33.18,33.18,0,0,1,82,43.24a7.84,7.84,0,0,0-1.8-.86L80,42.33c-1.8,1.83-3.14,5.93-3.44,10.88,0,.71-.08,1.43-.08,2.16s0,1.61.09,2.39c.34,4.92,1.69,9,3.5,10.72l.12.11a7.94,7.94,0,0,0,5.08-5.08,7.73,7.73,0,0,0,.4-2.46V49.93A7.81,7.81,0,0,0,84.9,46.51Z"/><circle class="cls-3" cx="49.34" cy="53.17" r="30.93"/><path class="cls-4" d="M33.09,69.42a30.94,30.94,0,0,1-2.63-40.75,29.47,29.47,0,0,0-3,2.63A30.93,30.93,0,0,0,71.21,75a33.3,33.3,0,0,0,2.63-3A30.94,30.94,0,0,1,33.09,69.42Z"/><path class="cls-5" d="M61.29,69.09c0,2.19-1,2.94-2.73,3.09L58.47,72c-1.09-2.76-3.09-4.61-5.39-4.61a5.05,5.05,0,0,0-3.74,1.86,5,5,0,0,0-3.74-1.86c-2.29,0-4.3,1.85-5.39,4.61l-.09.23c-1.7-.15-2.72-.9-2.72-3.09,0-5,5.35-9.05,11.94-9.05S61.29,64.09,61.29,69.09Z"/><path class="cls-6" d="M58.47,72l.09.23c-2.19.2-5.51-.6-9.22-.6s-7,.8-9.22.6l.09-.23c1.09-2.76,3.1-4.61,5.39-4.61a5,5,0,0,1,3.74,1.86,5.05,5.05,0,0,1,3.74-1.86C55.38,67.34,57.38,69.19,58.47,72Z"/><path d="M49.34,58.89c-7.21,0-13.09,4.58-13.09,10.2,0,2.59,1.27,4,3.77,4.23a23.55,23.55,0,0,0,4.34-.23,44.28,44.28,0,0,1,5-.36,44.11,44.11,0,0,1,5,.36,34.11,34.11,0,0,0,3.48.27,7.88,7.88,0,0,0,.86,0c2.5-.22,3.77-1.64,3.77-4.23C62.43,63.47,56.56,58.89,49.34,58.89Zm0,11.55a45.28,45.28,0,0,0-5.23.37c-.78.08-1.51.17-2.17.21a4.54,4.54,0,0,1,3.66-2.53A4,4,0,0,1,48.49,70a1.13,1.13,0,0,0,1.71,0,4,4,0,0,1,2.88-1.47A4.54,4.54,0,0,1,56.74,71c-.66,0-1.38-.13-2.16-.21A45.47,45.47,0,0,0,49.34,70.44Zm9.92.45C57.91,68,55.59,66.2,53.08,66.2a5.81,5.81,0,0,0-3.74,1.41A5.79,5.79,0,0,0,45.6,66.2c-2.5,0-4.83,1.78-6.18,4.69-.6-.21-.87-.68-.87-1.8,0-4.36,4.84-7.91,10.79-7.91s10.8,3.55,10.8,7.91C60.14,70.21,59.86,70.68,59.26,70.89Z"/><path d="M39,53.4a1.15,1.15,0,0,0,1.63,0,1.16,1.16,0,0,0,0-1.62l-3.45-3.45,3.45-3.45A1.15,1.15,0,1,0,39,43.26l-3.44,3.45-3.45-3.45a1.15,1.15,0,1,0-1.62,1.62L34,48.33,30.5,51.78a1.14,1.14,0,0,0,0,1.62,1.13,1.13,0,0,0,1.62,0L35.57,50Z"/><path d="M68.19,43.26a1.14,1.14,0,0,0-1.62,0l-3.45,3.45-3.45-3.45a1.15,1.15,0,0,0-1.62,1.62l3.45,3.45-3.45,3.45a1.14,1.14,0,0,0,0,1.62,1.13,1.13,0,0,0,1.62,0L63.12,50l3.45,3.45a1.14,1.14,0,0,0,.81.34,1.18,1.18,0,0,0,.81-.34,1.14,1.14,0,0,0,0-1.62l-3.45-3.45,3.45-3.45A1.14,1.14,0,0,0,68.19,43.26Z"/><path class="cls-1" d="M75.32,42.38A3.25,3.25,0,0,1,77.76,41a3.17,3.17,0,0,1,2.33,1.31.23.23,0,0,1-.07.07c-1.8,1.83-3.14,5.93-3.44,10.88,0,.71-.08,1.43-.08,2.16s0,1.61.09,2.39c.34,4.92,1.69,9,3.5,10.72,0,.06-.09.13-.14.18a2.68,2.68,0,0,1-4.39,0c-2-2.17-3.41-7.23-3.43-13.15v-.14C72.13,49.64,73.43,44.71,75.32,42.38Z"/><path class="cls-1" d="M24.88,41.65a3.25,3.25,0,0,0-2.43-1.43,3.17,3.17,0,0,0-2.34,1.31.46.46,0,0,0,.07.07c1.81,1.83,3.14,5.93,3.45,10.89,0,.7.07,1.42.07,2.15s0,1.61-.09,2.39c-.33,4.92-1.69,9-3.5,10.72l.15.19a3,3,0,0,0,2.19,1.13,3,3,0,0,0,2.19-1.13c2-2.18,3.41-7.24,3.43-13.15v-.06s0-.06,0-.09C28.08,48.91,26.77,44,24.88,41.65Z"/><path class="cls-2" d="M84.9,46.51a.54.54,0,0,0-.07-.13,35.36,35.36,0,0,0-70.19,1.5,8.2,8.2,0,0,0-.12,1.32v.31c0,.63-.06,1.27-.06,1.91h.06v8.9A7.92,7.92,0,0,0,20,67.86a1.14,1.14,0,0,1,.11-.11C21.92,66,23.28,62,23.61,57c.06-.78.09-1.57.09-2.39s0-1.45-.07-2.15c-.31-5-1.64-9.06-3.45-10.89l-.16,0a8,8,0,0,0-2.22,1.13A33.18,33.18,0,0,1,82,43.24a7.84,7.84,0,0,0-1.8-.86L80,42.33c-1.8,1.83-3.14,5.93-3.44,10.88,0,.71-.08,1.43-.08,2.16s0,1.61.09,2.39c.34,4.92,1.69,9,3.5,10.72l.12.11a7.94,7.94,0,0,0,5.08-5.08,7.73,7.73,0,0,0,.4-2.46V49.93A7.81,7.81,0,0,0,84.9,46.51Z"/></g></svg>