<svg id="Ebene_1" data-name="Ebene 1" xmlns="http://www.w3.org/2000/svg" xmlns:xlink="http://www.w3.org/1999/xlink" viewBox="0 0 100 100"><defs><style>.cls-1{fill:#62697f;}.cls-2{fill:#efefef;}.cls-3{fill:url(#Unbenannter_Verlauf_20);}.cls-4{opacity:0.5;}.cls-5{fill:#a81004;}.cls-6{fill:#f95428;}</style><radialGradient id="Unbenannter_Verlauf_20" cx="49" cy="55.33" r="42.41" gradientUnits="userSpaceOnUse"><stop offset="0" stop-color="#fe8965"/><stop offset="0.28" stop-color="#fe8768"/><stop offset="0.51" stop-color="#fe8173"/><stop offset="0.73" stop-color="#fe7784"/><stop offset="0.94" stop-color="#ff6a9d"/><stop offset="1" stop-color="#ff65a5"/></radialGradient></defs><title>4</title><g id="Dead"><ellipse class="cls-1" cx="51.01" cy="13.78" rx="24.23" ry="8"/><ellipse class="cls-1" cx="51.01" cy="13.78" rx="24.23" ry="8"/><path class="cls-1" d="M84.62,40.54a4.48,4.48,0,0,1,3.34-2,4.32,4.32,0,0,1,3.2,1.8l-.09.09C88.59,43,86.76,48.6,86.34,55.4c-.06,1-.1,2-.1,3s.05,2.21.12,3.27c.46,6.75,2.32,12.29,4.8,14.71l-.2.25a3.69,3.69,0,0,1-6,0c-2.74-3-4.68-9.93-4.71-18v-.19C80.24,50.5,82,43.73,84.62,40.54Z"/><path class="cls-1" d="M15.45,39.54a4.48,4.48,0,0,0-3.33-2,4.33,4.33,0,0,0-3.21,1.8l.1.09c2.47,2.51,4.3,8.13,4.72,14.93.06,1,.1,2,.1,3s0,2.21-.12,3.27c-.46,6.75-2.31,12.29-4.8,14.71l.2.25a4.15,4.15,0,0,0,3,1.55,4.15,4.15,0,0,0,3-1.55c2.75-3,4.68-9.93,4.71-18v-.19C19.83,49.5,18,42.73,15.45,39.54Z"/><path class="cls-2" d="M97.76,46.2l-.1-.17a48.49,48.49,0,0,0-96.25,2,10.78,10.78,0,0,0-.17,1.81v.43c-.05.87-.07,1.74-.07,2.62h.07v12.2A10.88,10.88,0,0,0,8.75,75.48l.16-.14c2.49-2.42,4.34-8,4.8-14.71q.12-1.59.12-3.27c0-1,0-2-.1-3C13.31,47.6,11.48,42,9,39.47l-.23.07a11.19,11.19,0,0,0-3,1.55,45.5,45.5,0,0,1,88,.62,10.77,10.77,0,0,0-2.47-1.17l-.22-.07C88.59,43,86.76,48.6,86.34,55.4c-.06,1-.1,2-.1,3s.05,2.21.12,3.27c.46,6.75,2.32,12.29,4.81,14.71l.15.14a10.88,10.88,0,0,0,7.51-10.34V50.89A10.83,10.83,0,0,0,97.76,46.2Z"/><circle class="cls-3" cx="49" cy="55.33" r="42.41"/><path class="cls-4" d="M26.71,77.62a42.43,42.43,0,0,1-3.6-55.89A42.42,42.42,0,1,0,82.59,81.22,42.43,42.43,0,0,1,26.71,77.62Z"/><path class="cls-5" d="M65.37,77.17c0,3-1.4,4-3.73,4.24l-.12-.32c-1.5-3.78-4.25-6.32-7.4-6.32A6.91,6.91,0,0,0,49,77.32a7,7,0,0,0-5.13-2.55c-3.15,0-5.9,2.54-7.39,6.32a3.05,3.05,0,0,0-.13.32c-2.33-.21-3.73-1.24-3.73-4.24C32.62,70.31,40,64.75,49,64.75S65.37,70.31,65.37,77.17Z"/><path class="cls-6" d="M61.52,81.09l.12.32c-3,.27-7.55-.82-12.64-.82s-9.64,1.09-12.64.82a1.75,1.75,0,0,1,.12-.32c1.49-3.78,4.24-6.32,7.39-6.32A7,7,0,0,1,49,77.32a6.91,6.91,0,0,1,5.12-2.55C57.27,74.77,60,77.31,61.52,81.09Z"/><path d="M49,63.18c-9.9,0-17.95,6.28-17.95,14,0,3.55,1.74,5.5,5.17,5.8a32.14,32.14,0,0,0,6-.32A61.21,61.21,0,0,1,49,82.16a61.2,61.2,0,0,1,6.82.49,44.55,44.55,0,0,0,4.77.37,11.47,11.47,0,0,0,1.19,0c3.43-.3,5.16-2.25,5.16-5.8C66.94,69.46,58.89,63.18,49,63.18ZM49,79a63.59,63.59,0,0,0-7.18.51c-1.07.12-2.07.23-3,.3,1.32-2.18,3.14-3.48,5-3.48a5.47,5.47,0,0,1,4,2,1.56,1.56,0,0,0,1.17.52,1.59,1.59,0,0,0,1.17-.52,5.42,5.42,0,0,1,3.95-2c1.88,0,3.7,1.29,5,3.48-.9-.07-1.9-.18-3-.3A63.57,63.57,0,0,0,49,79Zm13.6.63c-1.86-4-5-6.44-8.48-6.44A7.91,7.91,0,0,0,49,75.14a7.93,7.93,0,0,0-5.13-1.94c-3.44,0-6.63,2.45-8.48,6.43-.82-.28-1.2-.92-1.2-2.46,0-6,6.64-10.85,14.81-10.85s14.8,4.87,14.8,10.85C63.8,78.71,63.42,79.35,62.6,79.64Z"/><path d="M34.83,55.65a1.57,1.57,0,0,0,2.23-2.22L32.33,48.7,37.06,44a1.57,1.57,0,0,0-2.23-2.22l-4.72,4.73-4.73-4.73A1.57,1.57,0,0,0,23.15,44l4.73,4.73-4.73,4.73a1.57,1.57,0,0,0,1.12,2.68,1.56,1.56,0,0,0,1.11-.46l4.73-4.72Z"/><path d="M74.84,41.75a1.59,1.59,0,0,0-2.23,0l-4.72,4.73-4.73-4.73a1.58,1.58,0,0,0-2.22,0,1.56,1.56,0,0,0,0,2.22l4.72,4.73-4.72,4.73a1.57,1.57,0,1,0,2.22,2.22l4.73-4.72,4.73,4.72a1.53,1.53,0,0,0,1.11.46,1.56,1.56,0,0,0,1.11-.46,1.58,1.58,0,0,0,0-2.22L70.11,48.7,74.84,44A1.58,1.58,0,0,0,74.84,41.75Z"/><path class="cls-1" d="M84.62,40.54a4.48,4.48,0,0,1,3.34-2,4.32,4.32,0,0,1,3.2,1.8l-.09.09C88.59,43,86.76,48.6,86.34,55.4c-.06,1-.1,2-.1,3s.05,2.21.12,3.27c.46,6.75,2.32,12.29,4.8,14.71l-.2.25a3.69,3.69,0,0,1-6,0c-2.74-3-4.68-9.93-4.71-18v-.19C80.24,50.5,82,43.73,84.62,40.54Z"/><path class="cls-1" d="M15.45,39.54a4.48,4.48,0,0,0-3.33-2,4.33,4.33,0,0,0-3.21,1.8l.1.09c2.47,2.51,4.3,8.13,4.72,14.93.06,1,.1,2,.1,3s0,2.21-.12,3.27c-.46,6.75-2.31,12.29-4.8,14.71l.2.25a4.15,4.15,0,0,0,3,1.55,4.15,4.15,0,0,0,3-1.55c2.75-3,4.68-9.93,4.71-18v-.19C19.83,49.5,18,42.73,15.45,39.54Z"/><path class="cls-2" d="M97.76,46.2l-.1-.17a48.49,48.49,0,0,0-96.25,2,10.78,10.78,0,0,0-.17,1.81v.43c-.05.87-.07,1.74-.07,2.62h.07v12.2A10.88,10.88,0,0,0,8.75,75.48l.16-.14c2.49-2.42,4.34-8,4.8-14.71q.12-1.59.12-3.27c0-1,0-2-.1-3C13.31,47.6,11.48,42,9,39.47l-.23.07a11.19,11.19,0,0,0-3,1.55,45.5,45.5,0,0,1,88,.62,10.77,10.77,0,0,0-2.47-1.17l-.22-.07C88.59,43,86.76,48.6,86.34,55.4c-.06,1-.1,2-.1,3s.05,2.21.12,3.27c.46,6.75,2.32,12.29,4.81,14.71l.15.14a10.88,10.88,0,0,0,7.51-10.34V50.89A10.83,10.83,0,0,0,97.76,46.2Z"/></g></svg>