<svg id="Ebene_1" data-name="Ebene 1" xmlns="http://www.w3.org/2000/svg" xmlns:xlink="http://www.w3.org/1999/xlink" viewBox="0 0 100 100"><defs><style>.cls-1{fill:#62697f;}.cls-2{fill:url(#Unbenannter_Verlauf_20);}.cls-3{opacity:0.5;}.cls-4{fill:#efefef;}.cls-5{fill:#f95428;}.cls-6{fill:#fff;}</style><radialGradient id="Unbenannter_Verlauf_20" cx="49.58" cy="54.19" r="42" gradientUnits="userSpaceOnUse"><stop offset="0" stop-color="#fe8965"/><stop offset="0.28" stop-color="#fe8768"/><stop offset="0.51" stop-color="#fe8173"/><stop offset="0.73" stop-color="#fe7784"/><stop offset="0.94" stop-color="#ff6a9d"/><stop offset="1" stop-color="#ff65a5"/></radialGradient></defs><title>5</title><g id="Kiss"><ellipse class="cls-1" cx="49.01" cy="13.78" rx="24.23" ry="8"/><circle class="cls-2" cx="49.58" cy="54.19" r="42"/><path class="cls-3" d="M27.51,76.25a42,42,0,0,1-3.57-55.34,41.27,41.27,0,0,0-4.06,3.58,42,42,0,0,0,59.4,59.4,43.76,43.76,0,0,0,3.57-4.06A42,42,0,0,1,27.51,76.25Z"/><path d="M39.82,51.89a1.54,1.54,0,0,1-1.33-.76,7.73,7.73,0,0,0-13.26,0,1.55,1.55,0,0,1-2.67-1.59,10.83,10.83,0,0,1,18.6,0,1.56,1.56,0,0,1-1.34,2.35Z"/><path d="M75.26,51.89a1.57,1.57,0,0,1-1.34-.76,7.72,7.72,0,0,0-13.25,0A1.55,1.55,0,1,1,58,49.54a10.83,10.83,0,0,1,18.6,0,1.56,1.56,0,0,1-1.34,2.35Z"/><path d="M52.49,78.19a1.56,1.56,0,1,1,0-3.11,3.29,3.29,0,0,0,0-6.57,1.56,1.56,0,1,1,0-3.12,3.29,3.29,0,0,0,0-6.57,1.56,1.56,0,1,1,0-3.11A6.4,6.4,0,0,1,56.67,67a6.4,6.4,0,0,1-4.18,11.24Z"/><path class="cls-1" d="M84.2,40.54a4.48,4.48,0,0,1,3.34-2,4.35,4.35,0,0,1,3.21,1.8l-.1.09C88.17,43,86.34,48.6,85.92,55.4c-.06,1-.1,2-.1,3s.05,2.21.12,3.27c.46,6.75,2.32,12.29,4.81,14.71l-.21.25a3.69,3.69,0,0,1-6,0c-2.74-3-4.68-9.93-4.71-18v-.19C79.82,50.5,81.61,43.73,84.2,40.54Z"/><path class="cls-1" d="M15,39.54a4.48,4.48,0,0,0-3.33-2,4.33,4.33,0,0,0-3.21,1.8l.1.09c2.47,2.51,4.3,8.13,4.72,14.93.06,1,.1,2,.1,3s0,2.21-.12,3.27c-.46,6.75-2.31,12.29-4.8,14.71l.2.25a4.15,4.15,0,0,0,3,1.55,4.15,4.15,0,0,0,3-1.55c2.75-3,4.68-9.93,4.71-18v-.19C19.41,49.5,17.62,42.73,15,39.54Z"/><path class="cls-4" d="M97.34,46.2l-.1-.17A48.49,48.49,0,0,0,1,48.08a10.78,10.78,0,0,0-.17,1.81v.43c0,.87-.07,1.74-.07,2.62H.82v12.2A10.88,10.88,0,0,0,8.33,75.48l.16-.14c2.49-2.42,4.34-8,4.8-14.71q.12-1.59.12-3.27c0-1,0-2-.1-3C12.89,47.6,11.06,42,8.59,39.47l-.23.07a11.19,11.19,0,0,0-3,1.55,45.5,45.5,0,0,1,88,.62,10.9,10.9,0,0,0-2.46-1.17l-.23-.07C88.17,43,86.34,48.6,85.92,55.4c-.06,1-.1,2-.1,3s.05,2.21.12,3.27c.46,6.75,2.32,12.29,4.81,14.71l.15.14a10.88,10.88,0,0,0,7.51-10.34V50.89A10.83,10.83,0,0,0,97.34,46.2Z"/><path class="cls-5" d="M74.77,59.52h0A6.49,6.49,0,0,0,66,56.76h0a6.5,6.5,0,0,0-2.76,8.77h0l6,11.52,11.52-6h0a6.49,6.49,0,0,0,2.75-8.76h0a6.5,6.5,0,0,0-8.77-2.75Z"/><path class="cls-6" d="M69.27,78.61a1.5,1.5,0,0,1-.47-.08,1.52,1.52,0,0,1-.91-.76l-6-11.52a8.06,8.06,0,0,1,13.51-8.66,8.06,8.06,0,0,1,6.13,14.83L70,78.43A1.54,1.54,0,0,1,69.27,78.61Zm-.27-21a4.75,4.75,0,0,0-2.27.57,4.94,4.94,0,0,0-2.1,6.66L69.93,75l10.13-5.3a4.94,4.94,0,1,0-4.57-8.75,1.56,1.56,0,0,1-2.1-.66A4.94,4.94,0,0,0,69,57.58Z"/></g></svg>