<svg id="Ebene_1" data-name="Ebene 1" xmlns="http://www.w3.org/2000/svg" xmlns:xlink="http://www.w3.org/1999/xlink" viewBox="0 0 100 100"><defs><style>.cls-1{fill:#62697f;}.cls-2{fill:url(#Unbenannter_Verlauf_20);}.cls-3{opacity:0.5;}.cls-4{fill:#efefef;}.cls-5{fill:#f95428;}.cls-6{fill:#fff;}</style><radialGradient id="Unbenannter_Verlauf_20" cx="50.08" cy="52.9" r="30.63" gradientUnits="userSpaceOnUse"><stop offset="0" stop-color="#fe8965"/><stop offset="0.28" stop-color="#fe8768"/><stop offset="0.51" stop-color="#fe8173"/><stop offset="0.73" stop-color="#fe7784"/><stop offset="0.94" stop-color="#ff6a9d"/><stop offset="1" stop-color="#ff65a5"/></radialGradient></defs><title>5</title><g id="Kiss"><ellipse class="cls-1" cx="49.66" cy="23.43" rx="17.67" ry="5.83"/><circle class="cls-2" cx="50.08" cy="52.9" r="30.63"/><path class="cls-3" d="M34,69a30.64,30.64,0,0,1-2.6-40.36,31.58,31.58,0,0,0-3,2.61A30.63,30.63,0,0,0,71.73,74.56a32.72,32.72,0,0,0,2.61-3A30.64,30.64,0,0,1,34,69Z"/><path d="M43,51.22a1.13,1.13,0,0,1-1-.55,5.63,5.63,0,0,0-9.66,0,1.13,1.13,0,0,1-1.95-1.16,7.89,7.89,0,0,1,13.56,0,1.13,1.13,0,0,1-.39,1.55A1.1,1.1,0,0,1,43,51.22Z"/><path d="M68.8,51.22a1.12,1.12,0,0,1-1-.55,5.63,5.63,0,0,0-9.66,0,1.13,1.13,0,0,1-1.56.39,1.12,1.12,0,0,1-.39-1.55,7.89,7.89,0,0,1,13.56,0,1.13,1.13,0,0,1-.4,1.55A1.1,1.1,0,0,1,68.8,51.22Z"/><path d="M52.2,70.4a1.14,1.14,0,1,1,0-2.27,2.4,2.4,0,0,0,0-4.79,1.14,1.14,0,1,1,0-2.27,2.4,2.4,0,0,0,0-4.79,1.14,1.14,0,1,1,0-2.27,4.67,4.67,0,0,1,3,8.2,4.66,4.66,0,0,1-3,8.19Z"/><path class="cls-1" d="M75.32,43a3.25,3.25,0,0,1,2.44-1.43,3.14,3.14,0,0,1,2.33,1.31L80,42.9c-1.8,1.82-3.14,5.93-3.44,10.88,0,.71-.08,1.42-.08,2.16s0,1.61.09,2.39c.34,4.92,1.69,9,3.5,10.72,0,.06-.09.13-.14.18a2.68,2.68,0,0,1-4.39,0c-2-2.17-3.41-7.23-3.43-13.15v-.14C72.13,50.21,73.43,45.28,75.32,43Z"/><path class="cls-1" d="M24.88,42.22a3.25,3.25,0,0,0-2.43-1.43,3.17,3.17,0,0,0-2.34,1.31.46.46,0,0,1,.07.07C22,44,23.32,48.1,23.63,53.05c0,.71.07,1.43.07,2.16s0,1.61-.09,2.39c-.33,4.92-1.69,9-3.5,10.72.05.06.1.13.15.18a3,3,0,0,0,2.19,1.14,3,3,0,0,0,2.19-1.14c2-2.17,3.41-7.23,3.43-13.15V55.3s0-.06,0-.09C28.08,49.48,26.77,44.55,24.88,42.22Z"/><path class="cls-4" d="M84.9,47.08a.54.54,0,0,0-.07-.13,35.36,35.36,0,0,0-70.19,1.5,8.1,8.1,0,0,0-.12,1.32v.31c0,.63-.06,1.27-.06,1.91h.06v8.9A7.92,7.92,0,0,0,20,68.43a1.14,1.14,0,0,1,.11-.11c1.81-1.76,3.17-5.8,3.5-10.72.06-.78.09-1.57.09-2.39s0-1.45-.07-2.16c-.31-4.95-1.64-9-3.45-10.88l-.16,0a7.75,7.75,0,0,0-2.22,1.13A33.18,33.18,0,0,1,82,43.8a7.81,7.81,0,0,0-1.8-.85L80,42.9c-1.8,1.82-3.14,5.93-3.44,10.88,0,.71-.08,1.42-.08,2.16s0,1.61.09,2.39c.34,4.92,1.69,9,3.5,10.72l.12.11a8,8,0,0,0,5.08-5.08,7.73,7.73,0,0,0,.4-2.46V50.49A7.8,7.8,0,0,0,84.9,47.08Z"/><path class="cls-5" d="M68.45,56.79h0a4.75,4.75,0,0,0-6.4-2h0a4.72,4.72,0,0,0-2,6.39h0l4.38,8.4,8.4-4.39h0a4.74,4.74,0,0,0,2-6.39h0a4.73,4.73,0,0,0-6.39-2Z"/><path class="cls-6" d="M64.43,70.71a1,1,0,0,1-.34-.06,1.1,1.1,0,0,1-.66-.55L59,61.7a5.87,5.87,0,0,1,9.85-6.32,5.87,5.87,0,0,1,4.47,10.81L65,70.58A1.25,1.25,0,0,1,64.43,70.71Zm-.19-15.33a3.54,3.54,0,0,0-1.66.41,3.6,3.6,0,0,0-1.53,4.86L64.91,68l7.4-3.86A3.61,3.61,0,0,0,69,57.79a1.13,1.13,0,0,1-1.53-.48A3.6,3.6,0,0,0,64.24,55.38Z"/></g></svg>