<svg id="Ebene_1" data-name="Ebene 1" xmlns="http://www.w3.org/2000/svg" xmlns:xlink="http://www.w3.org/1999/xlink" viewBox="0 0 100 100"><defs><style>.cls-1{fill:#62697f;}.cls-2{fill:url(#Unbenannter_Verlauf_20);}.cls-3{opacity:0.5;}.cls-4{fill:#fff;}.cls-5{fill:#f95428;}.cls-6{fill:#a81004;}.cls-7{fill:#efefef;}</style><radialGradient id="Unbenannter_Verlauf_20" cx="49.84" cy="52.75" r="31.03" gradientUnits="userSpaceOnUse"><stop offset="0" stop-color="#fe8965"/><stop offset="0.28" stop-color="#fe8768"/><stop offset="0.51" stop-color="#fe8173"/><stop offset="0.73" stop-color="#fe7784"/><stop offset="0.94" stop-color="#ff6a9d"/><stop offset="1" stop-color="#ff65a5"/></radialGradient></defs><title>6</title><g id="Happy"><ellipse class="cls-1" cx="49.84" cy="22.87" rx="17.67" ry="5.83"/><circle class="cls-2" cx="49.84" cy="52.75" r="31.03"/><path class="cls-3" d="M33.53,69.05a31,31,0,0,1-2.64-40.89,33.73,33.73,0,0,0-3,2.64A31,31,0,0,0,71.78,74.69a29.68,29.68,0,0,0,2.64-3A31,31,0,0,1,33.53,69.05Z"/><path class="cls-4" d="M64.58,47.63V53a20.86,20.86,0,0,1-29.49,0V47.63A20.84,20.84,0,0,0,64.58,47.63Z"/><path class="cls-5" d="M53.59,62.91a6.32,6.32,0,0,1,5.54,3.3,14.73,14.73,0,0,1-18.58,0,6.3,6.3,0,0,1,9.29-2.06A6.25,6.25,0,0,1,53.59,62.91Z"/><path class="cls-6" d="M64.58,53v1.75a14.71,14.71,0,0,1-4.32,10.43c-.36.36-.74.7-1.13,1a6.32,6.32,0,0,0-5.54-3.3,6.25,6.25,0,0,0-3.75,1.24,6.3,6.3,0,0,0-9.29,2.06,14.71,14.71,0,0,1-5.46-11.45V53A20.86,20.86,0,0,0,64.58,53Z"/><path d="M39.24,43.74a1.15,1.15,0,0,0,2.3,0,7.29,7.29,0,1,0-14.57,0,1.15,1.15,0,1,0,2.3,0,5,5,0,0,1,10,0Z"/><path d="M65.42,36.45a7.29,7.29,0,0,0-7.28,7.29,1.15,1.15,0,0,0,2.3,0,5,5,0,0,1,10,0,1.15,1.15,0,1,0,2.3,0A7.3,7.3,0,0,0,65.42,36.45Z"/><path d="M65,46.57a1.14,1.14,0,0,0-1.25.25,19.7,19.7,0,0,1-27.86,0,1.15,1.15,0,0,0-2,.81v7.13A15.9,15.9,0,0,0,59.85,67.11,16.42,16.42,0,0,0,61.08,66a15.78,15.78,0,0,0,4.65-11.24V47.63A1.15,1.15,0,0,0,65,46.57ZM49.84,54.89a21.81,21.81,0,0,0,13.59-4.7v2.33a19.71,19.71,0,0,1-27.19,0V50.19A21.85,21.85,0,0,0,49.84,54.89Zm-7.73,11a5.18,5.18,0,0,1,4-1.88,5.05,5.05,0,0,1,3.06,1,1.17,1.17,0,0,0,1.38,0,5.05,5.05,0,0,1,3.06-1,5.14,5.14,0,0,1,4,1.88,13.54,13.54,0,0,1-15.45,0Zm17.34-1.56-.11.1a7.45,7.45,0,0,0-5.75-2.72,7.33,7.33,0,0,0-3.75,1,7.43,7.43,0,0,0-9.5,1.7,13.5,13.5,0,0,1-4.07-8.9,22.05,22.05,0,0,0,27.14,0A13.55,13.55,0,0,1,59.45,64.38Z"/><path class="cls-1" d="M75.32,42.39A3.25,3.25,0,0,1,77.76,41a3.15,3.15,0,0,1,2.33,1.32l-.07.06c-1.8,1.83-3.14,5.93-3.44,10.89,0,.7-.08,1.42-.08,2.16s0,1.61.09,2.38c.34,4.92,1.69,9,3.5,10.73,0,0-.09.12-.14.18a2.7,2.7,0,0,1-4.39,0c-2-2.18-3.41-7.24-3.43-13.15v-.14C72.13,49.66,73.43,44.72,75.32,42.39Z"/><path class="cls-1" d="M24.88,41.66a3.28,3.28,0,0,0-2.43-1.43,3.15,3.15,0,0,0-2.34,1.32l.07.06c1.81,1.83,3.14,5.93,3.45,10.89,0,.7.07,1.42.07,2.16s0,1.61-.09,2.39c-.33,4.91-1.69,9-3.5,10.72.05,0,.1.12.15.18a3,3,0,0,0,2.19,1.13A3,3,0,0,0,24.64,68c2-2.17,3.41-7.24,3.43-13.15v-.06s0-.05,0-.08C28.08,48.93,26.77,44,24.88,41.66Z"/><path class="cls-7" d="M84.9,46.52l-.07-.13a35.36,35.36,0,0,0-70.19,1.5,8.2,8.2,0,0,0-.12,1.32v.31c0,.64-.06,1.27-.06,1.91h.06v8.9A7.92,7.92,0,0,0,20,67.87l.11-.1C21.92,66,23.28,62,23.61,57.05c.06-.78.09-1.58.09-2.39s0-1.46-.07-2.16c-.31-5-1.64-9.06-3.45-10.89l-.16,0a8,8,0,0,0-2.22,1.13A33.18,33.18,0,0,1,82,43.25a7.84,7.84,0,0,0-1.8-.86l-.17,0c-1.8,1.83-3.14,5.93-3.44,10.89,0,.7-.08,1.42-.08,2.16s0,1.61.09,2.38c.34,4.92,1.69,9,3.5,10.73l.12.1a7.94,7.94,0,0,0,5.08-5.08,7.69,7.69,0,0,0,.4-2.46V49.94A7.85,7.85,0,0,0,84.9,46.52Z"/></g></svg>