<svg id="Ebene_1" data-name="Ebene 1" xmlns="http://www.w3.org/2000/svg" xmlns:xlink="http://www.w3.org/1999/xlink" viewBox="0 0 100 100"><defs><style>.cls-1{fill:#62697f;}.cls-2{fill:url(#Unbenannter_Verlauf_20);}.cls-3{opacity:0.5;}.cls-4{fill:#fff;}.cls-5{fill:#f95428;}.cls-6{fill:#a81004;}.cls-7{fill:#efefef;}</style><radialGradient id="Unbenannter_Verlauf_20" cx="50.01" cy="54.74" r="42.56" gradientUnits="userSpaceOnUse"><stop offset="0" stop-color="#fe8965"/><stop offset="0.28" stop-color="#fe8768"/><stop offset="0.51" stop-color="#fe8173"/><stop offset="0.73" stop-color="#fe7784"/><stop offset="0.94" stop-color="#ff6a9d"/><stop offset="1" stop-color="#ff65a5"/></radialGradient></defs><title>6</title><g id="Happy"><ellipse class="cls-1" cx="50.01" cy="13.78" rx="24.23" ry="8"/><circle class="cls-2" cx="50.01" cy="54.74" r="42.56"/><path class="cls-3" d="M27.65,77.1A42.56,42.56,0,0,1,24,21,42.56,42.56,0,1,0,80.1,84.83a43.63,43.63,0,0,0,3.62-4.11A42.56,42.56,0,0,1,27.65,77.1Z"/><path class="cls-4" d="M70.22,47.73V55.1a28.6,28.6,0,0,1-40.43,0V47.73A28.6,28.6,0,0,0,70.22,47.73Z"/><path class="cls-5" d="M55.15,68.68a8.62,8.62,0,0,1,7.59,4.53,20.24,20.24,0,0,1-25.47,0A8.63,8.63,0,0,1,50,70.38,8.55,8.55,0,0,1,55.15,68.68Z"/><path class="cls-6" d="M70.22,55.1v2.4A20.15,20.15,0,0,1,64.3,71.8a19.08,19.08,0,0,1-1.56,1.41A8.62,8.62,0,0,0,50,70.38a8.63,8.63,0,0,0-12.74,2.83A20.18,20.18,0,0,1,29.79,57.5V55.1A28.6,28.6,0,0,0,70.22,55.1Z"/><path d="M35.47,42.39a1.58,1.58,0,0,0,3.16,0,10,10,0,0,0-20,0,1.58,1.58,0,1,0,3.15,0,6.84,6.84,0,1,1,13.67,0Z"/><path d="M71.38,32.4a10,10,0,0,0-10,10,1.58,1.58,0,0,0,3.16,0,6.84,6.84,0,1,1,13.67,0,1.58,1.58,0,0,0,3.16,0A10,10,0,0,0,71.38,32.4Z"/><path d="M70.83,46.27a1.57,1.57,0,0,0-1.72.34,27,27,0,0,1-38.21,0,1.58,1.58,0,0,0-2.69,1.12V57.5A21.79,21.79,0,0,0,63.73,74.43a20.52,20.52,0,0,0,1.69-1.52A21.65,21.65,0,0,0,71.8,57.5V47.73A1.57,1.57,0,0,0,70.83,46.27ZM50,57.68a30,30,0,0,0,18.64-6.44v3.19a27.06,27.06,0,0,1-37.29,0V51.24A30,30,0,0,0,50,57.68ZM39.41,72.84a7,7,0,0,1,9.65-1.19,1.61,1.61,0,0,0,1.89,0,7,7,0,0,1,9.65,1.19,18.66,18.66,0,0,1-21.19,0Zm23.77-2.15-.14.14a10.21,10.21,0,0,0-13-2.34,10.21,10.21,0,0,0-13,2.34,18.53,18.53,0,0,1-5.58-12.2,30.21,30.21,0,0,0,37.21,0A18.5,18.5,0,0,1,63.18,70.69Z"/><path class="cls-1" d="M85,40.54a4.48,4.48,0,0,1,3.34-2,4.35,4.35,0,0,1,3.21,1.8l-.1.09C88.92,43,87.09,48.6,86.67,55.4c-.06,1-.1,2-.1,3s.05,2.21.12,3.27c.46,6.75,2.32,12.29,4.81,14.71l-.21.25a3.69,3.69,0,0,1-6,0c-2.74-3-4.68-9.93-4.71-18v-.19C80.57,50.5,82.36,43.73,85,40.54Z"/><path class="cls-1" d="M15.78,39.54a4.48,4.48,0,0,0-3.33-2,4.33,4.33,0,0,0-3.21,1.8l.1.09c2.47,2.51,4.3,8.13,4.72,14.93.06,1,.1,2,.1,3s0,2.21-.12,3.27c-.46,6.75-2.31,12.29-4.8,14.71l.2.25a4.15,4.15,0,0,0,3,1.55,4.15,4.15,0,0,0,3-1.55c2.75-3,4.68-9.93,4.71-18v-.19C20.16,49.5,18.37,42.73,15.78,39.54Z"/><path class="cls-7" d="M98.09,46.2,98,46a48.49,48.49,0,0,0-96.25,2,10.78,10.78,0,0,0-.17,1.81v.43c-.05.87-.07,1.74-.07,2.62h.07v12.2A10.88,10.88,0,0,0,9.08,75.48l.16-.14c2.49-2.42,4.34-8,4.8-14.71q.12-1.59.12-3.27c0-1,0-2-.1-3C13.64,47.6,11.81,42,9.34,39.47l-.23.07a11.19,11.19,0,0,0-3,1.55,45.5,45.5,0,0,1,88,.62,10.9,10.9,0,0,0-2.46-1.17l-.23-.07C88.92,43,87.09,48.6,86.67,55.4c-.06,1-.1,2-.1,3s.05,2.21.12,3.27c.46,6.75,2.32,12.29,4.81,14.71l.15.14a10.88,10.88,0,0,0,7.51-10.34V50.89A10.83,10.83,0,0,0,98.09,46.2Z"/></g></svg>