<svg id="Ebene_1" data-name="Ebene 1" xmlns="http://www.w3.org/2000/svg" xmlns:xlink="http://www.w3.org/1999/xlink" viewBox="0 0 100 100"><defs><style>.cls-1{fill:#62697f;}.cls-2{fill:url(#Unbenannter_Verlauf_20);}.cls-3{opacity:0.5;}.cls-4{fill:#fff;}.cls-5{fill:#a81004;}.cls-6{fill:#f95428;}.cls-7{fill:#efefef;}</style><radialGradient id="Unbenannter_Verlauf_20" cx="50.02" cy="55.33" r="43.15" gradientUnits="userSpaceOnUse"><stop offset="0" stop-color="#fe8965"/><stop offset="0.28" stop-color="#fe8768"/><stop offset="0.51" stop-color="#fe8173"/><stop offset="0.73" stop-color="#fe7784"/><stop offset="0.94" stop-color="#ff6a9d"/><stop offset="1" stop-color="#ff65a5"/></radialGradient></defs><title>7</title><g id="Happy_2" data-name="Happy 2"><ellipse class="cls-1" cx="50.01" cy="13.78" rx="24.23" ry="8"/><circle class="cls-2" cx="50.02" cy="55.33" r="43.15"/><path class="cls-3" d="M27.35,78a43.15,43.15,0,0,1-3.67-56.85A43.15,43.15,0,1,0,84.2,81.67,43.15,43.15,0,0,1,27.35,78Z"/><path class="cls-4" d="M28.27,56.84h43.5a21.78,21.78,0,0,1-1.14,7H29.41A21.78,21.78,0,0,1,28.27,56.84Z"/><path class="cls-5" d="M29.41,63.82H70.63a21.85,21.85,0,0,1-7.87,10.65A8.74,8.74,0,0,0,50,71.91a8.74,8.74,0,0,0-12.74,2.56A21.85,21.85,0,0,1,29.41,63.82Z"/><path class="cls-6" d="M55.24,70.18a8.74,8.74,0,0,1,7.52,4.29,21.76,21.76,0,0,1-25.48,0A8.74,8.74,0,0,1,50,71.91,8.74,8.74,0,0,1,55.24,70.18Z"/><path d="M71.77,55.24H28.27a1.6,1.6,0,0,0-1.6,1.6,23.36,23.36,0,0,0,45.47,7.49h0a23.2,23.2,0,0,0,1.23-7.49A1.6,1.6,0,0,0,71.77,55.24Zm-1.66,3.2a20.24,20.24,0,0,1-.67,3.78H30.6a20.24,20.24,0,0,1-.67-3.78ZM39.57,74.07a7.2,7.2,0,0,1,5.23-2.29,7.07,7.07,0,0,1,4.26,1.41,1.59,1.59,0,0,0,1.92,0,7.07,7.07,0,0,1,4.26-1.41,7.17,7.17,0,0,1,5.23,2.29,20.16,20.16,0,0,1-20.9,0Zm23.5-1.88A10.32,10.32,0,0,0,50,70,10.32,10.32,0,0,0,37,72.19a20,20,0,0,1-5.19-6.77H68.26A20,20,0,0,1,63.07,72.19Z"/><path d="M41.45,47.27a1.6,1.6,0,0,0-.64-1.66l-9.49-6.68a1.6,1.6,0,0,0-1.84,2.62L35.77,46l-13.2,2.18a1.6,1.6,0,0,0,.26,3.18l.26,0,17.06-2.82A1.59,1.59,0,0,0,41.45,47.27Z"/><path d="M77.47,48.15,64.27,46l6.29-4.42a1.6,1.6,0,0,0-1.84-2.62l-9.49,6.68a1.59,1.59,0,0,0,.66,2.88L77,51.31l.26,0a1.6,1.6,0,0,0,.26-3.18Z"/><g id="Happy_2-2" data-name="Happy 2"><path class="cls-1" d="M85,40.54a4.48,4.48,0,0,1,3.34-2,4.35,4.35,0,0,1,3.21,1.8l-.1.09C88.92,43,87.09,48.6,86.67,55.4c-.06,1-.1,2-.1,3s.05,2.21.12,3.27c.46,6.75,2.32,12.29,4.81,14.71l-.21.25a3.69,3.69,0,0,1-6,0c-2.74-3-4.68-9.93-4.71-18v-.19C80.57,50.5,82.36,43.73,85,40.54Z"/><path class="cls-1" d="M15.78,39.54a4.48,4.48,0,0,0-3.33-2,4.33,4.33,0,0,0-3.21,1.8l.1.09c2.47,2.51,4.3,8.13,4.72,14.93.06,1,.1,2,.1,3s0,2.21-.12,3.27c-.46,6.75-2.31,12.29-4.8,14.71l.2.25a4.15,4.15,0,0,0,3,1.55,4.15,4.15,0,0,0,3-1.55c2.75-3,4.68-9.93,4.71-18v-.19C20.16,49.5,18.37,42.73,15.78,39.54Z"/><path class="cls-7" d="M98.09,46.2,98,46a48.49,48.49,0,0,0-96.25,2,10.78,10.78,0,0,0-.17,1.81v.43c-.05.87-.07,1.74-.07,2.62h.07v12.2A10.88,10.88,0,0,0,9.08,75.48l.16-.14c2.49-2.42,4.34-8,4.8-14.71q.12-1.59.12-3.27c0-1,0-2-.1-3C13.64,47.6,11.81,42,9.34,39.47l-.23.07a11.19,11.19,0,0,0-3,1.55,45.5,45.5,0,0,1,88,.62,10.9,10.9,0,0,0-2.46-1.17l-.23-.07C88.92,43,87.09,48.6,86.67,55.4c-.06,1-.1,2-.1,3s.05,2.21.12,3.27c.46,6.75,2.32,12.29,4.81,14.71l.15.14a10.88,10.88,0,0,0,7.51-10.34V50.89A10.83,10.83,0,0,0,98.09,46.2Z"/></g></g></svg>