<svg id="Ebene_1" data-name="Ebene 1" xmlns="http://www.w3.org/2000/svg" xmlns:xlink="http://www.w3.org/1999/xlink" viewBox="0 0 100 100"><defs><style>.cls-1{fill:#62697f;}.cls-2{fill:url(#Unbenannter_Verlauf_20);}.cls-3{opacity:0.5;}.cls-4{fill:#a81004;}.cls-5{fill:#fff;}.cls-6{fill:#f95428;}.cls-7{fill:#efefef;}</style><radialGradient id="Unbenannter_Verlauf_20" cx="48.96" cy="54.03" r="30.18" gradientUnits="userSpaceOnUse"><stop offset="0" stop-color="#fe8965"/><stop offset="0.28" stop-color="#fe8768"/><stop offset="0.51" stop-color="#fe8173"/><stop offset="0.73" stop-color="#fe7784"/><stop offset="0.94" stop-color="#ff6a9d"/><stop offset="1" stop-color="#ff65a5"/></radialGradient></defs><title>8</title><g id="Sad"><ellipse class="cls-1" cx="49.69" cy="22.74" rx="17.67" ry="5.83"/><circle class="cls-2" cx="48.96" cy="54.03" r="30.18"/><path class="cls-3" d="M33.1,69.89a30.2,30.2,0,0,1-2.57-39.77,31.85,31.85,0,0,0-2.91,2.57A30.18,30.18,0,1,0,70.3,75.38a30.51,30.51,0,0,0,2.57-2.92A30.2,30.2,0,0,1,33.1,69.89Z"/><path class="cls-3" d="M54,72.48a1,1,0,0,1-.3,0,17.69,17.69,0,0,0-9.52,0,1.12,1.12,0,1,1-.6-2.15,19.72,19.72,0,0,1,10.72,0,1.11,1.11,0,0,1-.3,2.19Z"/><path class="cls-4" d="M67.45,62.6l-.06.18,0,.13a6.59,6.59,0,0,1-3.52,3.78v0c-.06-.12-.13-.23-.2-.35A10.06,10.06,0,0,0,49,63.37,10.06,10.06,0,0,0,34.3,66.31l-.21.35v0a6.61,6.61,0,0,1-3.51-3.78l0-.13a1.27,1.27,0,0,1-.06-.18,6.51,6.51,0,0,1,4.75-4.35,61.24,61.24,0,0,1,27.47,0A6.54,6.54,0,0,1,67.45,62.6Z"/><path class="cls-5" d="M62.69,54.16a6.55,6.55,0,0,1,4.76,8.44,6.54,6.54,0,0,0-4.76-4.35,61.24,61.24,0,0,0-27.47,0,6.51,6.51,0,0,0-4.75,4.35,6.55,6.55,0,0,1,4.75-8.44A61.24,61.24,0,0,1,62.69,54.16Z"/><path class="cls-6" d="M63.62,66.31c.07.12.14.23.2.35v0h0a6.54,6.54,0,0,1-4.11.4,48,48,0,0,0-21.52,0,6.57,6.57,0,0,1-4.12-.4h0v0l.21-.35A10.06,10.06,0,0,1,49,63.37a10.06,10.06,0,0,1,14.66,2.94Z"/><path d="M42.21,47.07a1.12,1.12,0,0,0-.4-1.25,20.07,20.07,0,0,0-11.17-3.35,1.12,1.12,0,1,0,0,2.23,18.53,18.53,0,0,1,6.54,1.23A48.44,48.44,0,0,0,26.6,49.05,1.13,1.13,0,0,0,26,50.53a1.14,1.14,0,0,0,1,.66,1.2,1.2,0,0,0,.45-.09c.07,0,7.46-3.26,13.64-3.26A1.12,1.12,0,0,0,42.21,47.07Z"/><path d="M71.31,49.05a48.23,48.23,0,0,0-10.58-3.12,18.45,18.45,0,0,1,6.55-1.23,1.12,1.12,0,1,0,0-2.23A20.16,20.16,0,0,0,56.1,45.82a1.12,1.12,0,0,0,.67,2c6.16,0,13.55,3.22,13.64,3.26a1.2,1.2,0,0,0,.45.09,1.13,1.13,0,0,0,1-.67A1.11,1.11,0,0,0,71.31,49.05Z"/><path d="M62.94,53.06a62.88,62.88,0,0,0-28,0A7.69,7.69,0,0,0,29.4,63c0,.06.05.13.07.21l.05.12a7.69,7.69,0,0,0,4.05,4.4l.06,0a7.61,7.61,0,0,0,4.82.47,47.2,47.2,0,0,1,21,0,7.7,7.7,0,0,0,4.82-.47l0,0a7.71,7.71,0,0,0,4.06-4.4l0-.13a1.18,1.18,0,0,1,.07-.2,7.7,7.7,0,0,0-5.58-9.89ZM35.48,55.25a60.44,60.44,0,0,1,27,0A5.34,5.34,0,0,1,66,57.87,5.22,5.22,0,0,1,66.43,59a7.54,7.54,0,0,0-3.49-1.83,62.88,62.88,0,0,0-28,0A7.55,7.55,0,0,0,31.49,59,5.22,5.22,0,0,1,32,57.87,5.34,5.34,0,0,1,35.48,55.25ZM60,66a49.5,49.5,0,0,0-22,0,5.32,5.32,0,0,1-2.14,0A9,9,0,0,1,43,62.5a8.91,8.91,0,0,1,5.34,1.76,1.11,1.11,0,0,0,1.34,0A8.88,8.88,0,0,1,55,62.5a9,9,0,0,1,7.14,3.56A5.47,5.47,0,0,1,60,66Zm4.26-.81A11.22,11.22,0,0,0,55,60.26,11,11,0,0,0,49,62a11,11,0,0,0-6-1.75,11.2,11.2,0,0,0-9.26,4.93,5.52,5.52,0,0,1-2-2.58,5.39,5.39,0,0,1,3.83-3.27,60.44,60.44,0,0,1,27,0,5.38,5.38,0,0,1,3.82,3.26A5.42,5.42,0,0,1,64.23,65.19Z"/><path class="cls-1" d="M75.17,42.26a3.25,3.25,0,0,1,2.44-1.43,3.17,3.17,0,0,1,2.33,1.31.23.23,0,0,1-.07.07c-1.8,1.83-3.14,5.93-3.44,10.88-.05.71-.08,1.43-.08,2.16s0,1.61.09,2.39c.34,4.92,1.69,9,3.5,10.72,0,.06-.09.13-.14.18a2.68,2.68,0,0,1-4.39,0c-2-2.17-3.41-7.23-3.43-13.15v-.14C72,49.52,73.28,44.59,75.17,42.26Z"/><path class="cls-1" d="M24.73,41.53A3.25,3.25,0,0,0,22.3,40.1,3.17,3.17,0,0,0,20,41.41a.46.46,0,0,0,.07.07c1.81,1.83,3.14,5.93,3.45,10.89,0,.7.07,1.42.07,2.15s0,1.61-.09,2.39c-.33,4.92-1.69,9-3.5,10.72l.15.19A3,3,0,0,0,22.3,69a3,3,0,0,0,2.19-1.13c2-2.18,3.41-7.24,3.43-13.16v0s0-.06,0-.09C27.93,48.79,26.62,43.86,24.73,41.53Z"/><path class="cls-7" d="M84.75,46.39a.54.54,0,0,0-.07-.13,35.36,35.36,0,0,0-70.19,1.5,8.2,8.2,0,0,0-.12,1.32v.31c0,.63-.06,1.27-.06,1.91h.06v8.9a7.92,7.92,0,0,0,5.48,7.54l.11-.11c1.81-1.76,3.17-5.8,3.5-10.72.06-.78.09-1.57.09-2.39s0-1.45-.07-2.15c-.31-5-1.64-9.06-3.45-10.89l-.17.05a8.1,8.1,0,0,0-2.21,1.13,33.18,33.18,0,0,1,64.19.46,7.84,7.84,0,0,0-1.8-.86l-.17,0c-1.8,1.83-3.14,5.93-3.44,10.88-.05.71-.08,1.43-.08,2.16s0,1.61.09,2.39c.34,4.92,1.69,9,3.5,10.72l.12.11a7.94,7.94,0,0,0,5.08-5.08,8,8,0,0,0,.4-2.46V49.81A7.81,7.81,0,0,0,84.75,46.39Z"/></g></svg>