<svg id="Ebene_1" data-name="Ebene 1" xmlns="http://www.w3.org/2000/svg" xmlns:xlink="http://www.w3.org/1999/xlink" viewBox="0 0 100 100"><defs><style>.cls-1{fill:#62697f;}.cls-2{fill:url(#Unbenannter_Verlauf_20);}.cls-3{opacity:0.5;}.cls-4{fill:#a81004;}.cls-5{fill:#fff;}.cls-6{fill:#f95428;}.cls-7{fill:#efefef;}</style><radialGradient id="Unbenannter_Verlauf_20" cx="49.01" cy="54.69" r="41.39" gradientUnits="userSpaceOnUse"><stop offset="0" stop-color="#fe8965"/><stop offset="0.28" stop-color="#fe8768"/><stop offset="0.51" stop-color="#fe8173"/><stop offset="0.73" stop-color="#fe7784"/><stop offset="0.94" stop-color="#ff6a9d"/><stop offset="1" stop-color="#ff65a5"/></radialGradient></defs><title>8</title><g id="Sad"><ellipse class="cls-1" cx="50.01" cy="11.78" rx="24.23" ry="8"/><circle class="cls-2" cx="49.01" cy="54.69" r="41.39"/><path class="cls-3" d="M27.26,76.43A41.39,41.39,0,0,1,23.74,21.9,41.39,41.39,0,1,0,78.27,84a40,40,0,0,0,3.52-4A41.39,41.39,0,0,1,27.26,76.43Z"/><path class="cls-3" d="M56,80a1.52,1.52,0,0,1-.42-.06,24.1,24.1,0,0,0-13.05,0,1.54,1.54,0,0,1-.83-3,27.22,27.22,0,0,1,14.71,0A1.54,1.54,0,0,1,56,80Z"/><path class="cls-4" d="M74.37,66.43l-.09.25-.06.17A9,9,0,0,1,69.4,72v0c-.09-.17-.18-.33-.28-.49a13.79,13.79,0,0,0-20.1-4,13.8,13.8,0,0,0-20.11,4c-.1.16-.19.32-.28.49v0a9,9,0,0,1-4.82-5.19l-.06-.17a2.25,2.25,0,0,1-.08-.24,8.94,8.94,0,0,1,6.52-6,84.05,84.05,0,0,1,37.67,0A9,9,0,0,1,74.37,66.43Z"/><path class="cls-5" d="M67.84,54.85a9,9,0,0,1,6.53,11.58,9,9,0,0,0-6.53-6,84.05,84.05,0,0,0-37.67,0,8.94,8.94,0,0,0-6.52,6,9,9,0,0,1,6.52-11.59A84.34,84.34,0,0,1,67.84,54.85Z"/><path class="cls-6" d="M69.11,71.52c.1.16.19.32.28.49v0h0a9,9,0,0,1-5.64.55,65.88,65.88,0,0,0-29.5,0A9,9,0,0,1,28.61,72h0v0c.09-.17.18-.33.28-.49a13.8,13.8,0,0,1,20.11-4,13.79,13.79,0,0,1,20.1,4Z"/><path d="M39.76,45.13a1.54,1.54,0,0,0-.55-1.71,27.6,27.6,0,0,0-15.33-4.6,1.54,1.54,0,1,0,0,3.07,25.08,25.08,0,0,1,9,1.69,66.23,66.23,0,0,0-14.5,4.27A1.54,1.54,0,0,0,19,50.79a1.5,1.5,0,0,0,.62-.13c.1,0,10.23-4.47,18.71-4.47A1.55,1.55,0,0,0,39.76,45.13Z"/><path d="M79.66,47.85a65.59,65.59,0,0,0-14.51-4.27,25.05,25.05,0,0,1,9-1.69,1.54,1.54,0,1,0,0-3.07,27.6,27.6,0,0,0-15.33,4.6,1.54,1.54,0,0,0,.91,2.77c8.45,0,18.59,4.41,18.71,4.47a1.5,1.5,0,0,0,.62.13,1.53,1.53,0,0,0,.62-2.94Z"/><path d="M68.18,53.36a86.19,86.19,0,0,0-38.35,0,10.54,10.54,0,0,0-7.64,13.55c0,.09.06.18.09.29l.07.17a10.57,10.57,0,0,0,5.56,6l.07,0a10.46,10.46,0,0,0,6.62.64,64.85,64.85,0,0,1,28.81,0A10.43,10.43,0,0,0,70,73.44l.07,0a10.59,10.59,0,0,0,5.57-6l.06-.18.09-.28a10.52,10.52,0,0,0-7.64-13.55Zm-37.66,3a83,83,0,0,1,37,0A7.33,7.33,0,0,1,72.31,60,7.22,7.22,0,0,1,73,61.49,10.5,10.5,0,0,0,68.18,59a86.19,86.19,0,0,0-38.35,0,10.47,10.47,0,0,0-4.78,2.52A7.19,7.19,0,0,1,25.7,60,7.33,7.33,0,0,1,30.52,56.35ZM64.1,71.09a67.87,67.87,0,0,0-30.19,0,7.42,7.42,0,0,1-2.93.08,12.33,12.33,0,0,1,9.79-4.88,12.15,12.15,0,0,1,7.32,2.43,1.55,1.55,0,0,0,1.83,0,12.15,12.15,0,0,1,7.32-2.43A12.33,12.33,0,0,1,67,71.17,7.25,7.25,0,0,1,64.1,71.09ZM70,70a15.39,15.39,0,0,0-12.71-6.75A15.17,15.17,0,0,0,49,65.62a15.23,15.23,0,0,0-8.24-2.39A15.41,15.41,0,0,0,28.06,70a7.48,7.48,0,0,1-2.78-3.54A7.37,7.37,0,0,1,30.52,62a83,83,0,0,1,37,0,7.39,7.39,0,0,1,5.24,4.48A7.56,7.56,0,0,1,70,70Z"/><path class="cls-1" d="M85,38.54a4.48,4.48,0,0,1,3.34-2,4.35,4.35,0,0,1,3.21,1.8l-.1.09C88.92,41,87.09,46.6,86.67,53.4c-.06,1-.1,2-.1,3s.05,2.21.12,3.27c.46,6.75,2.32,12.29,4.81,14.71l-.21.25a3.69,3.69,0,0,1-6,0c-2.74-3-4.68-9.93-4.71-18v-.19C80.57,48.5,82.36,41.73,85,38.54Z"/><path class="cls-1" d="M15.78,37.54a4.48,4.48,0,0,0-3.33-2,4.33,4.33,0,0,0-3.21,1.8l.1.09c2.47,2.51,4.3,8.13,4.72,14.93.06,1,.1,2,.1,3s0,2.21-.12,3.27c-.46,6.75-2.31,12.29-4.8,14.71l.2.25a4.15,4.15,0,0,0,3,1.55,4.15,4.15,0,0,0,3-1.55c2.75-3,4.68-9.93,4.71-18v-.19C20.16,47.5,18.37,40.73,15.78,37.54Z"/><path class="cls-7" d="M98.09,44.2,98,44a48.49,48.49,0,0,0-96.25,2,10.78,10.78,0,0,0-.17,1.81v.43c-.05.87-.07,1.74-.07,2.62h.07v12.2A10.88,10.88,0,0,0,9.08,73.48l.16-.14c2.49-2.42,4.34-8,4.8-14.71q.12-1.59.12-3.27c0-1,0-2-.1-3C13.64,45.6,11.81,40,9.34,37.47l-.23.07a11.19,11.19,0,0,0-3,1.55,45.5,45.5,0,0,1,88,.62,10.9,10.9,0,0,0-2.46-1.17l-.23-.07C88.92,41,87.09,46.6,86.67,53.4c-.06,1-.1,2-.1,3s.05,2.21.12,3.27c.46,6.75,2.32,12.29,4.81,14.71l.15.14a10.88,10.88,0,0,0,7.51-10.34V48.89A10.83,10.83,0,0,0,98.09,44.2Z"/></g></svg>