<svg id="Ebene_1" data-name="Ebene 1" xmlns="http://www.w3.org/2000/svg" xmlns:xlink="http://www.w3.org/1999/xlink" viewBox="0 0 100 100"><defs><style>.cls-1{fill:#62697f;}.cls-2{fill:url(#Unbenannter_Verlauf_20);}.cls-3{opacity:0.5;}.cls-4{fill:#a81004;}.cls-5{fill:#fff;}.cls-6{fill:#f95428;}.cls-7{fill:#efefef;}</style><radialGradient id="Unbenannter_Verlauf_20" cx="50.93" cy="54.27" r="42.47" gradientUnits="userSpaceOnUse"><stop offset="0" stop-color="#fe8965"/><stop offset="0.28" stop-color="#fe8768"/><stop offset="0.51" stop-color="#fe8173"/><stop offset="0.73" stop-color="#fe7784"/><stop offset="0.94" stop-color="#ff6a9d"/><stop offset="1" stop-color="#ff65a5"/></radialGradient></defs><title>9</title><g id="Surrprise"><ellipse class="cls-1" cx="50.01" cy="11.78" rx="24.23" ry="8"/><circle class="cls-2" cx="50.93" cy="54.27" r="42.47"/><path class="cls-3" d="M28.62,76.58a42.48,42.48,0,0,1-3.61-56A42.47,42.47,0,1,0,84.57,80.19,42.47,42.47,0,0,1,28.62,76.58Z"/><path class="cls-4" d="M50.65,78.83h0A10.39,10.39,0,0,1,40.26,68.44V60.25A10.39,10.39,0,0,1,50.65,49.86h0A10.39,10.39,0,0,1,61,60.25v8.19A10.4,10.4,0,0,1,50.65,78.83Z"/><ellipse class="cls-5" cx="30.15" cy="45.27" rx="11.65" ry="9.24" transform="translate(-23.18 34.58) rotate(-45)"/><ellipse class="cls-5" cx="71.71" cy="45.27" rx="9.24" ry="11.65" transform="translate(-11.01 63.96) rotate(-45)"/><path class="cls-6" d="M53.29,67.88a6,6,0,0,1,2.49-.55,6.93,6.93,0,0,1,5.15,2.56,10.39,10.39,0,0,1-20.57,0,7,7,0,0,1,5.15-2.56,5.91,5.91,0,0,1,2.49.55A6.42,6.42,0,0,0,53.29,67.88Z"/><path class="cls-5" d="M59.59,55A12.81,12.81,0,0,1,41.7,55,10.38,10.38,0,0,1,58,52.91,10,10,0,0,1,59.59,55Z"/><path d="M39.51,35.92c-4.22-4.22-11.85-3.46-17,1.7s-5.93,12.78-1.71,17a9.67,9.67,0,0,0,7,2.73,14.51,14.51,0,0,0,10-4.43C43,47.76,43.72,40.13,39.51,35.92Zm-.47,8a11.68,11.68,0,0,1-3.46,6.81,11.68,11.68,0,0,1-6.81,3.46A6.79,6.79,0,0,1,23,52.39c-3-3-2.23-8.61,1.7-12.54a11.38,11.38,0,0,1,7.82-3.53,6.55,6.55,0,0,1,4.73,1.82A6.83,6.83,0,0,1,39,43.88Z"/><path d="M79.36,37.62c-5.16-5.16-12.79-5.92-17-1.7s-3.46,11.84,1.7,17a14.53,14.53,0,0,0,10.06,4.43,9.66,9.66,0,0,0,6.94-2.73C85.28,50.4,84.51,42.78,79.36,37.62ZM78.84,52.4a6.83,6.83,0,0,1-5.75,1.75A12.32,12.32,0,0,1,62.83,43.88a6.79,6.79,0,0,1,1.75-5.74,6.55,6.55,0,0,1,4.73-1.82,11.35,11.35,0,0,1,7.82,3.53C81.06,43.78,81.82,49.41,78.84,52.4Z"/><path d="M59.11,51.79a12,12,0,0,0-20.42,8.46v8.19a12.89,12.89,0,0,0,.11,1.67,12,12,0,0,0,23.69,0,11.56,11.56,0,0,0,.12-1.68V60.25A11.9,11.9,0,0,0,61,54.17,12.6,12.6,0,0,0,59.11,51.79Zm-3.33,14a7.54,7.54,0,0,0-3.14.69,4.79,4.79,0,0,1-4,0,7.54,7.54,0,0,0-3.14-.69,7.65,7.65,0,0,0-3.68,1V60.25a8.8,8.8,0,0,1,.45-2.75A14.41,14.41,0,0,0,59,57.5a8.79,8.79,0,0,1,.44,2.75v6.47A7.69,7.69,0,0,0,55.78,65.75ZM50.65,51.44A8.74,8.74,0,0,1,56.88,54a7.92,7.92,0,0,1,.61.69,11.26,11.26,0,0,1-13.69,0A8.86,8.86,0,0,1,50.65,51.44Zm0,25.81a8.85,8.85,0,0,1-8.59-6.84,5.08,5.08,0,0,1,3.45-1.51,4.47,4.47,0,0,1,1.84.41,8,8,0,0,0,6.59,0,4.47,4.47,0,0,1,1.84-.41,5.1,5.1,0,0,1,3.46,1.51A8.85,8.85,0,0,1,50.65,77.25Z"/><path class="cls-1" d="M85,38.54a4.48,4.48,0,0,1,3.34-2,4.35,4.35,0,0,1,3.21,1.8l-.1.09C88.92,41,87.09,46.6,86.67,53.4c-.06,1-.1,2-.1,3s.05,2.21.12,3.27c.46,6.75,2.32,12.29,4.81,14.71l-.21.25a3.69,3.69,0,0,1-6,0c-2.74-3-4.68-9.93-4.71-18v-.19C80.57,48.5,82.36,41.73,85,38.54Z"/><path class="cls-1" d="M15.78,37.54a4.48,4.48,0,0,0-3.33-2,4.33,4.33,0,0,0-3.21,1.8l.1.09c2.47,2.51,4.3,8.13,4.72,14.93.06,1,.1,2,.1,3s0,2.21-.12,3.27c-.46,6.75-2.31,12.29-4.8,14.71l.2.25a4.15,4.15,0,0,0,3,1.55,4.15,4.15,0,0,0,3-1.55c2.75-3,4.68-9.93,4.71-18v-.19C20.16,47.5,18.37,40.73,15.78,37.54Z"/><path class="cls-7" d="M98.09,44.2,98,44a48.49,48.49,0,0,0-96.25,2,10.78,10.78,0,0,0-.17,1.81v.43c-.05.87-.07,1.74-.07,2.62h.07v12.2A10.88,10.88,0,0,0,9.08,73.48l.16-.14c2.49-2.42,4.34-8,4.8-14.71q.12-1.59.12-3.27c0-1,0-2-.1-3C13.64,45.6,11.81,40,9.34,37.47l-.23.07a11.19,11.19,0,0,0-3,1.55,45.5,45.5,0,0,1,88,.62,10.9,10.9,0,0,0-2.46-1.17l-.23-.07C88.92,41,87.09,46.6,86.67,53.4c-.06,1-.1,2-.1,3s.05,2.21.12,3.27c.46,6.75,2.32,12.29,4.81,14.71l.15.14a10.88,10.88,0,0,0,7.51-10.34V48.89A10.83,10.83,0,0,0,98.09,44.2Z"/></g></svg>