<svg id="Ebene_1" data-name="Ebene 1" xmlns="http://www.w3.org/2000/svg" xmlns:xlink="http://www.w3.org/1999/xlink" viewBox="0 0 100 100"><defs><style>.cls-1{fill:#62697f;}.cls-2{fill:url(#Unbenannter_Verlauf_20);}.cls-3{opacity:0.5;}.cls-4{fill:#a81004;}.cls-5{fill:#fff;}.cls-6{fill:#f95428;}.cls-7{fill:#efefef;}</style><radialGradient id="Unbenannter_Verlauf_20" cx="50.51" cy="53.49" r="30.97" gradientUnits="userSpaceOnUse"><stop offset="0" stop-color="#fe8965"/><stop offset="0.28" stop-color="#fe8768"/><stop offset="0.51" stop-color="#fe8173"/><stop offset="0.73" stop-color="#fe7784"/><stop offset="0.94" stop-color="#ff6a9d"/><stop offset="1" stop-color="#ff65a5"/></radialGradient></defs><title>9</title><g id="Surrprise"><ellipse class="cls-1" cx="49.84" cy="22.5" rx="17.67" ry="5.83"/><circle class="cls-2" cx="50.51" cy="53.49" r="30.97"/><path class="cls-3" d="M34.24,69.76A31,31,0,0,1,31.61,29a32.2,32.2,0,0,0-3,2.64,31,31,0,1,0,46.44,40.8A31,31,0,0,1,34.24,69.76Z"/><path class="cls-4" d="M50.31,71.4h0a7.58,7.58,0,0,1-7.58-7.58v-6a7.57,7.57,0,0,1,7.58-7.57h0a7.57,7.57,0,0,1,7.57,7.57v6A7.58,7.58,0,0,1,50.31,71.4Z"/><ellipse class="cls-5" cx="35.36" cy="46.92" rx="8.5" ry="6.74" transform="translate(-22.82 38.75) rotate(-45)"/><ellipse class="cls-5" cx="65.67" cy="46.92" rx="6.74" ry="8.5" transform="translate(-13.95 60.18) rotate(-45)"/><path class="cls-6" d="M52.23,63.41a4.42,4.42,0,0,1,1.82-.4,5.09,5.09,0,0,1,3.76,1.87,7.57,7.57,0,0,1-15,0A5.05,5.05,0,0,1,46.56,63a4.42,4.42,0,0,1,1.82.4A4.62,4.62,0,0,0,52.23,63.41Z"/><path class="cls-5" d="M56.83,54a9.36,9.36,0,0,1-13,0,7.58,7.58,0,0,1,11.88-1.5A7.76,7.76,0,0,1,56.83,54Z"/><path d="M42.18,40.1c-3.07-3.07-8.63-2.51-12.4,1.25s-4.31,9.32-1.24,12.4a7.07,7.07,0,0,0,5.07,2,10.56,10.56,0,0,0,7.33-3.23C44.7,48.74,45.26,43.18,42.18,40.1Zm-.34,5.81a9,9,0,0,1-7.49,7.49,5,5,0,0,1-4.19-1.28C28,49.94,28.54,45.84,31.41,43a8.27,8.27,0,0,1,5.7-2.57,4.77,4.77,0,0,1,3.45,1.33A5,5,0,0,1,41.84,45.91Z"/><path d="M71.24,41.35c-3.76-3.76-9.32-4.32-12.4-1.25s-2.51,8.64,1.25,12.4a10.55,10.55,0,0,0,7.33,3.23,7.08,7.08,0,0,0,5.07-2C75.56,50.67,75,45.11,71.24,41.35Zm-.38,10.77a4.94,4.94,0,0,1-4.18,1.28,9,9,0,0,1-7.49-7.49,4.94,4.94,0,0,1,1.28-4.18,4.75,4.75,0,0,1,3.45-1.33A8.29,8.29,0,0,1,69.62,43C72.48,45.84,73,49.94,70.86,52.12Z"/><path d="M56.47,51.68a8.73,8.73,0,0,0-14.89,6.17v6A8,8,0,0,0,41.67,65a8.72,8.72,0,0,0,17.27,0A8.28,8.28,0,0,0,59,63.82v-6a8.76,8.76,0,0,0-1.21-4.44A9,9,0,0,0,56.47,51.68ZM54.05,61.86a5.45,5.45,0,0,0-2.29.51,3.6,3.6,0,0,1-2.91,0,5.45,5.45,0,0,0-2.29-.51,5.53,5.53,0,0,0-2.68.7V57.85a6.55,6.55,0,0,1,.32-2,10.49,10.49,0,0,0,12.21,0,6.55,6.55,0,0,1,.32,2v4.72A5.62,5.62,0,0,0,54.05,61.86ZM50.31,51.42a6.36,6.36,0,0,1,4.54,1.89,5.35,5.35,0,0,1,.45.5,8.23,8.23,0,0,1-10,0A6.47,6.47,0,0,1,50.31,51.42Zm0,18.83a6.46,6.46,0,0,1-6.27-5,3.71,3.71,0,0,1,2.52-1.1,3.19,3.19,0,0,1,1.34.3,5.85,5.85,0,0,0,4.81,0,3.22,3.22,0,0,1,1.34-.3,3.71,3.71,0,0,1,2.52,1.1A6.45,6.45,0,0,1,50.31,70.25Z"/><path class="cls-1" d="M75.32,42a3.25,3.25,0,0,1,2.44-1.43,3.17,3.17,0,0,1,2.33,1.31L80,42c-1.8,1.83-3.14,5.93-3.44,10.88,0,.71-.08,1.43-.08,2.16s0,1.61.09,2.39c.34,4.92,1.69,9,3.5,10.72,0,.06-.09.13-.14.18a2.68,2.68,0,0,1-4.39,0c-2-2.17-3.41-7.23-3.43-13.15V55C72.13,49.28,73.43,44.35,75.32,42Z"/><path class="cls-1" d="M24.88,41.29a3.25,3.25,0,0,0-2.43-1.43,3.17,3.17,0,0,0-2.34,1.31.46.46,0,0,0,.07.07c1.81,1.83,3.14,5.93,3.45,10.88,0,.71.07,1.43.07,2.16s0,1.61-.09,2.39c-.33,4.92-1.69,9-3.5,10.72.05.06.1.13.15.18a3,3,0,0,0,2.19,1.14,3,3,0,0,0,2.19-1.14c2-2.17,3.41-7.23,3.43-13.15v-.05s0-.06,0-.09C28.08,48.55,26.77,43.62,24.88,41.29Z"/><path class="cls-7" d="M84.9,46.15a.54.54,0,0,0-.07-.13,35.36,35.36,0,0,0-70.19,1.5,8.2,8.2,0,0,0-.12,1.32v.31c0,.63-.06,1.27-.06,1.91h.06V60A7.92,7.92,0,0,0,20,67.5a1.14,1.14,0,0,1,.11-.11c1.81-1.76,3.17-5.8,3.5-10.72.06-.78.09-1.57.09-2.39s0-1.45-.07-2.16c-.31-4.95-1.64-9-3.45-10.88l-.16,0a8,8,0,0,0-2.22,1.13A33.18,33.18,0,0,1,82,42.88a7.84,7.84,0,0,0-1.8-.86L80,42c-1.8,1.83-3.14,5.93-3.44,10.88,0,.71-.08,1.43-.08,2.16s0,1.61.09,2.39c.34,4.92,1.69,9,3.5,10.72l.12.11a7.94,7.94,0,0,0,5.08-5.08,7.73,7.73,0,0,0,.4-2.46V49.57A7.81,7.81,0,0,0,84.9,46.15Z"/></g></svg>